<?xml version="1.0" encoding="UTF-8"?>
<svg width="115px" height="122px" viewBox="0 0 115 122" version="1.1" xmlns="http://www.w3.org/2000/svg" xmlns:xlink="http://www.w3.org/1999/xlink">
    <!-- Generator: Sketch 52.4 (67378) - http://www.bohemiancoding.com/sketch -->
    <title>Group 22</title>
    <desc>Created with Sketch.</desc>
    <g id="Desktop-Website" stroke="none" stroke-width="1" fill="none" fill-rule="evenodd">
        <g id="Business-Solutions" transform="translate(-1267.000000, -142.000000)">
            <g id="Group-22" transform="translate(1267.000000, 142.000000)">
                <path d="M6.92803115,0.770792434 L9.99633028,0.770792434 L9.99633028,0 L6.92803115,0 L6.92803115,0.770792434 Z M13.0646294,0.770792434 L16.1329286,0.770792434 L16.1329286,0 L13.0646294,0 L13.0646294,0.770792434 Z M19.2012277,0.770792434 L22.2695268,0.770792434 L22.2695268,0 L19.2012277,0 L19.2012277,0.770792434 Z M25.337826,0.770792434 L28.4061251,0.770792434 L28.4061251,0 L25.337826,0 L25.337826,0.770792434 Z M31.4744242,0.770792434 L34.5427234,0.770792434 L34.5427234,0 L31.4744242,0 L31.4744242,0.770792434 Z M37.6110225,0.770792434 L40.6793216,0.770792434 L40.6793216,0 L37.6110225,0 L37.6110225,0.770792434 Z M43.7476208,0.770792434 L46.8159199,0.770792434 L46.8159199,0 L43.7476208,0 L43.7476208,0.770792434 Z M49.884219,0.770792434 L52.9525182,0.770792434 L52.9525182,0 L49.884219,0 L49.884219,0.770792434 Z M56.0208173,0.770792434 L59.0891165,0.770792434 L59.0891165,0 L56.0208173,0 L56.0208173,0.770792434 Z M62.1574156,0.770792434 L65.2257147,0.770792434 L65.2257147,0 L62.1574156,0 L62.1574156,0.770792434 Z M68.2940139,0.770792434 L71.362313,0.770792434 L71.362313,0 L68.2940139,0 L68.2940139,0.770792434 Z M74.4306121,0.770792434 L77.4989113,0.770792434 L77.4989113,0 L74.4306121,0 L74.4306121,0.770792434 Z M80.5672104,0.770792434 L83.6355095,0.770792434 L83.6355095,0 L80.5672104,0 L80.5672104,0.770792434 Z M86.7038087,0.770792434 L89.7721078,0.770792434 L89.7721078,0 L86.7038087,0 L86.7038087,0.770792434 Z M92.8404069,0.770792434 L95.9087061,0.770792434 L95.9087061,0 L92.8404069,0 L92.8404069,0.770792434 Z M98.9770052,0.770792434 L102.045304,0.770792434 L102.045304,0 L98.9770052,0 L98.9770052,0.770792434 Z M105.113603,0.770792434 L108.181903,0.770792434 L108.181903,0 L105.113603,0 L105.113603,0.770792434 Z M111.250202,0.770792434 L114.318501,0.770792434 L114.318501,0 L111.250202,0 L111.250202,0.770792434 Z M1.26395095,0.968115297 L0.300505017,-5.55111512e-17 L3.85973201,-5.55111512e-17 L3.85973201,0.770792434 L1.46032209,0.770792434 L1.26395095,0.968115297 Z M5.60406007,5.3277173 L3.43323843,3.1479163 L3.97632738,2.60219526 L6.14561487,4.78199626 L5.60406007,5.3277173 Z M9.94263505,9.6888609 L7.77334756,7.50751831 L8.31490236,6.96333885 L10.4841898,9.14313985 L9.94263505,9.6888609 Z M14.2827442,14.0484629 L12.1134567,11.8686619 L12.6550115,11.3229409 L14.824299,13.5042834 L14.2827442,14.0484629 Z M18.6213192,18.4080649 L16.4520317,16.2282639 L16.9935865,15.6840844 L19.162874,17.8638855 L18.6213192,18.4080649 Z M22.9598941,22.7692085 L20.7906066,20.5878659 L21.3321614,20.0436865 L23.5029831,22.2234875 L22.9598941,22.7692085 Z M27.3000033,27.1288105 L25.1307158,24.9490095 L25.6738047,24.4032885 L27.8430922,26.584631 L27.3000033,27.1288105 Z M31.6385782,31.4899541 L29.4692907,29.3101531 L30.0123797,28.7644321 L32.1816672,30.9442331 L31.6385782,31.4899541 Z" id="Fill-41" fill="#F5F5F5"></path>
                <path d="M58.756206,11.2810097 C59.843918,10.6458768 60.7444638,11.1607661 60.7552029,12.4171578 L60.9745863,53.409441 C60.9807229,54.6689159 60.0939844,56.2182087 59.0047382,56.8548832 L7.24713426,87.076113 C6.15481977,87.7143291 5.25580812,87.2086893 5.24813737,85.9538392 L5.02415154,44.9584728 C5.01801494,43.6959148 5.89861679,42.1419972 6.99553373,41.5022395 L58.756206,11.2810097 Z" id="Fill-1675" fill="#4D39B9"></path>
                <polygon id="Fill-1677" fill="#383B40" points="7.43261294 46.2677408 7.43261294 79.3254867 41.5536335 59.405127 41.5536335 26.3458396"></polygon>
                <polygon id="Fill-1679" fill="#FFFFFF" points="43.5510962 25.3192982 43.5510962 58.3770441 59.2684585 49.1999894 59.2684585 16.1422435"></polygon>
                <polygon id="Fill-1681" fill="#FDBC4F" points="52.0863373 22.1157307 44.8743002 26.3257989 44.8743002 28.4562692 52.0863373 24.2477425"></polygon>
                <polygon id="Fill-1683" fill="#FDBC4F" points="52.0863373 26.6260997 44.8743002 30.8346264 44.8743002 32.9666382 52.0863373 28.7581116"></polygon>
                <polygon id="Fill-1685" fill="#FDBC4F" points="52.0863373 31.1333855 44.8743002 35.3449954 44.8743002 37.4770073 52.0863373 33.266939"></polygon>
                <polygon id="Fill-1687" fill="#FFFFFF" points="49.7160763 37.0271728 49.7160763 39.1591847 57.9437204 34.3556062 57.9437204 32.2235943"></polygon>
                <polygon id="Fill-1689" fill="#FDBC4F" points="49.7160763 41.5375418 49.7160763 43.6695537 57.9437204 38.8659752 57.9437204 36.7339633"></polygon>
                <polygon id="Fill-1691" fill="#FDBC4F" points="49.7160763 46.0479108 49.7160763 48.1783811 57.9437204 43.3748026 57.9437204 41.2427908"></polygon>
                <polygon id="Fill-1693" fill="#FDBC4F" points="49.7160763 50.5567382 49.7160763 52.6887501 57.9437204 47.8836301 57.9437204 45.7531598"></polygon>
                <path d="M106.825714,83.5788735 C106.825714,83.6282042 106.82418,83.6729102 106.813441,83.7237825 C106.808839,83.7684885 106.80577,83.814736 106.799634,83.8625251 C106.7981,83.9056895 106.781224,83.9442291 106.773553,83.9904767 C106.76128,84.0336411 106.747473,84.0814302 106.733665,84.1276777 C106.722926,84.1662174 106.701448,84.2001322 106.684573,84.2371303 C106.666163,84.2880026 106.646219,84.3404164 106.618604,84.386664 C106.606331,84.423662 106.578716,84.4560353 106.558772,84.4914918 C106.529624,84.5454472 106.492804,84.5994027 106.455984,84.6518166 C106.432972,84.687273 106.403823,84.7196463 106.377743,84.7489364 C106.324047,84.8167662 106.268818,84.8861375 106.20285,84.9478009 C106.172167,84.9786326 106.13995,85.0125474 106.104664,85.0418376 C106.064776,85.0803772 106.026422,85.1142921 105.981932,85.1528317 C105.937442,85.1882881 105.891417,85.2268277 105.84079,85.2638258 C105.7963,85.2977407 105.745673,85.3316555 105.69658,85.367112 C105.619873,85.4164427 105.5447,85.4703982 105.461855,85.5197289 L51.0409678,117.294876 C50.8353918,117.41512 50.6098718,117.516864 50.3828177,117.607818 C50.3183834,117.630942 50.2539491,117.65869 50.1895148,117.683356 C50.037634,117.735769 49.8872873,117.782017 49.7292699,117.822098 C49.5927306,117.856013 49.453123,117.897636 49.3119813,117.926926 C49.1156101,117.967007 48.9131024,118.004005 48.7151971,118.031754 C48.6722409,118.034837 48.6354213,118.044086 48.5970676,118.04717 C48.334728,118.073377 48.0739226,118.090334 47.8054464,118.093417 C47.7624902,118.093417 47.7226023,118.098042 47.6796461,118.098042 C47.4265114,118.093417 47.1672402,118.078001 46.9156396,118.053336 C46.8696151,118.04717 46.8281931,118.04717 46.7837028,118.039462 C46.5367047,118.011713 46.2881725,117.971632 46.047311,117.914593 C46.0012865,117.905344 45.9506596,117.896094 45.9046351,117.88222 C45.6729785,117.825181 45.4474585,117.757352 45.2342117,117.677189 C45.206597,117.671023 45.1774482,117.663315 45.1575042,117.654065 C44.9059037,117.558487 44.6635081,117.442868 44.4379881,117.313375 L5.86026305,94.9249382 C4.9581831,94.4007993 4.50867728,93.7132524 4.50407483,93.0226224 C4.51174558,94.3005963 4.51788218,95.5801117 4.52401878,96.8596272 C4.52708708,97.5517988 4.98119535,98.2393456 5.88020699,98.7665676 L44.4625345,121.15038 C44.6788496,121.278331 44.9151086,121.386242 45.1590384,121.483362 C45.1667091,121.487987 45.1713116,121.487987 45.175914,121.49107 C45.2035287,121.50032 45.2311434,121.508028 45.2526215,121.512652 C45.4075706,121.572774 45.5625197,121.628271 45.7220713,121.669894 C45.7895738,121.691476 45.8586106,121.700726 45.9261132,121.716142 C45.9752059,121.726933 46.0196963,121.740807 46.0672549,121.75314 C46.1178819,121.765472 46.1623722,121.776263 46.2083967,121.785513 C46.3648799,121.816345 46.5152266,121.842552 46.6747781,121.861051 C46.7177343,121.868758 46.7637588,121.873383 46.8097833,121.881091 C46.8496712,121.884174 46.8864908,121.885716 46.9248445,121.890341 C46.9923471,121.89959 47.0583155,121.905757 47.124284,121.910381 C47.2807672,121.922714 47.432648,121.930422 47.5845288,121.933505 L47.7026584,121.933505 C47.7425462,121.933505 47.7870366,121.933505 47.8299928,121.930422 C47.9067003,121.930422 47.9849419,121.933505 48.0601152,121.925797 C48.2365424,121.919631 48.4052989,121.905757 48.5755895,121.890341 C48.590931,121.885716 48.6032042,121.885716 48.621614,121.884174 C48.6553652,121.881091 48.6952531,121.873383 48.735141,121.865675 C48.8778169,121.850259 49.022027,121.833302 49.1616346,121.807095 C49.2230006,121.796304 49.2751617,121.77318 49.3334593,121.765472 C49.473067,121.733099 49.6080721,121.700726 49.7430773,121.663728 C49.8274555,121.635979 49.9118337,121.625188 49.9946778,121.59744 C50.0698511,121.572774 50.140422,121.543484 50.2171295,121.512652 C50.2800296,121.494153 50.3383273,121.47103 50.4027616,121.443281 C50.6298157,121.353869 50.8553357,121.253666 51.0593776,121.130339 L105.481799,89.3567336 C105.53396,89.3228187 105.584587,89.2966118 105.636748,89.2626969 C105.665897,89.2426563 105.68891,89.2195326 105.713456,89.2025751 C105.770219,89.1702018 105.819312,89.1347454 105.865337,89.1008305 C105.911361,89.0638325 105.957386,89.0268344 106.006479,88.9867532 C106.044832,88.9497552 106.086254,88.9173819 106.123074,88.8834671 C106.143018,88.8680512 106.161428,88.8541769 106.178303,88.8372195 C106.196713,88.8202621 106.207452,88.8002215 106.224328,88.7801809 C106.287228,88.7138927 106.34706,88.6491462 106.403823,88.5843996 C106.416096,88.5659006 106.43604,88.5443184 106.449848,88.5319857 C106.460587,88.5165699 106.462121,88.5042372 106.474394,88.4949877 C106.51735,88.4348659 106.549567,88.3855351 106.583319,88.3284965 C106.595592,88.2992064 106.615536,88.2714579 106.632412,88.2483341 C106.63548,88.2406262 106.638548,88.2329182 106.646219,88.2267519 C106.666163,88.1712548 106.687641,88.118841 106.712187,88.0695102 C106.724461,88.0402201 106.739802,88.0124716 106.750541,87.9831815 C106.750541,87.9770152 106.755144,87.973932 106.755144,87.9631409 C106.772019,87.9138102 106.784292,87.8629379 106.793497,87.8136072 C106.804236,87.7858586 106.813441,87.7504022 106.821112,87.7180289 L106.821112,87.6979883 C106.833385,87.6517407 106.833385,87.5993269 106.837988,87.5530793 C106.841056,87.5191644 106.848727,87.483708 106.848727,87.4497931 L106.848727,87.4158783 C106.841056,86.1379044 106.833385,84.858389 106.825714,83.5788735" id="Fill-1695" fill="#D1DCE6"></path>
                <path d="M105.47735,81.6790243 L66.8980912,59.2921289 C65.0816581,58.2392264 62.1100104,58.2484759 60.2951114,59.3075447 L5.87268966,91.0857752 C4.05165413,92.1479272 4.05011998,93.8698775 5.86041647,94.9258631 L44.4381415,117.312759 C46.2499721,118.364119 49.2170174,118.359495 51.0411212,117.295801 L105.462009,85.5191122 C107.276908,84.4569603 107.28151,82.7303852 105.47735,81.6790243" id="Fill-1697" fill="#E8ECEF"></path>
                <path d="M62.0672076,6.65163039 C62.0319222,6.63158979 61.9812952,6.60538284 61.9490781,6.58534224 C61.6345774,6.40189364 61.3216109,6.21998663 61.0055761,6.03653803 C60.6880071,5.85154784 60.3781089,5.66964083 60.0590058,5.48773381 C59.4545509,5.13471088 58.6199735,5.18404159 57.7056204,5.72051313 L3.28473276,37.497202 C1.46062892,38.559354 -0.0152229639,41.1430502 0.000118531773,43.245772 L0.244048313,88.011855 C0.248650762,89.0570495 0.621449107,89.7954687 1.22130159,90.1361589 C2.00678617,90.5955512 2.79533904,91.0534019 3.58235777,91.509711 C2.98250529,91.164396 2.61277525,90.4275185 2.6051045,89.3792407 L2.36270887,44.6146993 C2.34736737,42.5150608 3.82628755,39.9313645 5.64732309,38.867671 L60.0651424,7.08944049 C60.9810297,6.55759371 61.8171412,6.50517983 62.4215961,6.85820276 C62.3019325,6.78883144 62.1868713,6.72100171 62.0672076,6.65163039" id="Fill-1699" fill="#D1DCE6"></path>
                <path d="M60.9750465,53.4095952 L60.754129,12.417312 C60.7449241,11.1609203 59.8443783,10.6460309 58.7566662,11.2811639 L6.99445983,41.5023937 C5.89907703,42.1406098 5.01694103,43.6960689 5.02307763,44.9586269 L5.24859762,85.9539933 C5.25626837,87.2088434 6.15528001,87.7144832 7.2475945,87.0762671 L59.0051985,56.8550374 C60.0944447,56.2183628 60.9811831,54.6675284 60.9750465,53.4095952 Z M60.0652958,7.08959465 C61.8817289,6.03052585 63.3836613,6.87531435 63.3944004,8.98111928 L63.6413985,53.7487439 C63.6506034,55.8483824 62.1732173,58.438245 60.3537159,59.500397 L5.93282832,91.2786275 C4.11025864,92.3407794 2.62059941,91.4851998 2.60525791,89.3793949 L2.36286228,44.6148535 C2.34752079,42.5152149 3.82644097,39.9315187 5.64747651,38.8678251 L60.0652958,7.08959465 Z" id="Fill-1701" fill="#E8ECEF"></path>
                <path d="M8.71654272,71.8423254 C9.02337263,71.0961984 9.32866839,70.3485297 9.63703246,69.6024026 C9.94386237,68.8531924 10.2491581,68.1039821 10.5529197,67.3547719 C11.3813605,65.3167967 12.1990622,63.2819047 12.986081,61.2485542 C13.1287569,60.8801154 13.2729669,60.5085935 13.4156428,60.1401547 C13.9970855,58.6170689 14.566255,57.093983 15.1124123,55.5708972 C15.3256591,54.9789286 15.5327692,54.3838768 15.7398794,53.7903666 C16.5268982,51.516529 17.2602217,49.2396081 17.9229743,46.9565209 C22.2860956,44.9277952 26.5832486,42.444302 30.9433017,39.4042967 C31.1289337,39.8313157 31.3191683,40.2552515 31.5124711,40.6714794 C31.7134447,41.0938737 31.9144183,41.5070184 32.1245968,41.9139968 C32.721381,43.0856013 33.3626555,44.2032503 34.0330789,45.2854429 C34.0698985,45.3486479 34.1082522,45.4103113 34.1466059,45.4704331 C34.5746337,46.15798 35.0180029,46.8285694 35.4675087,47.4929925 C35.6454701,47.7504371 35.8218973,48.0063402 36.0013928,48.2622433 C36.8436409,49.4677627 37.7135037,50.6393672 38.598708,51.8032637 C38.7245083,51.9682133 38.8503085,52.1362461 38.9776429,52.3027372 C39.327429,52.7590464 39.6787493,53.2168971 40.0270012,53.6762894 C35.0655615,58.3873727 29.8617262,62.062511 24.648686,65.104058 C19.3190504,68.2134347 13.7439508,70.9990785 8.71654272,71.8423254" id="Fill-1703" fill="#7F7F7F"></path>
                <path d="M21.1380915,54.4558688 C21.6259511,54.0905132 22.1168789,53.7806547 22.6078068,53.4445892 C22.6354215,53.4245486 22.6599679,53.4060495 22.6630362,53.4045079 L22.6630362,53.4060495 L22.6645703,53.4045079 C22.7704267,53.322804 22.8808854,53.2503495 22.9867417,53.1748118 C23.2429447,52.9913632 23.4960794,52.8048314 23.7522824,52.6198413 C24.2938372,52.2267371 24.8307895,51.8320914 25.3723443,51.4466952 C26.4278392,50.6944018 27.492539,49.9698569 28.5541705,49.3917625 C29.1248742,49.081904 29.7047827,48.7905444 30.2647473,48.6009295 C30.8323826,48.4128561 31.4537132,48.2617808 32.0305535,47.7515162 C32.7945599,47.0809268 33.4419711,46.2099314 34.0326186,45.286522 C34.0709724,45.349727 34.107792,45.4098488 34.1461457,45.4699706 C33.9451721,45.7875371 33.7349936,46.0989373 33.5186785,46.3980047 C33.1259362,46.9452674 32.6933061,47.4832805 32.2269246,47.8964252 C31.7298601,48.3373185 31.2496713,48.5870552 30.7510727,48.7705038 C30.158891,48.981701 29.5789824,49.1975228 28.9745275,49.508923 C28.3900165,49.8110736 27.8009031,50.1594718 27.214858,50.5371601 C26.0304945,51.3017862 24.8568701,52.1758648 23.6817115,53.032986 C23.0465736,53.4985446 22.414504,53.9301884 21.7762977,54.3679985 C21.4771386,54.5730293 21.1749111,54.7826848 20.8849568,55.0293384 C20.7806347,55.1202919 20.6625052,55.212787 20.5673879,55.3237811 C20.5474439,55.3469049 20.4906804,55.4147346 20.4906804,55.4147346 C20.4906804,55.4162762 20.4891463,55.4193594 20.4891463,55.4193594 C20.4983512,55.5673515 20.2881727,55.7461754 20.2498189,55.6043496 C20.1347577,55.1834969 20.8512056,54.6701491 21.1380915,54.4558688" id="Fill-1705" fill="#A1A1A1"></path>
                <path d="M21.1635584,48.5364913 C21.3491905,47.6469968 22.2497363,47.0981926 22.8020301,46.6187597 C23.9342325,45.6321454 25.046491,44.5052468 26.2308544,43.9086535 C26.565299,43.7421623 26.8951412,43.6018781 27.2234492,43.4662186 C27.3553861,43.4138047 27.4827205,43.3629324 27.611589,43.308977 C27.6744892,43.2858532 27.7389235,43.2596462 27.8033577,43.2334393 C27.8186992,43.2288146 27.8769969,43.2026076 27.9107482,43.1887333 C28.410881,42.9667451 28.8972064,42.6800103 29.4004074,42.3377785 C29.5338784,42.2452834 29.6673495,42.1543299 29.8008205,42.0587516 C29.8606523,42.0171288 29.91895,41.9739645 29.9772477,41.9323417 C29.9941233,41.9215506 30.0447503,41.883011 30.0754332,41.8598872 C30.2948166,41.6964792 30.5126659,41.5284464 30.728981,41.3511642 C30.9943888,41.1338007 31.2551943,40.9102709 31.5129314,40.6713253 C31.713905,41.0937195 31.9148786,41.5068643 32.1250571,41.9138427 C31.2137722,42.8079619 30.2441897,43.5386731 29.2884145,44.2015546 C28.7606671,44.5684518 28.2497953,44.8613529 27.7251161,45.0895075 C27.4244228,45.2190006 27.1267978,45.3423274 26.8245703,45.4687374 C26.8199679,45.4718205 26.7125774,45.5149849 26.6926334,45.5273176 C26.626665,45.5566077 26.5622307,45.5858978 26.4977964,45.6151879 C26.3643254,45.6783929 26.2308544,45.7431395 26.1004517,45.8140524 C25.9424343,45.9019227 25.7859511,45.9913346 25.6279336,46.0961624 C25.5588969,46.1393268 25.4898602,46.1871159 25.4223576,46.2364466 C25.4192893,46.2379882 25.4146869,46.2410714 25.4131527,46.2441546 C25.4024137,46.2518625 25.3916746,46.2580288 25.3763331,46.2703615 C25.1139935,46.4738507 24.8562564,46.6942973 24.6000534,46.9193687 C24.0538962,47.4065095 23.5169438,47.9213989 22.9692524,48.3792496 C22.6148639,48.6752339 22.1975752,49.0328816 21.8401184,49.1207519 C21.4857298,49.2086223 21.0454289,49.1099608 21.1635584,48.5364913" id="Fill-1707" fill="#FFFFFF"></path>
                <path d="M16.5535924,55.0504581 C16.8297393,54.9332977 17.1043521,54.8038045 17.380499,54.6789362 C17.5185724,54.6157312 17.6551118,54.5525262 17.7931852,54.4862381 C17.8622219,54.4538648 17.9297245,54.4245747 17.9987613,54.3922014 C18.0187052,54.3829519 18.1828592,54.312039 18.1935983,54.3074142 C18.796519,54.059219 19.370291,53.9328091 19.9793484,53.6506991 C20.550052,53.3840049 21.1314947,52.9739433 21.69913,52.5500075 C21.9890843,52.332644 22.2775044,52.1044894 22.5659245,51.8717101 C22.868152,51.6296813 23.1795843,51.4169426 23.4879484,51.1826217 C24.0387081,50.7679353 24.5940703,50.3116262 25.124886,49.8090696 C25.6679749,49.2957218 26.1742443,48.6575057 26.7495504,48.2613184 C27.3110491,47.8712974 27.8541381,47.7849686 28.4110344,47.3502417 C28.5445054,47.2469555 28.5751884,47.0157178 28.4877419,46.9663871 C28.1134094,46.7428573 27.5519106,46.9124316 27.0302998,47.1837505 C26.488745,47.4704853 25.9625317,47.9530014 25.4639331,48.4771402 C24.9960174,48.9704474 24.4912822,49.4329229 23.9880812,49.7951953 C23.4480605,50.1805915 22.9034374,50.5135738 22.3588143,50.8480978 C21.8080546,51.1918712 21.2526925,51.5248535 20.7003986,51.7853814 C20.6467034,51.8100467 20.5945423,51.8331705 20.5423812,51.8578359 C20.5469837,51.8578359 20.5485178,51.8562943 20.5485178,51.8562943 C20.5423812,51.8578359 20.4242517,51.905625 20.4211834,51.9071666 C20.2877124,51.9580389 20.1573097,52.0073696 20.0253728,52.0551587 C19.7246795,52.1553617 19.4331911,52.2170251 19.1371002,52.306437 C18.5418502,52.4821777 17.9220538,52.7704541 17.308394,53.0772295 C17.0337812,53.2159721 16.7607026,53.3531732 16.4830215,53.4842079 C16.4139848,53.5181228 16.3464822,53.5474129 16.2774454,53.5797861 C16.2759113,53.5813277 16.1562476,53.6322 16.1439744,53.6383664 C16.0089693,53.6923218 15.8754983,53.7447357 15.7404931,53.7909833 C15.5333829,54.3829519 15.3247386,54.9780036 15.1130259,55.5715138 C15.5656,55.4944346 16.078006,55.2524057 16.5535924,55.0504581" id="Fill-1709" fill="#FFFFFF"></path>
                <path d="M12.9863878,61.2484001 C13.1290637,60.8799613 13.2732738,60.5099809 13.4144155,60.1400006 C13.7933505,59.9781341 14.1692171,59.8717648 14.5205374,59.8347668 C15.1173215,59.7746449 15.6665471,59.8393915 16.2111702,59.9210955 C16.6729492,59.9920084 17.1270575,60.030548 17.6532708,59.9010549 C18.1656767,59.7746449 18.6934242,59.5634478 19.2227058,59.3121695 C19.8041485,59.0362258 20.3595106,58.8034465 20.9256118,58.6446632 C21.2002246,58.5660424 21.4855764,58.5074622 21.7693941,58.3764275 C22.0424727,58.2515591 22.3094147,58.0819848 22.5809592,57.8846619 C23.687081,57.078413 24.8422957,55.8574778 25.9468833,55.7125688 C26.2122912,55.6771124 26.4592893,55.6879035 26.6955483,55.734151 C26.7814607,55.75265 26.8704414,55.7742322 26.9655587,55.7726906 C26.9870367,55.7634411 27.0177197,55.75265 27.0560735,55.7356926 C26.9609562,55.7742322 27.0882906,55.7125688 27.1113029,55.7002361 C27.1266444,55.6909866 27.14352,55.6801955 27.1573273,55.6678629 C27.1649981,55.6647797 27.1726688,55.6570718 27.1818737,55.6478222 C27.2094884,55.6246985 27.2371031,55.6015747 27.2616495,55.5753678 C27.2800593,55.5553272 27.3306863,55.4998301 27.3398911,55.4874974 C27.3843815,55.4366251 27.4273377,55.388836 27.4687597,55.3395053 C27.6528577,55.125225 27.8246824,54.9001536 27.9888364,54.6642911 C28.0087804,54.635001 28.0287243,54.6057109 28.0471341,54.5810455 C28.0517365,54.5702544 28.0594073,54.5625465 28.067078,54.5502138 C28.1069659,54.490092 28.148388,54.4253454 28.1882759,54.3636821 C28.2680516,54.2418968 28.3493616,54.1216532 28.4291373,54.0014096 C28.610167,53.7285491 28.7881283,53.4556886 28.9737604,53.1874528 C29.3373539,52.6540644 29.7531084,52.1037186 30.2072167,51.7106145 C30.6889397,51.2974698 31.1721968,51.0708568 31.646249,50.9398221 C31.7858566,50.9012824 31.9223959,50.8766171 32.0635377,50.8257448 C32.0880841,50.8164953 32.1049597,50.8103289 32.1156988,50.8087873 C32.1203012,50.8072458 32.1249036,50.8057042 32.1295061,50.8010794 C32.1893379,50.7748725 32.2507039,50.7424992 32.3105357,50.7085843 C32.4133238,50.6500041 32.5161118,50.5852575 32.6219681,50.5143446 C32.6373096,50.5004704 32.7308927,50.4326406 32.7385635,50.4249327 C32.8014636,50.3740604 32.8612954,50.3278129 32.9211273,50.275399 C33.4734211,49.8052156 33.8047974,49.4383184 34.3018619,48.8648488 C34.69307,48.4131645 35.0812099,47.9553138 35.4678156,47.4928383 C35.6457769,47.750283 35.8222041,48.0061861 36.0016996,48.2620891 C35.8758993,48.4316635 35.7516332,48.5981546 35.6227647,48.7661874 C34.5473258,50.1829039 33.3460867,51.801568 32.0067741,52.3997029 C31.7060808,52.536904 31.4237973,52.5954842 31.1277064,52.6987704 C31.092421,52.7126447 31.0556014,52.7249773 31.020316,52.7403932 C30.9988379,52.7465595 30.9742915,52.7588922 30.9620183,52.7650585 C30.8715035,52.8097645 30.7825228,52.8590952 30.692008,52.919217 C30.6889397,52.9223002 30.6843372,52.9253834 30.6797348,52.9284665 C30.6735982,52.9315497 30.6659274,52.9407992 30.6567225,52.9500487 C30.610698,52.9855052 30.569276,53.0240448 30.5263198,53.0656676 C30.4987051,53.090333 30.4695563,53.1180815 30.4450099,53.1412053 C30.4189293,53.1704954 30.3867122,53.2074934 30.3729048,53.2198261 C30.1734654,53.4556886 29.9816967,53.7085085 29.7945305,53.9613284 C29.0750143,54.9325269 28.3754421,56.1488373 27.4641573,56.733098 C27.2401714,56.8749238 27.0177197,56.9874595 26.8044729,57.0321655 C26.5359968,57.0876625 26.3319549,57.0213744 26.1171739,56.941212 C25.7566488,56.8070941 25.2718575,56.9643357 24.8054761,57.2464458 C24.2347724,57.5933024 23.6824786,58.0835263 23.1194457,58.4951295 C22.8310256,58.704785 22.538003,58.9098158 22.2434463,59.0531832 C21.9565603,59.195009 21.6834817,59.2782546 21.4027323,59.3676665 C20.8550409,59.5464904 20.3088837,59.6266528 19.7489191,59.8995133 C19.1950911,60.1662075 18.6397289,60.4375264 18.0935717,60.6302245 C17.5458803,60.8260058 17.0058597,60.9462494 16.5072611,60.9354583 C16.0485503,60.9246673 15.6266592,60.8121316 15.1786875,60.7705088 C14.4898544,60.7073038 13.7703382,60.8213811 12.9863878,61.2484001" id="Fill-1711" fill="#FFFFFF"></path>
                <path d="M9.63657221,69.6022485 C9.94340212,68.8530382 10.2486979,68.103828 10.5539937,67.3546177 C11.182995,67.0170107 11.8119963,66.7025273 12.4425318,66.3803361 C13.4075118,65.8885705 14.3678895,65.3382247 15.3328696,64.7046333 C16.2871106,64.0772083 17.2428858,63.4004526 18.1955926,62.7375711 C19.3799561,61.9143647 20.5673879,61.1173654 21.7563538,60.4806908 C22.3684795,60.1538748 22.9775369,59.8316836 23.5758552,59.648235 C24.1557637,59.4694111 24.7203308,59.3830824 25.2572831,59.3738329 C25.7436085,59.366125 26.2053875,59.4339547 26.702452,59.3969566 C26.7653521,59.3923319 26.9448476,59.366125 27.0553064,59.339918 C27.1811067,59.3090863 27.3115094,59.2720883 27.4403779,59.2242991 C27.6950468,59.1333456 27.9512498,59.0161852 28.2089869,58.8743594 C29.3826113,58.2191858 30.5132795,57.2495289 31.6454819,56.2644562 C32.0029388,55.9530561 32.1440805,56.4833612 31.7958286,56.8132604 C30.0070102,58.504379 28.0908574,60.5176888 26.220729,60.8152147 C25.7942355,60.884586 25.3861517,60.8984603 24.968863,60.9339168 L24.9673288,60.9339168 C24.9519873,60.9354583 24.8522676,60.9447079 24.8476652,60.9462494 C24.8062431,60.9508742 24.7617528,60.9554989 24.7203308,60.9616653 C24.6144744,60.973998 24.507084,60.9909554 24.4012277,61.0094544 C24.1849126,61.0510772 23.9701316,61.0988663 23.7492141,61.1666961 C23.5451722,61.2283595 23.338062,61.2992724 23.1309518,61.3871427 C23.1156103,61.3948506 23.0036174,61.4441814 22.9974808,61.4472645 C22.9529905,61.4673051 22.9085001,61.4858041 22.8640098,61.5089279 C22.7520169,61.5613418 22.6384898,61.6137557 22.5234286,61.6769607 C22.0585813,61.9251558 21.584529,62.1933916 21.1181476,62.4785848 C18.7248743,63.9477152 16.3607498,65.8639052 13.9644081,67.2837048 C12.7601007,67.9990002 11.5557933,68.5570539 10.3514859,69.2060612 C10.1136927,69.3355543 9.87283124,69.466589 9.63657221,69.6022485" id="Fill-1713" fill="#A1A1A1"></path>
                <path d="M35.0278215,55.5112378 C35.2456707,55.3308724 35.4681224,55.1582149 35.6844375,54.9655168 C35.9651868,54.7080721 36.2413338,54.3982136 36.5113441,54.1099372 C37.2139846,53.3607269 37.9104885,52.5899345 38.5977875,51.8037262 C38.7235878,51.9686758 38.849388,52.1367086 38.9767224,52.3031997 C38.3431187,53.1495298 37.6849685,53.9665698 36.9961354,54.7589444 C36.4852636,55.3462882 35.9928015,55.8935509 35.443576,56.3822333 C35.2257268,56.5780146 35.0048092,56.7737958 34.7946307,56.9942425 C34.7792892,57.0127415 34.6933769,57.1052366 34.6811037,57.1206524 C34.6320109,57.1776911 34.5859864,57.2347297 34.541496,57.2948515 C34.3880811,57.4952576 34.2039831,57.6077933 34.0367608,57.6694566 C33.8219799,57.7480775 33.7268626,57.5600041 33.7023162,57.3549733 C33.6210063,56.6689681 34.5798498,55.8827598 35.0278215,55.5112378" id="Fill-1715" fill="#A1A1A1"></path>
                <path d="M86.6930696,91.0850044 C85.640643,90.4745368 83.937737,90.4745368 82.8868445,91.0850044 C81.8344179,91.695472 81.8344179,92.6820863 82.8868445,93.2925539 C83.9362028,93.90148 85.640643,93.90148 86.6930696,93.2925539 C87.7454962,92.6820863 87.7454962,91.695472 86.6930696,91.0850044" id="Fill-1717" fill="#3DCC79"></path>
                <path d="M92.6992652,87.5984019 C91.6468386,86.9879343 89.9439326,86.9879343 88.8930401,87.5984019 C87.8406135,88.2088695 87.8406135,89.198567 88.8930401,89.8090346 C89.9439326,90.4179606 91.6468386,90.4179606 92.6992652,89.8090346 C93.7516918,89.198567 93.7516918,88.2088695 92.6992652,87.5984019" id="Fill-1719" fill="#3DCC79"></path>
                <path d="M98.7069949,84.113341 C97.6530341,83.5028734 95.9501281,83.5028734 94.8992357,84.113341 C93.8483432,84.7253502 93.8483432,85.7135061 94.8992357,86.3239737 C95.9501281,86.9328997 97.6530341,86.9328997 98.7054607,86.3239737 C99.7578873,85.7135061 99.7578873,84.7238086 98.7069949,84.113341" id="Fill-1721" fill="#FF695B"></path>
                <path d="M60.5645081,64.2759186 L60.5675764,65.8467936 C60.5691105,66.2799789 60.8513941,66.7147059 61.4205635,67.0461466 C62.5604367,67.7121113 64.4259626,67.7121113 65.5750406,67.0461466 C66.1518808,66.7100811 66.4387668,66.2691878 66.4387668,65.8282946 L66.4341643,64.2605027 C66.4372326,64.6998544 66.1488125,65.1422893 65.568904,65.4768132 C64.419826,66.1443195 62.5573684,66.1443195 61.4159611,65.4768132 C60.8483258,65.146914 60.5645081,64.7106455 60.5645081,64.2759186" id="Fill-1724" fill="#D1DCE6"></path>
                <path d="M61.4274672,63.0596081 C60.2814575,63.7271144 60.2753209,64.8123901 61.415194,65.4768132 C62.5566013,66.1443195 64.4190589,66.1443195 65.5681369,65.4768132 C66.7172149,64.8123901 66.7233515,63.7271144 65.5819443,63.0596081 C64.4420711,62.3936435 62.5780794,62.3936435 61.4274672,63.0596081" id="Fill-1727" fill="#F8FAF9"></path>
                <path d="M54.0368551,68.0651342 L54.0414575,69.632926 C54.0429917,70.0661114 54.3252752,70.4992967 54.8929106,70.832279 C56.0343178,71.4997853 57.8983096,71.4997853 59.0489217,70.832279 C59.6272961,70.494672 59.9172504,70.0553203 59.9141821,69.614427 L59.9095796,68.0466352 C59.9126479,68.4844453 59.6242278,68.9268801 59.0427851,69.2644872 C57.8937071,69.9304519 56.0312495,69.9304519 54.8898423,69.2644872 C54.3237411,68.9330465 54.0383892,68.4983196 54.0368551,68.0651342" id="Fill-1729" fill="#D1DCE6"></path>
                <path d="M54.9013484,66.8472822 C53.7522703,67.5132468 53.7476679,68.5985226 54.8890752,69.2644872 C56.0304825,69.9304519 57.89294,69.9304519 59.0420181,69.2644872 C60.1987668,68.5938978 60.1972327,67.5132468 59.0558254,66.8472822 C57.9144181,66.1797759 56.0580971,66.1751512 54.9013484,66.8472822" id="Fill-1732" fill="#F8FAF9"></path>
                <path d="M47.5167194,71.8454086 L47.5213219,73.414742 C47.5213219,73.8494689 47.8051396,74.2826543 48.374309,74.6156366 C49.5141822,75.2816013 51.3781739,75.2816013 52.5287861,74.6156366 C53.1056263,74.2795711 53.3925123,73.8386779 53.3925123,73.3977846 L53.3879098,71.8299928 C53.389444,72.2693445 53.1010239,72.7117793 52.5226495,73.0463032 C51.3735714,73.7122679 49.5111139,73.7122679 48.3681724,73.0447616 C47.8005371,72.7148625 47.5167194,72.2816771 47.5167194,71.8454086" id="Fill-1734" fill="#D1DCE6"></path>
                <path d="M48.3812127,70.6304856 C47.2336688,71.2949087 47.2275322,72.381726 48.3674054,73.0446075 C49.5103468,73.7121137 51.3728044,73.7121137 52.5218824,73.0461491 C53.6709604,72.381726 53.6786312,71.2949087 52.5356897,70.6304856 C51.3958166,69.9629793 49.5302907,69.9629793 48.3812127,70.6304856" id="Fill-1737" fill="#F8FAF9"></path>
                <path d="M40.9906006,75.6330826 L40.995203,77.2008744 C40.9967372,77.6356014 41.2774866,78.0687867 41.846656,78.4002275 C42.9880633,79.0677337 44.852055,79.0677337 46.0011331,78.4002275 C46.5779733,78.0657036 46.8679276,77.6248103 46.8648593,77.183917 L46.8602568,75.6161252 C46.861791,76.0570185 46.574905,76.4994533 45.9965306,76.8324357 C44.8459184,77.5014835 42.9834609,77.5014835 41.8420536,76.8324357 C41.2759524,76.5009949 40.9906006,76.0678096 40.9906006,75.6330826" id="Fill-1739" fill="#D1DCE6"></path>
                <path d="M41.8550939,74.4152306 C40.70755,75.0811953 40.7014134,76.1680126 41.8412865,76.8324357 C42.9826938,77.5014835 44.8451514,77.5014835 45.9957636,76.8324357 C47.1448416,76.1680126 47.1509782,75.0811953 46.0095709,74.4152306 C44.8696978,73.7492659 43.0041719,73.7492659 41.8550939,74.4152306" id="Fill-1742" fill="#F8FAF9"></path>
                <path d="M34.4660159,79.4147445 L34.4706183,80.9840779 C34.4721525,81.4188048 34.7575043,81.8519902 35.3266738,82.1849725 C36.4665469,82.8509371 38.3259362,82.8524787 39.4811508,82.1834309 C40.0579911,81.848907 40.344877,81.4095553 40.3418087,80.9717452 L40.3387404,79.4024118 C40.3387404,79.8417635 40.0533886,80.2811152 39.4765484,80.6140975 C38.3213338,81.2862285 36.4634786,81.2816038 35.3220713,80.6171807 C34.7529019,80.2841983 34.46755,79.851013 34.4660159,79.4147445" id="Fill-1744" fill="#D1DCE6"></path>
                <path d="M35.3349582,78.1968924 C34.1797436,78.8690234 34.1797436,79.951216 35.3211509,80.6171807 C36.4625581,81.2816038 38.3204133,81.2862285 39.4756279,80.6140975 C40.6247059,79.9496744 40.6247059,78.8690234 39.4832986,78.2015172 C38.3418914,77.5340109 36.4840362,77.5309278 35.3349582,78.1968924" id="Fill-1747" fill="#F8FAF9"></path>
                <path d="M27.9429653,83.2025727 L27.9475678,84.7703645 C27.9491019,85.2050914 28.2313855,85.6398183 28.800555,85.9697175 C29.9419622,86.6372237 31.805954,86.6372237 32.9519637,85.9697175 C33.5318722,85.6351936 33.8202923,85.1927587 33.8187582,84.7518654 L33.8141557,83.1856152 C33.817224,83.6249669 33.5272698,84.0689434 32.9504295,84.4019257 C31.7998174,85.0694319 29.9373598,85.0694319 28.7944184,84.4019257 C28.2283172,84.0704849 27.9444995,83.6372996 27.9429653,83.2025727" id="Fill-1749" fill="#D1DCE6"></path>
                <path d="M28.8073052,81.9845665 C27.6582272,82.6520727 27.6536247,83.7358069 28.7934979,84.4017715 C29.9364393,85.0692778 31.7988969,85.0692778 32.949509,84.4017715 C34.0985871,83.7358069 34.1047237,82.6520727 32.9633164,81.9845665 C31.8219091,81.3170602 29.9579174,81.3170602 28.8073052,81.9845665" id="Fill-1752" fill="#F8FAF9"></path>
                <path d="M21.4168465,86.9887051 L21.4214489,88.5564969 C21.4229831,88.9927654 21.7052666,89.4259508 22.2744361,89.7558499 C23.4143092,90.4233562 25.278301,90.4233562 26.4289131,89.7558499 C27.0072875,89.4197844 27.2957076,88.9788912 27.2941735,88.5410811 L27.2911052,86.9717477 C27.2911052,87.4110993 27.0042192,87.8535342 26.4227765,88.1880581 C25.2736985,88.8555644 23.4097068,88.8555644 22.2682995,88.1880581 C21.7021983,87.8566174 21.4183806,87.423432 21.4168465,86.9887051" id="Fill-1754" fill="#D1DCE6"></path>
                <path d="M22.2811864,85.770853 C21.1336425,86.4383593 21.1259717,87.5220935 22.267379,88.1880581 C23.4087863,88.8555644 25.272778,88.8555644 26.421856,88.1880581 C27.5770707,87.5190103 27.5770707,86.4383593 26.4356634,85.770853 C25.2957903,85.1033468 23.436401,85.1002636 22.2811864,85.770853" id="Fill-1757" fill="#F8FAF9"></path>
                <path d="M14.8967108,90.7719085 L14.9013133,92.3397003 C14.9028474,92.7728857 15.185131,93.2091542 15.7543004,93.5390534 C16.8941736,94.2065596 18.7596994,94.2065596 19.9072433,93.5390534 C20.4856177,93.2029879 20.7725037,92.7620946 20.7725037,92.3212013 L20.7679012,90.7534095 C20.7694354,91.1943028 20.4794811,91.6367376 19.9026409,91.9712615 C18.7535628,92.6387678 16.8895711,92.6387678 15.7481638,91.9712615 C15.1820627,91.6398208 14.898245,91.2050939 14.8967108,90.7719085" id="Fill-1759" fill="#D1DCE6"></path>
                <path d="M15.7610507,89.5540565 C14.6119727,90.2215627 14.6073702,91.3052969 15.7472434,91.9712615 C16.8886506,92.6387678 18.7526424,92.6387678 19.9017204,91.9712615 C21.0507984,91.3052969 21.056935,90.2215627 19.9155277,89.5540565 C18.7756546,88.8865502 16.9116629,88.8865502 15.7610507,89.5540565" id="Fill-1762" fill="#F8FAF9"></path>
                <path d="M67.0757457,68.0817833 L67.078814,69.6511167 C67.0803481,70.0843021 67.3641658,70.5174874 67.9348694,70.8504697 C69.0762767,71.517976 70.9341318,71.5133512 72.0832099,70.8473866 C72.6615843,70.5097795 72.9515385,70.0673446 72.9515385,69.6279929 L72.9469361,68.0586595 C72.9469361,68.4995528 72.6569818,68.9435293 72.0770733,69.2780532 C70.9279952,69.9455594 69.0716743,69.9486426 67.930267,69.2811363 C67.3610975,68.9496956 67.0772798,68.5149687 67.0757457,68.0817833" id="Fill-1764" fill="#D1DCE6"></path>
                <path d="M67.9431539,66.8653187 C66.79561,67.5312834 66.7818026,68.6119344 67.9293465,69.2809822 C69.0707538,69.9484884 70.9270748,69.9454053 72.0761528,69.277899 C73.226765,68.6119344 73.2390382,67.5312834 72.0976309,66.8653187 C70.950087,66.1931877 69.0906977,66.1978125 67.9431539,66.8653187" id="Fill-1767" fill="#F8FAF9"></path>
                <path d="M60.5496268,71.8694573 L60.5526951,73.4372492 C60.5557634,73.8704345 60.838047,74.3036198 61.4087506,74.6366022 C62.5501579,75.3041084 64.4064789,75.3010253 65.557091,74.633519 C66.1385337,74.2959119 66.428488,73.8550187 66.4269538,73.4141254 L66.4223514,71.844792 C66.4238855,72.2872268 66.1339313,72.7281201 65.5509544,73.062644 C64.4034106,73.7316919 62.5455554,73.7363166 61.402614,73.0688104 C60.8334445,72.735828 60.5496268,72.3026427 60.5496268,71.8694573" id="Fill-1769" fill="#D1DCE6"></path>
                <path d="M61.417035,70.6500637 C60.267957,71.3191115 60.2556838,72.3997625 61.4016935,73.0688104 C62.5446349,73.7363166 64.4024901,73.7316919 65.5500339,73.062644 C66.7067827,72.3951378 66.7129193,71.3191115 65.5699779,70.6516053 C64.4239682,69.9810159 62.5722496,69.9810159 61.417035,70.6500637" id="Fill-1772" fill="#F8FAF9"></path>
                <path d="M54.0294912,75.6495776 L54.0325595,77.218911 C54.0340936,77.6520963 54.3179113,78.0868233 54.8886149,78.4198056 C56.0300222,79.0857703 57.8878773,79.0811455 59.0354212,78.4167224 C59.6168639,78.0775738 59.905284,77.6382221 59.9037499,77.1973288 L59.8991474,75.6279954 C59.9006816,76.0688887 59.6107273,76.5113235 59.0308188,76.847389 C57.8832749,77.5133537 56.0254198,77.5164369 54.8840125,76.8489306 C54.314843,76.5174899 54.0310253,76.0827629 54.0294912,75.6495776" id="Fill-1774" fill="#D1DCE6"></path>
                <path d="M54.8953652,74.4348087 C53.7478213,75.0992318 53.7355481,76.1798828 54.883092,76.8489306 C56.0244993,77.5164369 57.8823544,77.5133537 59.0298983,76.847389 C60.1789763,76.1798828 60.1927836,75.0992318 59.0498422,74.4348087 C57.9038325,73.7626777 56.0444432,73.7657609 54.8953652,74.4348087" id="Fill-1777" fill="#F8FAF9"></path>
                <path d="M47.5018382,79.4358642 L47.5064406,81.0051976 C47.5064406,81.4383829 47.7917924,81.8746515 48.3624961,82.2045506 C49.5039034,82.8720569 51.3602243,82.8689737 52.5108365,82.2014674 C53.0876768,81.8654019 53.3791652,81.4245087 53.377631,80.9836154 L53.3730286,79.414282 C53.3730286,79.8551753 53.0861426,80.2976101 52.5046999,80.632134 C51.3556219,81.2996403 49.4977668,81.3027235 48.3563595,80.6367588 C47.7887242,80.3037765 47.5033723,79.8705911 47.5018382,79.4358642" id="Fill-1779" fill="#D1DCE6"></path>
                <path d="M48.3692463,78.2193996 C47.2217025,78.8853642 47.2078951,79.9690984 48.355439,80.6366046 C49.4968463,81.3025693 51.3547014,81.2994861 52.5037794,80.6319799 C53.6528575,79.9690984 53.6651307,78.8853642 52.5237234,78.2209412 C51.3761795,77.5503517 49.5183244,77.5518933 48.3692463,78.2193996" id="Fill-1782" fill="#F8FAF9"></path>
                <path d="M40.9786342,83.2190676 L40.9832367,84.788401 C40.9847708,85.2215864 41.2685885,85.6547717 41.8408263,85.987754 C42.9822336,86.6552603 44.8324179,86.6552603 45.9891667,85.9846709 C46.5675411,85.650147 46.8544271,85.2092537 46.8544271,84.769902 L46.8498246,83.2021102 C46.8513588,83.6399203 46.5629386,84.0823551 45.9845643,84.4153375 C44.8293496,85.0859269 42.9776311,85.0859269 41.8362238,84.4184206 C41.2655202,84.0869799 40.9801684,83.6537945 40.9786342,83.2190676" id="Fill-1784" fill="#D1DCE6"></path>
                <path d="M41.8491107,82.0012156 C40.6938961,82.6733466 40.6877595,83.7509144 41.8353033,84.4184206 C42.9767106,85.0859269 44.8284291,85.0859269 45.9836438,84.4153375 C47.1327218,83.7493728 47.1388584,82.6733466 45.9974511,82.0058403 C44.8499072,81.3352509 42.9981887,81.3352509 41.8491107,82.0012156" id="Fill-1787" fill="#F8FAF9"></path>
                <path d="M34.4555837,87.0067416 L34.4601861,88.5745334 C34.4617203,89.0077188 34.7440038,89.4409041 35.3147074,89.7738865 C36.4561147,90.4413927 38.3124357,90.4383096 39.4630479,89.7708033 C40.0429564,89.4347378 40.3329107,88.9923029 40.3313765,88.5514097 L40.3252399,86.9820763 C40.3267741,87.4245111 40.0383539,87.866946 39.4569113,88.2014699 C38.3093674,88.8689762 36.4515123,88.8736009 35.310105,88.2060947 C34.7409355,87.8731123 34.4571178,87.439927 34.4555837,87.0067416" id="Fill-1789" fill="#D1DCE6"></path>
                <path d="M35.3229918,85.7888896 C34.1739138,86.4563958 34.1631748,87.5355052 35.3091845,88.2060947 C36.4505918,88.8736009 38.3084469,88.8689762 39.4559908,88.2014699 C40.6050688,87.5355052 40.6188761,86.4563958 39.4759347,85.7888896 C38.329925,85.1183002 36.4720699,85.1213833 35.3229918,85.7888896" id="Fill-1792" fill="#F8FAF9"></path>
                <path d="M27.9294648,90.7930282 L27.9325331,92.36082 C27.9340673,92.795547 28.2178849,93.2287323 28.7885886,93.5601731 C29.9284617,94.2276793 31.7863168,94.2245961 32.936929,93.5570899 C33.5183717,93.2194828 33.8067918,92.7785895 33.8052577,92.3392379 L33.8006552,90.771446 C33.8037235,91.2107977 33.5122351,91.651691 32.9307924,91.9892981 C31.7817144,92.6552627 29.9253934,92.6598875 28.782452,91.9923813 C28.2148166,91.6593989 27.9294648,91.2262136 27.9294648,90.7930282" id="Fill-1794" fill="#D1DCE6"></path>
                <path d="M28.796873,89.575022 C27.647795,90.2425283 27.6355218,91.3231793 28.7815315,91.9922271 C29.9244729,92.6597333 31.7807939,92.6551086 32.9298719,91.9891439 C34.0850866,91.3185545 34.0912232,90.2425283 32.9498159,89.575022 C31.8038061,88.9044326 29.9520876,88.9044326 28.796873,89.575022" id="Fill-1797" fill="#F8FAF9"></path>
                <path d="M21.407795,94.5762317 L21.4123975,96.1440235 C21.4139316,96.5772088 21.6977493,97.0103942 22.2684529,97.3433765 C23.4083261,98.0108827 25.2661812,98.0077996 26.4152592,97.3402933 C26.9951677,97.0042278 27.285122,96.561793 27.2835879,96.1208997 L27.2789854,94.5515663 C27.2805196,94.9940012 26.9905653,95.436436 26.4106568,95.7709599 C25.2615787,96.4384662 23.4052578,96.4430909 22.2623163,95.7755847 C21.6931468,95.4426023 21.4093292,95.009417 21.407795,94.5762317" id="Fill-1799" fill="#D1DCE6"></path>
                <path d="M22.2752032,93.3582254 C21.1276593,94.0257317 21.1153861,95.1063827 22.2613958,95.7754305 C23.4043373,96.4429368 25.2606582,96.438312 26.4097363,95.7708058 C27.5588143,95.1063827 27.5710875,94.0257317 26.4296802,93.3582254 C25.2821363,92.687636 23.4258154,92.6907192 22.2752032,93.3582254" id="Fill-1802" fill="#F8FAF9"></path>
                <path d="M73.4519781,71.8031692 L73.4581147,73.3740442 C73.4581147,73.8072295 73.7419324,74.2404149 74.3095677,74.5733972 C75.450975,75.2393619 77.3149667,75.2393619 78.4625106,74.5733972 C79.0424191,74.2357901 79.3308393,73.7964384 79.3293051,73.3555452 L79.3231685,71.7862118 C79.3247027,72.227105 79.0378167,72.6695399 78.4594423,73.0040638 C77.3103643,73.6715701 75.4463726,73.6715701 74.3049653,73.0040638 C73.7388641,72.6710815 73.4535123,72.2378961 73.4519781,71.8031692" id="Fill-1804" fill="#D1DCE6"></path>
                <path d="M74.3180055,70.5868587 C73.1689275,71.254365 73.1627909,72.3380991 74.3041982,73.0040638 C75.4456055,73.6715701 77.3095972,73.6715701 78.4586752,73.0040638 C79.6062191,72.3380991 79.6138899,71.254365 78.4740167,70.5868587 C77.3310753,69.9193525 75.4655494,69.9193525 74.3180055,70.5868587" id="Fill-1807" fill="#F8FAF9"></path>
                <path d="M66.9258593,75.5894558 L66.9304617,77.1603308 C66.9319959,77.5935161 67.2142794,78.0267015 67.7819147,78.3596838 C68.9248562,79.0256485 70.7873137,79.0256485 71.9363918,78.3581422 C72.5178344,78.0220767 72.8047204,77.582725 72.8047204,77.1418317 L72.800118,75.5724984 C72.800118,76.01185 72.513232,76.4542849 71.9317893,76.7903504 C70.7842454,77.4578566 68.9187196,77.4578566 67.7773123,76.7903504 C67.2127452,76.4589097 66.9273934,76.0241827 66.9258593,75.5894558" id="Fill-1809" fill="#D1DCE6"></path>
                <path d="M67.7918867,74.3714496 C66.6428087,75.0404974 66.6366721,76.1257732 67.7765452,76.7901962 C68.9179525,77.4577025 70.7834784,77.4577025 71.9310222,76.7901962 C73.0862369,76.1211484 73.0862369,75.0404974 71.9463637,74.3729912 C70.8049565,73.7070265 68.9471013,73.7024017 67.7918867,74.3714496" id="Fill-1812" fill="#F8FAF9"></path>
                <path d="M60.4041895,79.3726592 L60.4103261,80.9419926 C60.4118602,81.3767195 60.6956779,81.8099049 61.2617791,82.1428872 C62.4047205,82.8073103 64.2671781,82.8073103 65.4162561,82.1428872 C65.9946305,81.8068217 66.2830506,81.3659284 66.2830506,80.9250352 L66.276914,79.3557018 C66.2784482,79.796595 65.990028,80.2390299 65.4116536,80.5720122 C64.2641098,81.2395185 62.3985839,81.2395185 61.2587108,80.5720122 C60.6910754,80.2405715 60.4057236,79.8073861 60.4041895,79.3726592" id="Fill-1814" fill="#D1DCE6"></path>
                <path d="M61.271751,78.1561946 C60.122673,78.8237008 60.1165364,79.907435 61.2579437,80.5718581 C62.3978168,81.2393643 64.2633427,81.2393643 65.4108866,80.5718581 C66.5599646,79.907435 66.5661012,78.8237008 65.4262281,78.154653 C64.2832866,77.4902299 62.4192949,77.4902299 61.271751,78.1561946" id="Fill-1817" fill="#F8FAF9"></path>
                <path d="M53.8780706,83.1587916 L53.8842072,84.728125 C53.8842072,85.162852 54.1664907,85.5960373 54.7356602,85.9274781 C55.8786017,86.5949843 57.7410592,86.5949843 58.8901373,85.9274781 C59.4685116,85.5929542 59.7569318,85.1520609 59.7553976,84.7111676 L59.7507952,83.1433758 C59.7523293,83.5842691 59.4639092,84.0251623 58.8855348,84.3581447 C57.7379909,85.0256509 55.8724651,85.0256509 54.7310578,84.3581447 C54.1649566,84.0282455 53.8796048,83.5950602 53.8780706,83.1587916" id="Fill-1819" fill="#D1DCE6"></path>
                <path d="M54.7456322,81.9409396 C53.5965542,82.6084458 53.5904176,83.6937216 54.7302907,84.3581447 C55.871698,85.0256509 57.7372239,85.0256509 58.8847677,84.3581447 C60.0338458,83.6937216 60.0399824,82.6084458 58.8985751,81.9409396 C57.7587019,81.2749749 55.8931761,81.2749749 54.7456322,81.9409396" id="Fill-1822" fill="#F8FAF9"></path>
                <path d="M47.3565542,86.9419951 L47.3596225,88.5113285 C47.3626908,88.9460554 47.6465085,89.3792407 48.2141438,89.7106815 C49.3570853,90.3781877 51.2134062,90.3797293 52.370155,89.7106815 C52.9454611,89.3761576 53.2323471,88.9368059 53.2323471,88.4974542 L53.2262105,86.9296624 C53.2292788,87.3690141 52.9408586,87.8083658 52.3640184,88.1413481 C51.2103379,88.8119375 49.3524828,88.8088543 48.2110755,88.1413481 C47.6434402,87.8114489 47.3580884,87.376722 47.3565542,86.9419951" id="Fill-1824" fill="#D1DCE6"></path>
                <path d="M48.2239624,85.724143 C47.0702819,86.3947324 47.0702819,87.4784666 48.210155,88.1413481 C49.3515623,88.8088543 51.2094174,88.8119375 52.3630979,88.1413481 C53.5137101,87.4753834 53.5137101,86.3947324 52.3723028,85.7287678 C51.2308955,85.0612615 49.3730404,85.0566368 48.2239624,85.724143" id="Fill-1827" fill="#F8FAF9"></path>
                <path d="M40.8318161,90.7282817 L40.8364186,92.2976151 C40.8379527,92.7308004 41.1217704,93.1655273 41.6894057,93.4969681 C42.830813,94.1644743 44.6948047,94.1644743 45.8438827,93.4969681 C46.420723,93.1609026 46.7091431,92.7200093 46.7091431,92.279116 L46.7045407,90.7113242 C46.7045407,91.1506759 46.4161205,91.5931108 45.8392803,91.9276347 C44.6902023,92.5951409 42.8262105,92.5951409 41.6863374,91.9276347 C41.1187021,91.5977355 40.8333503,91.1630086 40.8318161,90.7282817" id="Fill-1829" fill="#D1DCE6"></path>
                <path d="M41.6963094,89.5104296 C40.5502997,90.1779359 40.5426289,91.2632116 41.6855703,91.9276347 C42.8254435,92.5951409 44.6894352,92.5951409 45.8385132,91.9276347 C46.9860571,91.2632116 46.9921937,90.1779359 45.8507864,89.5104296 C44.7109133,88.844465 42.8453874,88.844465 41.6963094,89.5104296" id="Fill-1832" fill="#F8FAF9"></path>
                <path d="M34.3056973,94.5159557 L34.3102997,96.0837475 C34.3118339,96.5184744 34.5941174,96.9532014 35.1617527,97.2831005 C36.3046941,97.9506068 38.1671517,97.9506068 39.3162297,97.2831005 C39.8976724,96.947035 40.1860926,96.5061418 40.1845584,96.0683316 L40.1784218,94.4989983 C40.179956,94.9383499 39.8915358,95.3792432 39.3131614,95.7153087 C38.1640834,96.3812734 36.2985575,96.3812734 35.1571503,95.7153087 C34.5910491,95.383868 34.3056973,94.949141 34.3056973,94.5159557" id="Fill-1834" fill="#D1DCE6"></path>
                <path d="M35.1717247,93.2981036 C34.0226467,93.9640683 34.0165101,95.049344 35.1563832,95.7153087 C36.2977905,96.3812734 38.1633163,96.3812734 39.3123944,95.7153087 C40.4660748,95.0447193 40.4660748,93.9640683 39.3262017,93.2981036 C38.1847944,92.6305974 36.3254052,92.6259726 35.1717247,93.2981036" id="Fill-1837" fill="#F8FAF9"></path>
                <path d="M27.7855616,98.2962301 L27.790164,99.8655635 C27.790164,100.30029 28.0755159,100.735017 28.6416171,101.066458 C29.7830243,101.732423 31.6470161,101.732423 32.7960941,101.066458 C33.3760026,100.730393 33.6628886,100.289499 33.6598203,99.8486061 L33.6582861,98.2808143 C33.6582861,98.7201659 33.3714002,99.1626008 32.7899575,99.4986663 C31.6439478,100.164631 29.7784219,100.164631 28.6370146,99.4986663 C28.0709134,99.1672255 27.7855616,98.7324986 27.7855616,98.2962301" id="Fill-1839" fill="#D1DCE6"></path>
                <path d="M28.651589,97.0813071 C27.502511,97.7472717 27.4963744,98.8325475 28.6362475,99.4985121 C29.7776548,100.164477 31.6431807,100.164477 32.7891904,99.4985121 C33.9398026,98.8325475 33.9459392,97.7472717 32.8045319,97.0813071 C31.6646588,96.4138008 29.7991329,96.4138008 28.651589,97.0813071" id="Fill-1842" fill="#F8FAF9"></path>
                <path d="M69.2540847,85.2123368 L69.257153,86.7801287 C69.2617554,87.6480409 69.8293907,88.5174948 70.9661956,89.1803763 C73.2566809,90.5169304 76.9723911,90.5169304 79.2751496,89.1803763 C80.4365009,88.5067037 81.0179435,87.621834 81.0133411,86.741589 L81.0087386,85.1737972 C81.0133411,86.0555838 80.4303643,86.9389119 79.2705472,87.6125845 C76.9662545,88.9491386 73.2505443,88.9491386 70.9615931,87.6125845 C69.8247883,86.949703 69.257153,86.0787075 69.2540847,85.2123368" id="Fill-1844" fill="#D1DCE6"></path>
                <path d="M70.988901,82.7764786 C68.6861425,84.1130327 68.6738693,86.2758762 70.9612863,87.6124303 C73.2517716,88.9489844 76.9659477,88.9489844 79.2702404,87.6124303 C81.574533,86.2758762 81.5929428,84.1099495 79.3039916,82.7733954 C77.0150405,81.4368413 73.2931936,81.4399245 70.988901,82.7764786" id="Fill-1847" fill="#F8FAF9"></path>
                <path d="M57.7643783,91.8769165 L57.7705149,93.4462499 C57.772049,94.3141622 58.3396844,95.1820745 59.4780234,95.844956 C61.7654404,97.1815101 65.4826848,97.1815101 67.7869774,95.844956 C68.9452603,95.1743666 69.5251689,94.2910385 69.5236347,93.4107935 L69.5190323,91.8445433 C69.5205664,92.7232466 68.942192,93.6050332 67.7808408,94.2771642 C65.4780823,95.6137183 61.7623721,95.6137183 59.4734209,94.2771642 C58.3350819,93.6142827 57.7689807,92.7463704 57.7643783,91.8769165" id="Fill-1849" fill="#D1DCE6"></path>
                <path d="M59.5022629,89.4410583 C57.1979703,90.7776124 57.1841629,92.940456 59.4731141,94.27701 C61.7635994,95.6135641 65.4793096,95.6135641 67.780534,94.27701 C70.0863608,92.9419975 70.098634,90.7776124 67.8081487,89.4410583 C65.5191975,88.1045042 61.8050214,88.1045042 59.5022629,89.4410583" id="Fill-1852" fill="#F8FAF9"></path>
                <path d="M46.2748254,98.5476626 L46.2778937,100.115454 C46.2794278,100.984908 46.8485973,101.852821 47.983868,102.51416 C50.271285,103.849173 53.994666,103.847631 56.2974245,102.511077 C57.4572416,101.838946 58.0371501,100.955618 58.0340818,100.075373 L58.0310135,98.509123 C58.0325476,99.3878263 57.4526391,100.269613 56.292822,100.944827 C53.9900635,102.278298 50.2682167,102.282923 47.9777314,100.94791 C46.8424607,100.283487 46.2763595,99.4155749 46.2748254,98.5476626" id="Fill-1854" fill="#D1DCE6"></path>
                <path d="M48.01271,96.1057922 C45.7084173,97.4423462 45.6900075,99.608273 47.9789587,100.94791 C50.2679099,102.282923 53.9897567,102.278298 56.2925152,100.944827 C58.598342,99.6067314 58.6090811,97.4423462 56.3201299,96.1057922 C54.0311787,94.7692381 50.3170026,94.7692381 48.01271,96.1057922" id="Fill-1857" fill="#F8FAF9"></path>
            </g>
        </g>
    </g>
</svg>