<?xml version="1.0" encoding="UTF-8"?>
<svg width="141px" height="147px" viewBox="0 0 141 147" version="1.1" xmlns="http://www.w3.org/2000/svg" xmlns:xlink="http://www.w3.org/1999/xlink">
    <!-- Generator: Sketch 52.4 (67378) - http://www.bohemiancoding.com/sketch -->
    <title>Group 10</title>
    <desc>Created with Sketch.</desc>
    <g id="Desktop-Website" stroke="none" stroke-width="1" fill="none" fill-rule="evenodd">
        <g id="Business-Solutions" transform="translate(-1000.000000, -271.000000)">
            <g id="Group-10" transform="translate(1000.000000, 271.000000)">
                <path d="M56.6864632,7.81369781 C55.4012994,7.07040118 54.3408952,7.67733073 54.3312901,9.15432066 L54.1968186,57.3130276 C54.1948976,58.7919382 55.2514597,60.6108062 56.5366235,61.3502615 L132.459258,105.179794 C133.748263,105.92309 134.808668,105.327685 134.81251,103.852616 L134.948902,55.6881466 C134.950823,54.209236 133.900024,52.3826854 132.607176,51.6374681 L56.6864632,7.81369781 Z" id="Fill-2571" fill="#4D39B9"></path>
                <path d="M0.15693101,92.902531 C0.15693101,92.9620715 0.162694077,93.0158501 0.176141231,93.07347 C0.178062253,93.1234072 0.181904297,93.1810271 0.189588386,93.2348057 C0.195351452,93.2847429 0.21264065,93.3346802 0.220324739,93.3846174 C0.233771893,93.4364753 0.251061092,93.4940952 0.270271312,93.5459531 C0.285639489,93.586287 0.30484971,93.6323829 0.325980952,93.6765582 C0.349033217,93.7360988 0.372085482,93.7937187 0.402821835,93.8494179 C0.422032056,93.8935931 0.450847387,93.9339271 0.475820674,93.9723403 C0.514241115,94.0376429 0.554582578,94.0991041 0.596845064,94.1644066 C0.629502439,94.2008992 0.662159814,94.2373918 0.690975145,94.2758051 C0.754368873,94.3564729 0.821604646,94.4352201 0.900366551,94.5120467 C0.938786992,94.5446979 0.971444367,94.5831112 1.01178583,94.6215245 C1.0617324,94.663779 1.10591591,94.704113 1.15778351,94.7482882 C1.21157213,94.7905428 1.26728177,94.8385594 1.32875447,94.8769726 C1.38254309,94.9192272 1.44017375,94.9614818 1.50164646,94.9998951 C1.58617143,95.057515 1.67838049,95.1189762 1.77443159,95.1804374 L31.5925361,112.385738 L31.5982992,110.589918 L38.1835628,106.762036 L28.6725826,101.24013 L28.6725826,100.533326 L28.0540135,100.888648 L15.127456,93.3884587 L15.1428242,88.8787417 L21.1882806,85.3831349 L22.5829426,86.1859721 L22.5867847,84.578377 L24.6115419,83.4086932 L28.6322411,81.0827702 L35.6401296,77.0320917 L37.3901807,78.0481224 L37.3959438,76.0160609 L43.4414002,72.5242953 L44.8014839,73.3060052 L44.8053259,71.7368234 L50.8488613,68.2450579 L57.1152353,71.8808732 L57.1075512,73.2656713 L58.30819,72.5761532 L64.570722,76.2138892 L64.5688009,77.5910046 L65.7694397,76.8995659 L72.0358137,80.5353812 L72.0319717,81.9220999 L73.2326105,81.2268199 L79.4913003,84.8664765 L79.4855373,86.2551159 L80.6919391,85.5598359 L86.9563921,89.1918098 L86.9525501,90.5766079 L88.1455048,89.8890105 L94.4157208,93.5229052 L94.4157208,94.9057826 L95.6086755,94.2143439 L101.878892,97.8520798 L101.87697,99.2349573 L103.068004,98.5473599 L109.336299,102.177413 L109.330536,103.564132 L110.52157,102.872693 L116.79947,106.510429 L116.782181,111.020146 L113.276315,113.042604 L114.770871,113.910744 L114.772792,112.341562 L120.820169,108.849797 L127.084622,112.483691 L127.073096,116.99725 L121.033403,120.489015 L119.677161,119.701543 L119.671398,121.272646 L113.62402,124.770173 L112.265858,123.984622 L112.263937,125.551883 L106.210796,129.04749 L104.868002,128.26578 L104.862239,129.831121 L98.8110193,133.326728 L97.4221203,132.520049 L97.4182783,134.131485 L91.3709008,137.627092 L78.0908753,129.923312 L78.0908753,129.020601 L77.3186244,129.473877 L67.5175698,123.790635 L67.5194908,122.757318 L66.6319786,123.273977 L63.0511935,121.193899 L63.0415884,122.922495 L56.4678509,126.750377 L80.8456209,140.819234 C81.0895907,140.959443 81.3508497,141.078524 81.6178718,141.18416 C81.6947127,141.21297 81.7715535,141.24178 81.8503154,141.27059 C82.0251285,141.330131 82.2095466,141.383909 82.3939647,141.431926 C82.5553305,141.478022 82.7205384,141.520276 82.8895884,141.554848 C83.120111,141.604786 83.3583178,141.645119 83.5946035,141.677771 C83.642629,141.681612 83.6868125,141.689295 83.7329171,141.691215 C84.0422016,141.727708 84.3495652,141.743073 84.6626918,141.746915 C84.7164804,141.746915 84.7645059,141.748835 84.8106105,141.748835 C85.117974,141.746915 85.4214955,141.727708 85.7192539,141.695057 C85.7672794,141.689295 85.8210681,141.685453 85.8710146,141.681612 C86.16301,141.645119 86.4569264,141.597103 86.7431587,141.52988 C86.7969473,141.518356 86.856499,141.506832 86.9102876,141.491466 C87.1849937,141.422323 87.4481738,141.345496 87.7036697,141.251384 C87.732485,141.24178 87.7632214,141.232177 87.7958787,141.220653 C88.0859531,141.109254 88.3721854,140.974808 88.6372864,140.819234 L134.115563,114.396672 C135.18173,113.776298 135.70809,112.965778 135.713853,112.151417 C135.70809,113.655296 135.70809,115.161096 135.702327,116.664975 C135.702327,117.475495 135.168283,118.286015 134.105958,118.902548 L88.6238393,145.328951 C88.3664223,145.478763 88.0859531,145.607447 87.7958787,145.722687 C87.7958787,145.722687 87.7843526,145.722687 87.7805106,145.73037 C87.7516952,145.739973 87.7171168,145.751497 87.6883015,145.757259 C87.5077254,145.830244 87.3213863,145.891706 87.1331261,145.939722 C87.0562852,145.964691 86.9756023,145.978135 86.8987614,145.997342 C86.8372887,146.010787 86.7873422,146.026152 86.7220274,146.039597 C86.6740019,146.054962 86.6202132,146.072248 86.5625826,146.079931 C86.3800855,146.116423 86.1975884,146.149074 86.0131703,146.170202 C85.9593816,146.179805 85.9075141,146.185567 85.8498834,146.189408 C85.8037789,146.19517 85.7595954,146.199012 85.7192539,146.204774 C85.638571,146.214377 85.5598091,146.22398 85.4829682,146.229742 C85.2985501,146.243187 85.119895,146.25087 84.94124,146.256632 L84.7990843,146.256632 C84.7510588,146.256632 84.7011122,146.256632 84.6550077,146.25087 C84.5608776,146.25087 84.4705895,146.256632 84.3764595,146.247028 C84.1689891,146.243187 83.9692028,146.229742 83.7674955,146.208615 C83.7521273,146.204774 83.7386801,146.204774 83.7175489,146.200932 C83.6714444,146.199012 83.6253398,146.189408 83.5830774,146.181726 C83.4121064,146.160598 83.2430564,146.145233 83.0740065,146.110661 C83.0067707,146.101058 82.943377,146.074169 82.8742202,146.062645 C82.7090123,146.029993 82.5495675,145.987739 82.3882016,145.945484 C82.2902295,145.916674 82.1884153,145.901309 82.0885222,145.872499 C82.0001552,145.839848 81.9156302,145.807196 81.8311052,145.772625 C81.7600274,145.751497 81.6812655,145.722687 81.6101877,145.691957 C81.3374026,145.5844 81.0761436,145.467239 80.8321738,145.32511 L1.76482648,99.6843924 C1.70143275,99.6478998 1.63803902,99.6133279 1.58040836,99.5768353 C1.54967201,99.5518667 1.51893566,99.526898 1.48627828,99.5076914 C1.42480557,99.4673575 1.36717491,99.4270236 1.3133863,99.3866896 C1.25383461,99.3444351 1.19812497,99.3002598 1.14241533,99.2541639 C1.0963108,99.2099886 1.04636423,99.173496 1.00410174,99.1312414 C0.981049477,99.1101142 0.954155168,99.0985902 0.940708014,99.0793835 C0.917655749,99.0582562 0.906129617,99.0352083 0.88115633,99.0121603 C0.810078513,98.9372545 0.737079675,98.8565866 0.673685947,98.7816808 C0.65831777,98.7624741 0.633344483,98.7375055 0.616055285,98.7182989 C0.608371196,98.7067749 0.60260813,98.6894889 0.591081998,98.6760443 C0.53729338,98.6088211 0.498872938,98.5473599 0.456610453,98.4801366 C0.445084321,98.4455647 0.418190012,98.4148341 0.402821835,98.3898655 C0.397058769,98.3821828 0.393216725,98.3687382 0.389374681,98.3591349 C0.356717305,98.2976737 0.335586063,98.2381331 0.308691754,98.1747512 C0.295244599,98.1420999 0.276034379,98.1113693 0.25874518,98.0787181 C0.25874518,98.0691147 0.25874518,98.0652734 0.254903136,98.0556701 C0.233771893,97.9942089 0.220324739,97.936589 0.206877584,97.8808898 C0.197272474,97.8405558 0.183825319,97.8040632 0.181904297,97.76565 C0.178062253,97.759888 0.178062253,97.7522053 0.178062253,97.742602 C0.162694077,97.6888234 0.160773055,97.6254416 0.15693101,97.5735837 C0.153088966,97.5294084 0.145404878,97.4909951 0.145404878,97.4487406 L0.145404878,97.4160893 C0.151167944,95.9083687 0.153088966,94.4064102 0.15693101,92.902531" id="Fill-2573" fill="#D1DCE6"></path>
                <path d="M1.74580836,90.666687 L47.2317689,64.2422039 C49.3698664,62.9976142 52.8738107,62.9995349 55.0234344,64.2422039 L134.092703,109.882921 C136.248089,111.127511 136.255774,113.149969 134.115755,114.39648 L88.6355575,140.819042 C86.503223,142.059791 82.9992787,142.065553 80.845813,140.819042 L1.77462369,95.1802454 C-0.371157956,93.933735 -0.38460511,91.9035941 1.74580836,90.666687" id="Fill-2575" fill="#E8ECEF"></path>
                <polygon id="Fill-2577" fill="#0C2F4B" points="54.0168188 78.6625426 47.9675203 82.1485461 54.2338943 85.792044 60.2831928 82.2964372"></polygon>
                <polygon id="Fill-2579" fill="#0C2F4B" points="44.3704065 81.6336163 38.323029 85.1330645 44.58364 88.7669591 50.6367805 85.2713523"></polygon>
                <polygon id="Fill-2581" fill="#0C2F4B" points="35.6395533 77.0326679 28.6335858 81.0814257 24.6128866 83.4073487 22.5862084 84.5789532 33.1614348 90.7135512 39.2068913 87.2179443 35.960364 85.3318532 42.9644105 81.2773333"></polygon>
                <polygon id="Fill-2583" fill="#0C2F4B" points="51.4167154 85.7261653 45.369338 89.2236928 51.635712 92.8595081 57.6850105 89.3639012"></polygon>
                <polygon id="Fill-2585" fill="#0C2F4B" points="21.1886648 85.3829428 15.1432084 88.8785497 28.0620818 96.3825805 34.1190643 92.8831323"></polygon>
                <polygon id="Fill-2587" fill="#0C2F4B" points="34.7297573 93.2382629 28.6823798 96.7338697 38.4738293 102.413271 44.5269698 98.921505"></polygon>
                <polygon id="Fill-2589" fill="#0C2F4B" points="54.0412158 95.8246278 47.9976804 99.3202347 54.2525282 102.957971 60.3056688 99.4623638"></polygon>
                <polygon id="Fill-2591" fill="#0C2F4B" points="50.848285 68.24525 44.8047496 71.7370155 51.0615185 75.3766721 57.11658 71.8810652"></polygon>
                <polygon id="Fill-2593" fill="#0C2F4B" points="58.3072295 72.5761532 52.259852 76.0659981 58.522384 79.7056547 64.5716825 76.2138892"></polygon>
                <polygon id="Fill-2595" fill="#0C2F4B" points="43.4417844 72.5235271 37.396328 76.0152926 47.1013315 81.6505182 53.1602351 78.156832"></polygon>
                <polygon id="Fill-2597" fill="#0C2F4B" points="65.770016 76.8993738 59.7207175 80.3949807 65.9813285 84.0288753 72.03639 80.5351891"></polygon>
                <polygon id="Fill-2599" fill="#0C2F4B" points="73.2326105 81.2266278 67.1794699 84.726076 73.4439229 88.3599706 79.4913003 84.8682051"></polygon>
                <polygon id="Fill-2601" fill="#0C2F4B" points="61.1513027 82.7946572 55.1000832 86.2921847 61.3664571 89.9260793 67.4119136 86.4323931"></polygon>
                <polygon id="Fill-2603" fill="#0C2F4B" points="80.6915549 85.5592597 74.6422564 89.0548665 80.9086304 92.6887612 86.9560079 89.1931543"></polygon>
                <polygon id="Fill-2605" fill="#0C2F4B" points="68.2838655 86.9340703 62.232646 90.4315979 68.497099 94.0674131 74.5502395 90.5718063"></polygon>
                <polygon id="Fill-2607" fill="#0C2F4B" points="40.0142969 87.686202 33.9707614 91.1856502 40.2352144 94.8214655 46.2806708 91.323938"></polygon>
                <polygon id="Fill-2609" fill="#0C2F4B" points="88.1449285 89.8882423 82.099472 93.3838491 88.369688 97.0215851 94.4170655 93.5240575"></polygon>
                <polygon id="Fill-2611" fill="#0C2F4B" points="58.4705164 89.8169857 52.426981 93.3087512 58.6799078 96.9484078 64.7349693 93.4585629"></polygon>
                <polygon id="Fill-2613" fill="#0C2F4B" points="75.4106653 91.0736755 69.3652088 94.5692824 75.6258197 98.203177 81.6770393 94.7114115"></polygon>
                <polygon id="Fill-2615" fill="#0C2F4B" points="47.0661768 91.778943 41.0207203 95.2745499 47.2794102 98.9084445 53.3421559 95.416679"></polygon>
                <polygon id="Fill-2617" fill="#0C2F4B" points="65.5185542 93.9058854 59.4673347 97.4014922 65.7298667 101.039228 71.7849282 97.5436213"></polygon>
                <polygon id="Fill-2619" fill="#0C2F4B" points="95.609636 94.2135756 89.5584165 97.7130238 95.8247905 101.346918 101.879852 97.8532322"></polygon>
                <polygon id="Fill-2621" fill="#0C2F4B" points="82.5393861 95.2094394 76.4958506 98.706967 82.7526195 102.346624 88.8134441 98.8471754"></polygon>
                <polygon id="Fill-2623" fill="#0C2F4B" points="72.5629422 98.0022757 66.5174857 101.494041 72.7838597 105.135618 78.8370002 101.638091"></polygon>
                <polygon id="Fill-2625" fill="#0C2F4B" points="103.06858 98.5481281 97.023124 102.041814 103.287577 105.67763 109.336875 102.178181"></polygon>
                <polygon id="Fill-2627" fill="#0C2F4B" points="89.6813619 99.3490446 83.6282214 102.844652 89.8926743 106.478546 95.9362098 102.990622"></polygon>
                <polygon id="Fill-2629" fill="#0C2F4B" points="61.3163185 100.050471 55.2747041 103.547998 61.541078 107.183814 67.5942186 103.688207"></polygon>
                <polygon id="Fill-2631" fill="#0C2F4B" points="79.618472 102.085605 73.5653315 105.585054 79.8278634 109.218948 85.886767 105.727183"></polygon>
                <polygon id="Fill-2633" fill="#0C2F4B" points="110.521762 102.873461 104.476305 106.369068 110.746521 110.006804 116.799662 106.511197"></polygon>
                <polygon id="Fill-2635" fill="#0C2F4B" points="96.8064328 103.484809 90.7590553 106.984257 97.0235082 110.621993 103.076649 107.126386"></polygon>
                <polygon id="Fill-2637" fill="#0C2F4B" points="68.2950074 104.094427 62.2437879 107.593875 68.5082409 111.22777 74.5613814 107.732163"></polygon>
                <polygon id="Fill-2639" fill="#0C2F4B" points="86.6628599 106.178346 80.6154825 109.677795 86.8856985 113.31361 92.938839 109.816082"></polygon>
                <polygon id="Fill-2641" fill="#0C2F4B" points="75.3413164 108.187168 69.2939389 111.682775 75.5564708 115.31667 81.6096114 111.821063"></polygon>
                <polygon id="Fill-2643" fill="#0C2F4B" points="120.819209 108.849221 114.773752 112.340986 121.042047 115.980643 127.085583 112.485036"></polygon>
                <polygon id="Fill-2645" fill="#0C2F4B" points="93.7147398 110.270895 87.6654413 113.766502 93.9298943 117.400397 99.9830348 113.908631"></polygon>
                <polygon id="Fill-2647" fill="#0C2F4B" points="45.1620597 99.2927692 39.1127612 102.790297 66.6410074 118.764452 72.6922269 115.266924"></polygon>
                <polygon id="Fill-2649" fill="#0C2F4B" points="82.3144344 112.236694 76.2670569 115.726539 82.5315099 119.370037 88.5788873 115.870589"></polygon>
                <polygon id="Fill-2651" fill="#0C2F4B" points="104.252314 107.808221 98.2049368 111.303828 113.638428 120.25988 119.683885 116.764273"></polygon>
                <polygon id="Fill-2653" fill="#0C2F4B" points="40.5152994 105.407392 31.597915 110.589341 54.1353459 123.597993 63.0584934 118.414123"></polygon>
                <polygon id="Fill-2655" fill="#0C2F4B" points="100.791017 114.378618 94.7378762 117.874225 106.227509 124.538926 112.278729 121.043319"></polygon>
                <polygon id="Fill-2657" fill="#0C2F4B" points="73.5778181 115.785311 67.5342827 119.278998 77.3238111 124.96416 83.3711886 121.464712"></polygon>
                <polygon id="Fill-2659" fill="#0C2F4B" points="89.4431552 116.366888 83.3938567 119.862495 98.827348 128.816626 104.872804 125.32102"></polygon>
                <polygon id="Fill-2661" fill="#0C2F4B" points="84.1547735 121.918757 78.1073961 125.414364 91.3778165 133.118144 97.432878 129.622537"></polygon>
                <path d="M52.7637361,2.38551972 C52.8040776,2.3605511 52.8636293,2.32789982 52.8982077,2.30101054 C53.274728,2.08781693 53.6454852,1.87270266 54.0162425,1.65566773 C54.3869998,1.44247413 54.755836,1.22543919 55.1246722,1.0064836 C55.8469765,0.59354103 56.8286188,0.651160924 57.9120753,1.27345577 L136.977502,46.9180147 C139.132888,48.1626044 140.88486,51.1895694 140.875255,53.6576216 L140.727337,106.254981 C140.723495,107.482285 140.287423,108.348504 139.582407,108.751843 C138.648791,109.295391 137.728621,109.835097 136.798846,110.374803 C137.501941,109.967623 137.936092,109.101404 137.943776,107.870259 L138.089773,55.2805819 C138.099378,52.8106091 136.347406,49.7817234 134.193941,48.535213 L55.1208302,2.8964161 C54.0412158,2.27027993 53.0576525,2.21073937 52.3468743,2.62752327 C52.4832669,2.54685542 52.6235015,2.46618757 52.7637361,2.38551972" id="Fill-2663" fill="#D1DCE6"></path>
                <path d="M54.1970107,57.3139879 C54.1950897,58.7928985 55.2516518,60.6117665 56.5368156,61.3512218 L132.45945,105.180754 C133.748456,105.924051 134.80886,105.326724 134.812702,103.851655 L134.949094,55.6871863 C134.951015,54.2101963 133.900216,52.3836457 132.607368,51.6384284 L56.6866553,7.81465814 C55.4014915,7.07136152 54.3410873,7.6763704 54.3314822,9.15528099 L54.1970107,57.3139879 Z M134.194133,48.5365575 C136.347598,49.7811472 138.09957,52.8100329 138.089965,55.2800057 L137.943968,107.869682 C137.936284,110.345417 136.174706,111.351845 134.023162,110.109176 L54.9519724,64.468458 C52.8023487,63.2238683 51.0484555,60.1834586 51.0561396,57.7173272 L51.2021373,5.12188845 C51.2079003,2.65191569 52.9771617,1.65317087 55.1191013,2.89583991 L134.194133,48.5365575 Z" id="Fill-2665" fill="#F8F9FC"></path>
                <polygon id="Fill-2667" fill="#9CB5CC" points="127.27634 99.2439844 129.635355 97.8687896 129.829378 52.5334574 127.468442 53.9048109"></polygon>
                <polygon id="Fill-2669" fill="#BCBCBE" points="127.467674 53.9040426 129.82861 52.5326892 62.1971071 13.7545009 59.838092 15.1239337"></polygon>
                <polygon id="Fill-2671" fill="#F8F9FC" points="59.838092 15.1231654 59.6459898 60.4623389 127.275572 99.2443685 127.467674 53.9032744"></polygon>
                <polygon id="Fill-2673" fill="#AEBFCF" points="123.047978 60.9227218 104.300724 49.7675105 104.16241 54.9398562 123.047978 66.1699735"></polygon>
                <path d="M96.0691445,43.4773388 L96.0691445,69.473514 C96.0691445,70.8775188 95.0778971,71.4479557 93.8657322,70.750755 C92.6478042,70.0458716 91.6565568,68.3307195 91.6565568,66.9286354 L91.6565568,40.9305395 L96.0691445,43.4773388 Z" id="Fill-2675" fill="#9ED7E2"></path>
                <path d="M95.8159538,52.4671946 L95.8159538,69.3267754 C95.8159538,70.5675237 94.9380467,71.0707375 93.8641954,70.4484426 C92.790344,69.8280684 91.9124369,68.3126652 91.9124369,67.0757582 L91.9124369,50.2123361 L95.8159538,52.4671946 Z" id="Fill-2677" fill="#FF495C"></path>
                <polygon id="Fill-2679" fill="#9ED7E2" points="90.9851596 40.5417973 96.7366997 43.8626238 96.7366997 42.328014 90.9851596 39.0091081"></polygon>
                <path d="M88.585803,39.1575754 L88.585803,65.1537506 C88.585803,66.559676 87.5983977,67.1320336 86.3804697,66.4271503 C85.1663837,65.7261082 84.1789784,64.0147974 84.1770574,62.6107927 L84.1789784,36.6146174 L88.585803,39.1575754 Z" id="Fill-2681" fill="#9ED7E2"></path>
                <path d="M88.3343412,56.7456637 L88.3343412,65.0102771 C88.3343412,66.2471841 87.4564341,66.7503979 86.3787408,66.1300237 C85.3068105,65.5077288 84.4289034,63.996167 84.4289034,62.7573393 L84.4289034,54.4908052 L88.3343412,56.7456637 Z" id="Fill-2683" fill="#FF495C"></path>
                <polygon id="Fill-2685" fill="#9ED7E2" points="83.5056602 36.2260673 89.2591213 39.5468938 89.2591213 38.0084426 83.5056602 34.6914574"></polygon>
                <path d="M81.1005405,34.838004 L81.1005405,60.8341793 C81.1005405,62.2362634 80.1112142,62.808621 78.8990492,62.1114202 C77.6772792,61.4026956 76.6917949,59.6913847 76.6917949,58.2893007 L76.6917949,32.2931254 L81.1005405,34.838004 Z" id="Fill-2687" fill="#9ED7E2"></path>
                <path d="M80.8473498,45.9156206 L80.8473498,60.6893613 C80.8473498,61.9262683 79.9675217,62.4294821 78.8994334,61.8091079 C77.8236611,61.1887337 76.947675,59.6733305 76.947675,58.4364234 L76.947675,43.6607621 L80.8473498,45.9156206 Z" id="Fill-2689" fill="#FF495C"></path>
                <polygon id="Fill-2691" fill="#9ED7E2" points="76.0184767 31.9045753 81.7700167 35.2254018 81.7700167 33.6907919 76.0184767 30.3699654"></polygon>
                <path d="M73.6135491,30.5128628 L73.6135491,56.5128793 C73.6135491,57.9149634 72.6280648,58.4892417 71.4120578,57.7881996 C70.1998929,57.0871576 69.2086455,55.3700848 69.2086455,53.9699214 L69.2086455,27.9737461 L73.6135491,30.5128628 Z" id="Fill-2693" fill="#9ED7E2"></path>
                <path d="M73.3676583,44.4901044 L73.3676583,56.3713265 C73.3676583,57.6082335 72.4859092,58.1133679 71.4101368,57.4910731 C70.3362855,56.8687782 69.4622204,55.353375 69.4622204,54.116468 L69.4622204,42.2352459 L73.3676583,44.4901044 Z" id="Fill-2695" fill="#FF495C"></path>
                <polygon id="Fill-2697" fill="#9ED7E2" points="68.5332142 27.5811626 74.2924383 30.9058304 74.2924383 29.3731413 68.5332142 26.0465528"></polygon>
                <polygon id="Fill-2699" fill="#0E3757" points="61.822892 29.9595197 101.855071 53.065097 101.855071 50.6392995 61.822892 27.5318015"></polygon>
                <polygon id="Fill-2701" fill="#0E3757" points="61.822892 55.8790605 101.855071 78.9884791 101.855071 77.6344116 61.822892 54.5288343"></polygon>
                <polygon id="Fill-2703" fill="#0E3757" points="98.2433573 76.2317513 99.3921285 76.8924594 99.3921285 50.4314837 98.2433573 49.7688549"></polygon>
                <polygon id="Fill-2705" fill="#0E3757" points="64.2879475 56.6273509 65.4367187 57.293821 65.4367187 30.8309246 64.2879475 30.1682958"></polygon>
                <polygon id="Fill-2707" fill="#0E3757" points="97.1516404 50.8672822 100.488456 52.7956279 100.488456 51.529911 97.1477984 49.6015652"></polygon>
                <polygon id="Fill-2709" fill="#0E3757" points="97.1477984 75.5564462 100.488456 77.4867126 100.486535 76.219075 97.1477984 74.2907292"></polygon>
                <polygon id="Fill-2711" fill="#0E3757" points="63.1866256 31.2649944 66.533046 33.1952609 66.533046 31.9295439 63.1866256 29.9973568"></polygon>
                <polygon id="Fill-2713" fill="#0E3757" points="63.1866256 55.9541584 66.533046 57.8863455 66.533046 56.6187079 63.1866256 54.6865208"></polygon>
                <polygon id="Fill-2715" fill="#83CFF2" points="116.765084 70.1415207 123.179376 73.8464798 123.179376 71.1690754 116.765084 67.4679576"></polygon>
                <polygon id="Fill-2717" fill="#FE534F" points="116.765084 75.7777066 123.179376 79.4826657 123.179376 76.8091027 116.765084 73.1041435"></polygon>
                <polygon id="Fill-2719" fill="#FFC300" points="104.012187 65.658693 109.71378 68.9487889 109.71378 66.0735562 104.010266 62.7815396"></polygon>
                <path d="M123.376281,71.0793805 L103.799145,59.7897227 L103.801066,80.0354326 L123.380123,91.3250903 L123.376281,71.0793805 Z M123.124627,71.2291922 L123.13039,90.8871792 L104.050799,79.8856208 L104.046957,60.2237925 L123.124627,71.2291922 Z" id="Fill-2721" fill="#025074"></path>
                <path d="M104.012187,62.9277021 L123.180145,73.9926423 C123.251223,74.0329762 123.306932,73.9984043 123.306932,73.9215777 C123.306932,73.8370686 123.251223,73.7410354 123.180145,73.6987808 L104.010266,62.6376819 C103.94303,62.5935067 103.889241,62.6280786 103.889241,62.7087465 C103.889241,62.7894143 103.94303,62.8873681 104.012187,62.9277021" id="Fill-2723" fill="#025074"></path>
                <path d="M104.010266,65.8067761 L123.180145,76.8717163 C123.251223,76.9101295 123.306932,76.8736369 123.306932,76.7929691 C123.306932,76.7123012 123.251223,76.6162681 123.180145,76.5740135 L104.010266,65.5090733 C103.94303,65.4687394 103.889241,65.49947 103.889241,65.5858998 C103.889241,65.664647 103.94303,65.7664422 104.010266,65.8067761" id="Fill-2725" fill="#025074"></path>
                <path d="M104.010266,68.6785516 L123.180145,79.7434918 C123.251223,79.7838257 123.306932,79.7530951 123.306932,79.6685859 C123.306932,79.5879181 123.251223,79.4918849 123.180145,79.451551 L104.010266,68.3846901 C103.939188,68.3443562 103.889241,68.3789281 103.889241,68.4615166 C103.889241,68.5441052 103.94303,68.6382176 104.010266,68.6785516" id="Fill-2727" fill="#025074"></path>
                <path d="M104.012187,71.5537843 L123.180145,82.6187245 C123.251223,82.6590584 123.306932,82.6244864 123.306932,82.5476599 C123.306932,82.4631507 123.251223,82.3632763 123.180145,82.3229423 L104.010266,71.2599228 C103.94303,71.2195889 103.889241,71.2541608 103.889241,71.33867 C103.889241,71.4193378 103.94303,71.5134503 104.012187,71.5537843" id="Fill-2729" fill="#025074"></path>
                <path d="M104.010266,74.429209 L123.180145,85.4941492 C123.251223,85.5344831 123.306932,85.5037525 123.306932,85.4230847 C123.306932,85.3385755 123.251223,85.2425423 123.180145,85.2022084 L104.010266,74.1353475 C103.94303,74.0969343 103.889241,74.1295856 103.889241,74.2140947 C103.889241,74.2947626 103.94303,74.3888751 104.010266,74.429209" id="Fill-2731" fill="#025074"></path>
                <path d="M104.010266,77.3063623 L123.180145,88.3732232 C123.251223,88.4116365 123.306932,88.3789852 123.306932,88.294476 C123.306932,88.2176495 123.251223,88.117775 123.180145,88.0774411 L104.010266,77.0144216 C103.94303,76.972167 103.889241,77.0048182 103.889241,77.0854861 C103.889241,77.1699953 103.94303,77.2660284 104.010266,77.3063623" id="Fill-2733" fill="#025074"></path>
                <path d="M116.765084,87.3393303 C116.832319,87.3796642 116.886108,87.3450922 116.886108,87.2644244 L116.886108,67.5392142 C116.88995,67.4585464 116.832319,67.3625132 116.765084,67.3221793 C116.695927,67.2818454 116.640217,67.3164173 116.640217,67.3970851 L116.638296,87.1222953 C116.640217,87.2029632 116.695927,87.2989963 116.765084,87.3393303" id="Fill-2735" fill="#025074"></path>
                <path d="M109.713396,83.2709816 C109.782553,83.3093949 109.836341,83.274823 109.836341,83.1922345 L109.838262,63.4708656 C109.836341,63.3901978 109.782553,63.2922439 109.713396,63.2538307 C109.644239,63.2154174 109.59045,63.2480687 109.59045,63.3248952 L109.59045,83.0501054 C109.59045,83.1307732 109.644239,83.2287271 109.713396,83.2709816" id="Fill-2737" fill="#025074"></path>
            </g>
        </g>
    </g>
</svg>