<svg width="141" height="153" viewBox="0 0 141 153" fill="none" xmlns="http://www.w3.org/2000/svg">
<path fill-rule="evenodd" clip-rule="evenodd" d="M116.444 96.5865L69.2376 66.9622L69.0938 16.3459L116.3 45.9684L116.444 96.5865Z" fill="#0B033D"/>
<path fill-rule="evenodd" clip-rule="evenodd" d="M116.3 45.9687L69.0938 16.3445L92.8451 2.68037L140.053 32.3029L116.3 45.9687Z" fill="#100455"/>
<path fill-rule="evenodd" clip-rule="evenodd" d="M140.054 32.3036L140.198 82.9216L116.445 96.5858L116.301 45.9694L140.054 32.3036Z" fill="#26157F"/>
<path fill-rule="evenodd" clip-rule="evenodd" d="M138.348 40.0282L118.15 51.6478V74.5226L138.348 62.9081V40.0282Z" fill="#4634A4"/>
<path fill-rule="evenodd" clip-rule="evenodd" d="M136.989 42.972L119.51 53.0278V61.4946L136.989 51.4371V42.972Z" fill="#100455"/>
<path fill-rule="evenodd" clip-rule="evenodd" d="M137.293 69.421L137.303 72.1774L134.896 73.5607L134.893 70.8059L137.293 69.421Z" fill="#100455"/>
<path fill-rule="evenodd" clip-rule="evenodd" d="M120.796 79.0187C121.407 78.6645 121.912 78.9428 121.915 79.6497C121.917 80.3531 121.416 81.2168 120.801 81.5694C120.192 81.9203 119.687 81.6352 119.686 80.9334C119.682 80.2266 120.183 79.3679 120.796 79.0187Z" fill="#3DCC79"/>
<path fill-rule="evenodd" clip-rule="evenodd" d="M134.501 71.0305L134.506 73.7852L132.104 75.1668L132.094 72.4154L134.501 71.0305Z" fill="#100455"/>
<path fill-rule="evenodd" clip-rule="evenodd" d="M131.704 72.64L131.71 75.393L129.307 76.778L129.299 74.0232L131.704 72.64Z" fill="#100455"/>
<path fill-rule="evenodd" clip-rule="evenodd" d="M134.49 67.8114L134.497 70.5628L132.093 71.9478L132.088 69.193L134.49 67.8114Z" fill="#100455"/>
<path fill-rule="evenodd" clip-rule="evenodd" d="M128.91 74.2478L128.917 77.0025L126.511 78.3858L126.506 75.6311L128.91 74.2478Z" fill="#100455"/>
<path fill-rule="evenodd" clip-rule="evenodd" d="M131.693 69.4177L131.703 72.1725L129.298 73.5558L129.289 70.8027L131.693 69.4177Z" fill="#100455"/>
<path fill-rule="evenodd" clip-rule="evenodd" d="M126.111 75.8573L126.122 78.6103L123.714 79.9953L123.711 77.2372L126.111 75.8573Z" fill="#100455"/>
<path fill-rule="evenodd" clip-rule="evenodd" d="M128.9 71.0273L128.91 73.7803L126.503 75.1653L126.494 72.4105L128.9 71.0273Z" fill="#100455"/>
<path fill-rule="evenodd" clip-rule="evenodd" d="M126.103 72.6367L126.11 75.3898L123.706 76.7748L123.699 74.02L126.103 72.6367Z" fill="#100455"/>
<path fill-rule="evenodd" clip-rule="evenodd" d="M120.785 75.5609C121.399 75.2066 121.904 75.4883 121.905 76.1969C121.907 76.8986 121.408 77.764 120.795 78.1132C120.18 78.4675 119.676 78.1807 119.676 77.4789C119.674 76.7704 120.173 75.9134 120.785 75.5609Z" fill="#FF695B"/>
<path fill-rule="evenodd" clip-rule="evenodd" d="M134.891 70.8064L137.292 69.4215L137.302 72.1762L134.895 73.5612L134.891 70.8064ZM134.878 67.5844L137.285 66.2028L137.292 68.9559L134.888 70.3391L134.878 67.5844ZM132.103 75.1671L132.093 72.4158L134.5 71.0308L134.506 73.7855L132.103 75.1671ZM132.086 69.1937L134.489 67.8121L134.497 70.5618L132.091 71.9485L132.086 69.1937ZM129.307 76.7782L129.298 74.0234L131.704 72.6401L131.711 75.3932L129.307 76.7782ZM129.288 70.803L131.692 69.4181L131.702 72.1728L129.298 73.5561L129.288 70.803ZM126.508 78.3858L126.503 75.631L128.909 74.2478L128.914 77.0025L126.508 78.3858ZM126.493 72.4107L128.899 71.0274L128.909 73.7805L126.501 75.1655L126.493 72.4107ZM123.713 79.9951L123.71 77.2387L126.11 75.8571L126.121 78.6102L123.713 79.9951ZM123.698 74.02L126.104 72.6367L126.11 75.3898L123.706 76.7748L123.698 74.02ZM120.801 81.569C120.19 81.9199 119.686 81.6348 119.684 80.9331C119.681 80.2262 120.184 79.3676 120.795 79.0184C121.406 78.6642 121.912 78.9425 121.914 79.6493C121.915 80.3528 121.416 81.2165 120.801 81.569ZM120.785 75.5602C121.397 75.2059 121.902 75.4877 121.904 76.1962C121.907 76.8979 121.406 77.7633 120.793 78.1125C120.178 78.4668 119.676 78.18 119.676 77.4782C119.672 76.7697 120.173 75.9128 120.785 75.5602ZM138.348 64.4518L118.15 76.0696V84.1855L138.348 72.5676V64.4518Z" fill="#4634A4"/>
<path fill-rule="evenodd" clip-rule="evenodd" d="M137.285 66.2036L137.291 68.9567L134.887 70.3383L134.879 67.5836L137.285 66.2036Z" fill="#100455"/>
<path fill-rule="evenodd" clip-rule="evenodd" d="M130.814 81.1438L129.906 80.6175C130.568 80.2362 131.171 80.2008 131.601 80.4521L132.512 80.9785C132.077 80.7288 131.476 80.7608 130.814 81.1438Z" fill="#0B033D"/>
<path fill-rule="evenodd" clip-rule="evenodd" d="M129.128 86.7877L128.217 86.2614C127.791 86.0134 127.523 85.4837 127.521 84.7314C127.52 83.2216 128.585 81.3777 129.907 80.6186L130.814 81.1433C129.492 81.9024 128.427 83.7479 128.429 85.256C128.434 86.0084 128.7 86.5381 129.128 86.7877Z" fill="#0B033D"/>
<path fill-rule="evenodd" clip-rule="evenodd" d="M130.813 81.1438C132.132 80.3847 133.207 80.9953 133.21 82.5085C133.214 84.0166 132.149 85.8604 130.83 86.6196C129.506 87.3804 128.433 86.7697 128.43 85.2565C128.428 83.7484 129.493 81.9029 130.813 81.1438Z" fill="#100455"/>
<path fill-rule="evenodd" clip-rule="evenodd" d="M122.321 107.057C122.325 107.663 121.927 108.269 121.129 108.727L119.035 109.932L119.029 107.283L114.835 104.856L110.723 107.223L113.076 108.587L114.842 107.569L116.68 108.633L114.915 109.649L110.723 107.223V107.369L108.719 106.211C108.555 105.602 108.314 105.038 108.004 104.529L109.338 103.763L109.328 101.05L105.143 98.6261L104.197 99.1659L104.195 98.0829L100.01 95.6554L99.0777 96.1919L99.0743 95.1106L94.881 92.6831L90.7689 95.0515L90.774 95.7094L90.1984 95.3788L86.0863 97.7439L86.0897 98.4051L85.5158 98.0728L81.4021 100.44L81.4038 101.099L80.8316 100.767L76.7212 103.134L76.7229 103.786L76.1541 103.457L72.037 105.826L72.0387 106.482L71.4715 106.153L67.3544 108.518L67.3561 109.175L66.789 108.849L62.6769 111.212L62.6786 111.872L62.1047 111.543L57.9944 113.905V114.566L57.4239 114.235L53.3101 116.6L53.3135 117.262L52.7379 116.929L48.6258 119.294L48.6292 119.951L48.0604 119.622L43.945 121.99L43.9467 122.645L43.3795 122.314L39.2607 124.684L39.2624 125.339L38.6953 125.011L34.5849 127.375H34.5832L34.5849 128.036L34.011 127.704L29.9007 130.071L29.9074 132.505L27.7947 131.278L23.6742 133.654L23.6826 136.137L21.7273 135.003C20.9452 134.551 20.5525 133.957 20.5508 133.358L20.5609 136.071C20.5626 136.67 20.952 137.265 21.7341 137.717L45.648 151.569C47.2241 152.48 49.8092 152.48 51.392 151.569L121.138 111.44C121.935 110.981 122.33 110.377 122.328 109.773C122.328 108.869 122.325 107.963 122.321 107.057Z" fill="#AEBFCF"/>
<path fill-rule="evenodd" clip-rule="evenodd" d="M121.147 105.413L97.2335 91.567C95.6591 90.651 93.0741 90.651 91.4912 91.567L21.7454 131.687C20.1625 132.598 20.1541 134.089 21.7268 135.004L45.6424 148.852C47.2151 149.764 49.7985 149.764 51.383 148.852L121.131 108.728C122.713 107.816 122.722 106.324 121.147 105.413Z" fill="#F8F9FC"/>
<path fill-rule="evenodd" clip-rule="evenodd" d="M94.8799 92.6839L99.0732 95.1097L94.9595 97.4765L90.7695 95.0507L94.8799 92.6839Z" fill="#AEBFCF"/>
<path fill-rule="evenodd" clip-rule="evenodd" d="M90.198 95.3789L94.3896 97.8047L90.2759 100.175L86.0859 97.744L90.198 95.3789Z" fill="#AEBFCF"/>
<path fill-rule="evenodd" clip-rule="evenodd" d="M85.5161 98.0725L89.7077 100.498L85.5974 102.867L81.4023 100.439L85.5161 98.0725Z" fill="#AEBFCF"/>
<path fill-rule="evenodd" clip-rule="evenodd" d="M95.3286 98.3476L99.5151 100.773L95.4031 103.138L91.2148 100.714L95.3286 98.3476Z" fill="#AEBFCF"/>
<path fill-rule="evenodd" clip-rule="evenodd" d="M105.143 98.6259L109.328 101.05L105.217 103.415L101.027 100.991L105.143 98.6259Z" fill="#AEBFCF"/>
<path fill-rule="evenodd" clip-rule="evenodd" d="M80.8311 100.768L85.0244 103.193L80.9106 105.56L76.7207 103.133L80.8311 100.768Z" fill="#AEBFCF"/>
<path fill-rule="evenodd" clip-rule="evenodd" d="M100.456 101.318L104.644 103.745L100.532 106.112L96.3438 103.685L100.456 101.318Z" fill="#AEBFCF"/>
<path fill-rule="evenodd" clip-rule="evenodd" d="M76.1542 103.458L80.3476 105.885L76.2287 108.252L72.0371 105.825L76.1542 103.458Z" fill="#AEBFCF"/>
<path fill-rule="evenodd" clip-rule="evenodd" d="M95.7744 104.015L99.9627 106.439L95.8489 108.804L91.6641 106.381L95.7744 104.015Z" fill="#AEBFCF"/>
<path fill-rule="evenodd" clip-rule="evenodd" d="M71.4723 106.153L75.6657 108.579L71.5451 110.949L67.3535 108.518L71.4723 106.153Z" fill="#AEBFCF"/>
<path fill-rule="evenodd" clip-rule="evenodd" d="M83.9654 104.886L88.1553 107.312L76.669 113.916L72.4824 111.494L83.9654 104.886Z" fill="#AEBFCF"/>
<path fill-rule="evenodd" clip-rule="evenodd" d="M62.1045 111.543L66.2978 113.967L62.1824 116.334L57.9941 113.903L62.1045 111.543Z" fill="#AEBFCF"/>
<path fill-rule="evenodd" clip-rule="evenodd" d="M71.9184 111.817L76.105 114.241L71.9895 116.609L67.8047 114.185L71.9184 111.817Z" fill="#AEBFCF"/>
<path fill-rule="evenodd" clip-rule="evenodd" d="M89.4697 108.072L94.3148 110.879L97.103 112.494L98.5064 113.308L91.5689 117.298L87.3756 114.87L89.5086 113.642L84.6602 110.835L89.4697 108.072Z" fill="#AEBFCF"/>
<path fill-rule="evenodd" clip-rule="evenodd" d="M57.4243 114.235L61.6159 116.661L57.5005 119.028L53.3105 116.6L57.4243 114.235Z" fill="#AEBFCF"/>
<path fill-rule="evenodd" clip-rule="evenodd" d="M67.2348 114.51L71.4197 116.936L67.3093 119.303L63.1211 116.877L67.2348 114.51Z" fill="#AEBFCF"/>
<path fill-rule="evenodd" clip-rule="evenodd" d="M73.8914 116.602L78.0762 119.027L73.9658 121.393L69.7793 118.966L73.8914 116.602Z" fill="#AEBFCF"/>
<path fill-rule="evenodd" clip-rule="evenodd" d="M52.7387 116.928L56.9321 119.356L52.8183 121.723L48.625 119.294L52.7387 116.928Z" fill="#AEBFCF"/>
<path fill-rule="evenodd" clip-rule="evenodd" d="M62.5515 117.204L66.7381 119.628L62.626 121.995L58.4395 119.572L62.5515 117.204Z" fill="#AEBFCF"/>
<path fill-rule="evenodd" clip-rule="evenodd" d="M69.2656 119.265L73.4538 121.689L69.3333 124.06L65.1484 121.633L69.2656 119.265Z" fill="#AEBFCF"/>
<path fill-rule="evenodd" clip-rule="evenodd" d="M48.0605 119.622L52.2538 122.046L48.135 124.418L43.9434 121.989L48.0605 119.622Z" fill="#AEBFCF"/>
<path fill-rule="evenodd" clip-rule="evenodd" d="M57.8682 119.899L62.053 122.325L57.9427 124.691L53.7578 122.264L57.8682 119.899Z" fill="#AEBFCF"/>
<path fill-rule="evenodd" clip-rule="evenodd" d="M89.622 119.421L93.8086 121.845L85.6319 126.55L81.4453 124.124L89.622 119.421Z" fill="#AEBFCF"/>
<path fill-rule="evenodd" clip-rule="evenodd" d="M64.6358 121.93L68.8206 124.354L64.7102 126.721L60.5254 124.295L64.6358 121.93Z" fill="#AEBFCF"/>
<path fill-rule="evenodd" clip-rule="evenodd" d="M43.3786 122.314L47.5702 124.74L43.4531 127.113L39.2598 124.684L43.3786 122.314Z" fill="#AEBFCF"/>
<path fill-rule="evenodd" clip-rule="evenodd" d="M53.193 122.592L57.3779 125.016L53.2608 127.385L49.0742 124.959L53.193 122.592Z" fill="#AEBFCF"/>
<path fill-rule="evenodd" clip-rule="evenodd" d="M60.0063 124.592L64.1912 127.016L60.0774 129.381L55.8926 126.957L60.0063 124.592Z" fill="#AEBFCF"/>
<path fill-rule="evenodd" clip-rule="evenodd" d="M38.696 125.011L42.8877 127.436L38.7739 129.801L34.584 127.374L38.696 125.011Z" fill="#AEBFCF"/>
<path fill-rule="evenodd" clip-rule="evenodd" d="M48.5095 125.284L52.696 127.712L48.5772 130.08L44.3906 127.654L48.5095 125.284Z" fill="#AEBFCF"/>
<path fill-rule="evenodd" clip-rule="evenodd" d="M55.3808 127.251L59.5673 129.675L55.4502 132.049L51.2637 129.62L55.3808 127.251Z" fill="#AEBFCF"/>
<path fill-rule="evenodd" clip-rule="evenodd" d="M34.0127 127.704L38.206 130.132L34.0923 132.497L29.9023 130.069L34.0127 127.704Z" fill="#AEBFCF"/>
<path fill-rule="evenodd" clip-rule="evenodd" d="M43.8249 127.978L48.0132 130.403L43.8977 132.77L39.7129 130.348L43.8249 127.978Z" fill="#AEBFCF"/>
<path fill-rule="evenodd" clip-rule="evenodd" d="M50.751 129.918L54.9358 132.341L50.8272 134.706L46.6406 132.283L50.751 129.918Z" fill="#AEBFCF"/>
<path fill-rule="evenodd" clip-rule="evenodd" d="M27.7943 131.279L31.986 133.708L27.8671 136.08L23.6738 133.653L27.7943 131.279Z" fill="#AEBFCF"/>
<path fill-rule="evenodd" clip-rule="evenodd" d="M46.1238 132.58L50.3086 135.004L46.1966 137.37L42.0117 134.945L46.1238 132.58Z" fill="#AEBFCF"/>
<path fill-rule="evenodd" clip-rule="evenodd" d="M80.9325 124.419L85.1173 126.843L65.0125 138.416L60.8242 135.992L80.9325 124.419Z" fill="#AEBFCF"/>
<path fill-rule="evenodd" clip-rule="evenodd" d="M38.9398 130.788L43.1247 133.217L32.9893 139.046L28.8027 136.62L38.9398 130.788Z" fill="#AEBFCF"/>
<path fill-rule="evenodd" clip-rule="evenodd" d="M41.4772 135.254L45.6637 137.678L38.1201 142.017L33.9336 139.59L41.4772 135.254Z" fill="#AEBFCF"/>
<path fill-rule="evenodd" clip-rule="evenodd" d="M60.1862 136.358L64.3711 138.78L57.4285 142.778L53.2402 140.351L60.1862 136.358Z" fill="#AEBFCF"/>
<path fill-rule="evenodd" clip-rule="evenodd" d="M52.3916 140.842L56.5798 143.265L48.4031 147.968L44.2148 145.547L52.3916 140.842Z" fill="#AEBFCF"/>
<path fill-rule="evenodd" clip-rule="evenodd" d="M100.011 95.6558L104.197 98.0816L100.085 100.447L95.9004 98.0208L100.011 95.6558Z" fill="#AEBFCF"/>
<path fill-rule="evenodd" clip-rule="evenodd" d="M90.6464 101.044L94.8313 103.468L90.7192 105.835L86.5293 103.409L90.6464 101.044Z" fill="#AEBFCF"/>
<path fill-rule="evenodd" clip-rule="evenodd" d="M114.835 104.856L119.028 107.282L114.913 109.649L110.723 107.222L114.835 104.856Z" fill="#AEBFCF"/>
<path fill-rule="evenodd" clip-rule="evenodd" d="M110.172 107.535L110.736 107.862L114.364 109.961L110.252 112.331L106.059 109.899L106.482 109.661L110.172 107.535Z" fill="#AEBFCF"/>
<path fill-rule="evenodd" clip-rule="evenodd" d="M105.649 104.856L106.209 105.179L109.841 107.282L105.727 109.649L101.535 107.222L101.957 106.979L105.649 104.856Z" fill="#AEBFCF"/>
<path fill-rule="evenodd" clip-rule="evenodd" d="M66.7878 108.848L70.9812 111.276L66.8657 113.639L62.6758 111.211L66.7878 108.848Z" fill="#AEBFCF"/>
<path fill-rule="evenodd" clip-rule="evenodd" d="M105.652 110.14L109.842 112.565L105.725 114.936L101.535 112.506L105.652 110.14Z" fill="#AEBFCF"/>
<path fill-rule="evenodd" clip-rule="evenodd" d="M83.1498 111.278L87.3347 113.7L83.2209 116.069L79.0293 113.645L83.1498 111.278Z" fill="#AEBFCF"/>
<path fill-rule="evenodd" clip-rule="evenodd" d="M78.52 113.939L82.7048 116.364L78.5945 118.729L74.4062 116.304L78.52 113.939Z" fill="#AEBFCF"/>
<path fill-rule="evenodd" clip-rule="evenodd" d="M98.9575 114.049L103.142 116.475L94.6575 121.36L90.4727 118.934L98.9575 114.049Z" fill="#AEBFCF"/>
<path fill-rule="evenodd" clip-rule="evenodd" d="M53.8699 134.035L58.0632 136.463L53.9494 138.829L49.7578 136.402L53.8699 134.035Z" fill="#AEBFCF"/>
<path fill-rule="evenodd" clip-rule="evenodd" d="M54.3359 133.771L58.4463 131.405L62.6396 133.831L58.5276 136.196L54.3359 133.771Z" fill="#AEBFCF"/>
<path fill-rule="evenodd" clip-rule="evenodd" d="M58.959 131.109L63.0778 128.743L67.2694 131.167L63.1523 133.539L58.959 131.109Z" fill="#AEBFCF"/>
<path fill-rule="evenodd" clip-rule="evenodd" d="M63.5352 128.477L67.654 126.107L71.8439 128.534L67.7285 130.903L63.5352 128.477Z" fill="#AEBFCF"/>
<path fill-rule="evenodd" clip-rule="evenodd" d="M68.3203 125.726L72.4307 123.361L76.6257 125.783L72.5136 128.15L68.3203 125.726Z" fill="#AEBFCF"/>
<path fill-rule="evenodd" clip-rule="evenodd" d="M72.8965 123.09L77.0068 120.726L81.2002 123.156L77.0898 125.517L72.8965 123.09Z" fill="#AEBFCF"/>
<path fill-rule="evenodd" clip-rule="evenodd" d="M77.5254 120.428L81.6374 118.062L85.8291 120.488L81.717 122.853L77.5254 120.428Z" fill="#AEBFCF"/>
<path fill-rule="evenodd" clip-rule="evenodd" d="M82.1016 117.795L86.2153 115.43L90.4052 117.856L86.2932 120.221L82.1016 117.795Z" fill="#AEBFCF"/>
<path fill-rule="evenodd" clip-rule="evenodd" d="M39.0605 142.56L49.1926 136.725L53.3859 139.156L43.2505 144.985L39.0605 142.56Z" fill="#AEBFCF"/>
<path fill-rule="evenodd" clip-rule="evenodd" d="M11.2207 106.069L11.2326 110.475L31.2613 122.074L31.2511 117.667L11.2207 106.069Z" fill="#BABABA"/>
<path fill-rule="evenodd" clip-rule="evenodd" d="M31.25 117.667L31.2619 122.074L74.2395 97.3474L74.226 92.9428L31.25 117.667Z" fill="white"/>
<path fill-rule="evenodd" clip-rule="evenodd" d="M11.2207 106.069L31.2511 117.667L74.2271 92.9429L54.1967 81.3418L11.2207 106.069Z" fill="#E6E6E6"/>
<path fill-rule="evenodd" clip-rule="evenodd" d="M3.52971 42.6392L75.2105 1.39543C76.1907 0.831994 77.0795 0.783073 77.7262 1.1542L82.8421 4.11814C82.1988 3.74532 81.3066 3.79593 80.3281 4.36105L76.9203 6.32127L80.4179 8.35065C80.8005 8.56826 81.0375 9.0406 81.0392 9.70694L81.1678 54.7446L84.0187 56.3961L55.9487 72.6582L61.0646 75.6238L28.2494 94.5022L27.9092 101.638L56.6445 85.1043L61.7621 88.07L62.0025 92.3598L27.4081 112.261L22.2904 109.298L22.5071 104.745L23.1335 91.5383L5.25985 101.711L5.26663 103.667C5.27001 104.772 5.66446 105.553 6.30268 105.924C4.59793 104.936 2.89487 103.947 1.18504 102.961C0.550205 102.591 0.15068 101.808 0.148987 100.702L0.143909 98.7449L0.13883 96.2482L0.128673 93.6301L1.21615e-05 48.7257C-0.00506654 46.4972 1.58118 43.7593 3.52971 42.6392Z" fill="#100455"/>
<path fill-rule="evenodd" clip-rule="evenodd" d="M61.7547 88.0695L61.0572 75.6233L28.2454 94.5017L27.6156 107.709L27.4023 112.262L61.9951 92.3593L61.7547 88.0695Z" fill="#26157F"/>
<path fill-rule="evenodd" clip-rule="evenodd" d="M10.0771 48.0922L78.9037 8.49657C80.0734 7.8218 81.0299 8.3633 81.035 9.7061L81.1637 55.9095L8.093 97.9495L7.96096 51.7461C7.95588 50.4067 8.90729 48.7636 10.0771 48.0922Z" fill="#4937AE"/>
<path fill-rule="evenodd" clip-rule="evenodd" d="M8.09281 97.949L81.1635 55.909L81.0348 9.7056C81.0297 8.36449 80.075 7.82129 78.9052 8.49775L10.0769 48.0917C8.90709 48.7648 7.95568 50.4062 7.96076 51.7456L8.09281 97.949ZM80.3221 4.35971C82.2723 3.23959 83.867 4.15222 83.8721 6.37897L83.9974 51.2783L84.0059 53.8965L84.016 56.3965L5.25551 101.709L5.24873 99.2091L5.23858 96.591L5.1133 51.6933C5.10653 49.4649 6.69109 46.7202 8.63792 45.6018L80.3221 4.35971Z" fill="#26157F"/>
<path fill-rule="evenodd" clip-rule="evenodd" d="M5.25391 101.71L5.25898 103.667C5.26576 105.892 6.86047 106.801 8.809 105.681L80.4932 64.4388C82.4434 63.3186 84.028 60.5807 84.0178 58.3557L84.0144 56.3972L5.25391 101.71Z" fill="#F8F9FC"/>
<path fill-rule="evenodd" clip-rule="evenodd" d="M123.431 66.4936L119.51 68.7507V70.7582L123.431 68.5011V66.4936Z" fill="#100455"/>
<path fill-rule="evenodd" clip-rule="evenodd" d="M136.989 58.713L133.068 60.9701V62.9775L136.989 60.7204V58.713Z" fill="#100455"/>
<path fill-rule="evenodd" clip-rule="evenodd" d="M132.467 61.3257L128.543 63.5828V65.5886L132.467 63.3315V61.3257Z" fill="#100455"/>
<path fill-rule="evenodd" clip-rule="evenodd" d="M127.91 63.9813L123.986 66.2384V68.2441L127.91 65.987V63.9813Z" fill="#100455"/>
<path fill-rule="evenodd" clip-rule="evenodd" d="M46.2985 52.2336L44.631 51.2653L44.4922 23.8713L46.1631 24.8412L46.2985 52.2336Z" fill="#9CB5CC"/>
<path fill-rule="evenodd" clip-rule="evenodd" d="M46.1631 24.8409L44.4922 23.8709L75.8024 5.85787L77.4699 6.82617L46.1631 24.8409Z" fill="#BCBCBE"/>
<path fill-rule="evenodd" clip-rule="evenodd" d="M77.4709 6.82668L77.608 34.2208L46.2995 52.2338L46.1641 24.8414L77.4709 6.82668Z" fill="#F8F9FC"/>
<path fill-rule="evenodd" clip-rule="evenodd" d="M75.368 9.41308L47.7754 25.2888V28.3809L75.368 12.5052V9.41308Z" fill="#FF695B"/>
<path fill-rule="evenodd" clip-rule="evenodd" d="M75.368 13.912L47.7754 29.791V32.8815L75.368 17.0075V13.912Z" fill="#AEBFCF"/>
<path fill-rule="evenodd" clip-rule="evenodd" d="M47.3455 72.8031L45.8304 71.9242L45.7068 58.6885L47.2253 59.5657L47.3455 72.8031Z" fill="#9CB5CC"/>
<path fill-rule="evenodd" clip-rule="evenodd" d="M47.2236 59.5662L45.7051 58.6873L74.1526 42.3207L75.6711 43.1996L47.2236 59.5662Z" fill="#BCBCBE"/>
<path fill-rule="evenodd" clip-rule="evenodd" d="M75.2129 43.3558L75.3348 56.5949L46.8873 72.9598L46.7637 59.7224L75.2129 43.3558Z" fill="#F8F9FC"/>
<path fill-rule="evenodd" clip-rule="evenodd" d="M58.6523 55.0097V57.1942L74.3675 48.154V45.9694L58.6523 55.0097Z" fill="#FF695B"/>
<path fill-rule="evenodd" clip-rule="evenodd" d="M58.6523 58.5136V60.6965L74.3675 51.6562V49.4733L58.6523 58.5136Z" fill="#AEBFCF"/>
<path fill-rule="evenodd" clip-rule="evenodd" d="M58.6523 62.0175V64.2021L74.3675 55.1618V52.9772L58.6523 62.0175Z" fill="#AEBFCF"/>
<path fill-rule="evenodd" clip-rule="evenodd" d="M4.75544 88.2606L2.88648 87.1759L2.73242 36.3756L4.60477 37.4603L4.75544 88.2606Z" fill="#9CB5CC"/>
<path fill-rule="evenodd" clip-rule="evenodd" d="M4.60672 37.4598L2.73438 36.3751L37.7943 16.2062L39.6633 17.2909L4.60672 37.4598Z" fill="#BCBCBE"/>
<path fill-rule="evenodd" clip-rule="evenodd" d="M39.664 17.2909L39.8147 68.0895L4.7564 88.2601L4.60742 37.4598L39.664 17.2909Z" fill="#F8F9FC"/>
<path fill-rule="evenodd" clip-rule="evenodd" d="M37.0115 53.3045L37.1435 58.0262L7.40431 75.1334L7.27734 70.4134L37.0115 53.3045Z" fill="#AEBFCF"/>
<path fill-rule="evenodd" clip-rule="evenodd" d="M37.0115 61.0423L37.1435 65.7674L7.40431 82.8746L7.27734 78.1528L37.0115 61.0423Z" fill="#AEBFCF"/>
<path fill-rule="evenodd" clip-rule="evenodd" d="M10.9629 39.6739V60.1988C10.9629 61.3038 11.7467 61.7576 12.71 61.2042C13.6732 60.6509 14.457 59.2946 14.457 58.188V37.6631L10.9629 39.6739Z" fill="#9ED7E2"/>
<path fill-rule="evenodd" clip-rule="evenodd" d="M11.1641 46.771V60.0843C11.1641 61.0627 11.8582 61.4574 12.7097 60.9682C13.5612 60.479 14.2587 59.2813 14.2587 58.3046V44.9913L11.1641 46.771Z" fill="#FF695B"/>
<path fill-rule="evenodd" clip-rule="evenodd" d="M14.9892 37.3578L10.4336 39.9793V38.7664L14.9892 36.1466V37.3578Z" fill="#9ED7E2"/>
<path fill-rule="evenodd" clip-rule="evenodd" d="M16.8906 36.2638V56.787C16.8906 57.8953 17.6711 58.3508 18.6394 57.7924C19.5993 57.2391 20.3814 55.8862 20.3831 54.7813L20.3814 34.2547L16.8906 36.2638Z" fill="#9ED7E2"/>
<path fill-rule="evenodd" clip-rule="evenodd" d="M17.0898 50.1498V56.6715C17.0898 57.6516 17.7856 58.0497 18.6405 57.5571C19.4904 57.0679 20.1828 55.8735 20.1828 54.8951V48.3684L17.0898 50.1498Z" fill="#FF695B"/>
<path fill-rule="evenodd" clip-rule="evenodd" d="M20.915 33.9493L16.3594 36.5708V35.3579L20.915 32.7364V33.9493Z" fill="#9ED7E2"/>
<path fill-rule="evenodd" clip-rule="evenodd" d="M22.8203 32.8521V53.3787C22.8203 54.4837 23.6024 54.9375 24.5623 54.3825C25.5323 53.8275 26.3128 52.4762 26.3128 51.3696V30.843L22.8203 32.8521Z" fill="#9ED7E2"/>
<path fill-rule="evenodd" clip-rule="evenodd" d="M23.0215 41.5982V53.2617C23.0215 54.2401 23.7173 54.6365 24.5637 54.1473C25.4186 53.6547 26.111 52.4604 26.111 51.4836V39.8185L23.0215 41.5982Z" fill="#FF695B"/>
<path fill-rule="evenodd" clip-rule="evenodd" d="M26.8427 30.5375L22.2871 33.159V31.9478L26.8427 29.3246V30.5375Z" fill="#9ED7E2"/>
<path fill-rule="evenodd" clip-rule="evenodd" d="M28.752 29.4386V49.9669C28.752 51.0735 29.5307 51.5256 30.4956 50.974C31.4572 50.4207 32.241 49.0661 32.241 47.9595V27.4329L28.752 29.4386Z" fill="#9ED7E2"/>
<path fill-rule="evenodd" clip-rule="evenodd" d="M28.9473 40.473V49.8541C28.9473 50.8308 29.643 51.2255 30.4963 50.7363C31.3478 50.2488 32.0402 49.0494 32.0385 48.0727V38.6916L28.9473 40.473Z" fill="#FF695B"/>
<path fill-rule="evenodd" clip-rule="evenodd" d="M32.7753 27.1259L28.2129 29.7507V28.5378L32.7753 25.9146V27.1259Z" fill="#9ED7E2"/>
<path fill-rule="evenodd" clip-rule="evenodd" d="M38.0906 29.0005L6.38086 47.243V45.3284L38.0906 27.0842V29.0005Z" fill="#0E3757"/>
<path fill-rule="evenodd" clip-rule="evenodd" d="M38.0906 49.4661L6.38086 67.7102V66.6424L38.0906 48.3999V49.4661Z" fill="#0E3757"/>
<path fill-rule="evenodd" clip-rule="evenodd" d="M9.24045 65.5331L8.33136 66.056V45.1651L9.24045 44.6404V65.5331Z" fill="#0E3757"/>
<path fill-rule="evenodd" clip-rule="evenodd" d="M36.1369 50.0575L35.2278 50.5805V29.6895L36.1369 29.1665V50.0575Z" fill="#0E3757"/>
<path fill-rule="evenodd" clip-rule="evenodd" d="M10.1052 45.509L7.46094 47.0289V46.0303L10.1069 44.5087L10.1052 45.509Z" fill="#0E3757"/>
<path fill-rule="evenodd" clip-rule="evenodd" d="M10.1072 64.9993L7.46289 66.5226V65.524L10.1072 64.0007V64.9993Z" fill="#0E3757"/>
<path fill-rule="evenodd" clip-rule="evenodd" d="M37.0105 30.0318L34.3594 31.5568V30.5581L37.0105 29.0314V30.0318Z" fill="#0E3757"/>
<path fill-rule="evenodd" clip-rule="evenodd" d="M37.0105 49.5238L34.3594 51.0487V50.0484L37.0105 48.5234V49.5238Z" fill="#0E3757"/>
<path fill-rule="evenodd" clip-rule="evenodd" d="M57.1405 60.3586C57.1405 61.757 56.6682 63.2989 55.9013 64.694C55.5035 65.4211 55.021 66.1043 54.4843 66.7082C53.8986 67.3593 53.2502 67.9143 52.5646 68.3175C52.546 68.331 52.5274 68.3411 52.5087 68.3529C52.4579 68.3799 52.4122 68.4086 52.3614 68.4322C51.0528 69.1407 49.8797 69.1407 49.062 68.5655C48.3273 68.0442 47.877 67.0523 47.877 65.6859C47.877 62.7456 49.9524 59.1659 52.5087 57.6949C55.0633 56.2239 57.1405 57.4183 57.1405 60.3586Z" fill="#83CFF2"/>
<path fill-rule="evenodd" clip-rule="evenodd" d="M55.9007 64.6947C55.5029 65.4217 55.0187 66.1049 54.4838 66.7072L54.1367 64.5547L54.3263 63.0583C54.3263 63.0583 54.3907 63.0617 54.5024 63.0853C54.5041 63.0853 54.5041 63.087 54.5058 63.0887C54.6023 63.1123 54.7326 63.1562 54.8799 63.2372C54.8985 63.249 54.9171 63.2574 54.9375 63.2709C54.973 63.2928 55.0119 63.3198 55.0526 63.3451C55.1745 63.4345 55.3065 63.5509 55.4352 63.7078C55.4656 63.7399 55.4944 63.777 55.5232 63.8158C55.552 63.8495 55.5774 63.8883 55.6028 63.9271C55.6078 63.9339 55.6129 63.9389 55.6163 63.9474C55.6417 63.9862 55.6688 64.0283 55.6942 64.0739C55.7247 64.1194 55.7517 64.1684 55.7788 64.2223C55.8178 64.2982 55.8601 64.4737 55.9007 64.6947Z" fill="#00A39C"/>
<path fill-rule="evenodd" clip-rule="evenodd" d="M53.212 64.1839L51.7426 65.029V63.5799L53.212 62.7365V64.1839Z" fill="#E5BD99"/>
<path fill-rule="evenodd" clip-rule="evenodd" d="M54.401 59.4922C54.401 60.7945 53.5393 62.3465 52.4761 62.9588C51.4164 63.5678 50.5547 63.0094 50.5547 61.7054C50.5547 60.3998 51.2589 59.1767 52.4761 58.475C53.8 57.7142 54.401 58.1899 54.401 59.4922Z" fill="#025074"/>
<path fill-rule="evenodd" clip-rule="evenodd" d="M54.1348 60.4525C54.1348 61.6907 53.3933 63.123 52.4757 63.651C51.5598 64.1773 50.8184 63.5987 50.8184 62.3621C50.8184 61.1223 51.5598 59.6917 52.4757 59.1637C53.3933 58.6374 54.1348 59.2143 54.1348 60.4525Z" fill="#EFD0B4"/>
<path fill-rule="evenodd" clip-rule="evenodd" d="M51.4067 62.2071C51.4067 62.4888 51.2374 62.8144 51.0292 62.9376C50.8227 63.0556 50.6534 62.9224 50.6534 62.6407C50.6534 62.3556 50.8227 62.0283 51.0292 61.9068C51.2374 61.7888 51.4067 61.922 51.4067 62.2071Z" fill="#EFD0B4"/>
<path fill-rule="evenodd" clip-rule="evenodd" d="M54.3012 60.5399C54.3012 60.8233 54.132 61.1489 53.9254 61.2721C53.7172 61.3885 53.5479 61.2552 53.5479 60.9718C53.5479 60.6884 53.7172 60.3628 53.9254 60.2413C54.132 60.1216 54.3012 60.2548 54.3012 60.5399Z" fill="#EFD0B4"/>
<path fill-rule="evenodd" clip-rule="evenodd" d="M53.6163 58.6042C53.5368 58.643 53.4504 58.7104 53.359 58.7864C53.205 58.7223 52.9713 58.7796 52.8681 58.7982L52.9544 58.5553C52.8461 58.6042 52.24 59.1153 52.1909 59.171C52.13 59.2401 51.8371 59.4831 51.656 59.7631C51.5679 59.7918 51.4799 59.8255 51.3986 59.8795C50.8434 60.2321 50.7773 62.1822 50.7773 62.1822C50.7773 62.1822 51.0211 62.9632 51.0922 62.7743C51.1955 62.5044 51.1193 61.5985 51.1329 61.4483C51.1887 60.7651 51.4257 60.3974 51.8083 60.1258C51.9438 60.0313 53.0729 59.3802 53.2083 59.3211C53.5893 59.1524 53.828 59.2452 53.8838 59.866C53.8974 60.0043 53.8212 60.9929 53.9228 61.1447C53.9939 61.251 54.2359 60.1899 54.2359 60.1899C54.2359 60.1899 54.1733 58.3157 53.6163 58.6042Z" fill="#025074"/>
<path fill-rule="evenodd" clip-rule="evenodd" d="M53.6636 60.9286L52.8374 61.4043V60.9387L53.6636 60.463V60.9286ZM52.167 61.7889L51.3409 62.263V61.8007L52.167 61.3233V61.7889ZM53.7228 60.2909L52.7782 60.8324C52.746 60.8527 52.7189 60.8999 52.7189 60.9387V61.1732L52.2889 61.4195V61.185C52.2889 61.1479 52.2601 61.131 52.228 61.1496L51.2816 61.6945C51.2495 61.7147 51.2207 61.7586 51.2207 61.8007V62.3996C51.2207 62.4401 51.2495 62.4553 51.2816 62.4367L52.228 61.8918C52.2601 61.875 52.2889 61.826 52.2889 61.7889V61.5561L52.7189 61.3098V61.541C52.7189 61.5798 52.746 61.5949 52.7782 61.5747L53.7228 61.0315C53.755 61.0129 53.7821 60.9657 53.7821 60.9286V60.3247C53.7821 60.2859 53.755 60.269 53.7228 60.2909Z" fill="#07334E"/>
<path fill-rule="evenodd" clip-rule="evenodd" d="M52.888 64.945C52.888 64.945 52.6036 65.581 52.4647 65.662C52.3056 65.7531 52.0195 65.4393 52.0195 65.4393C52.0195 65.4393 51.4575 64.4136 51.6369 64.2871C51.8756 64.1201 52.2464 63.8806 52.4766 63.7456C52.6984 63.6174 53.0979 63.4251 53.3163 63.3205C53.4585 63.2564 52.888 64.945 52.888 64.945Z" fill="#E5BD99"/>
<path fill-rule="evenodd" clip-rule="evenodd" d="M55.8999 64.6947C55.502 65.4217 55.0179 66.105 54.4829 66.7072C53.8972 67.36 53.2488 67.9133 52.5632 68.3165C52.5445 68.33 52.5259 68.3418 52.5073 68.3536C52.4565 68.3806 52.4091 68.4093 52.36 68.4329C51.0514 69.1414 49.8782 69.1414 49.0605 68.5662C49.1012 68.3266 49.1384 68.1326 49.1757 68.0196C49.6124 66.6954 50.1677 65.8165 50.447 65.4234C50.6316 65.1147 51.07 64.6981 51.6354 64.2881L51.7404 64.4399L51.82 64.5547L52.0333 64.8617L52.4633 65.4774L52.9051 64.359L53.1269 63.804L53.2115 63.588L53.3097 63.335L53.3131 63.3316L53.3165 63.3215C53.8768 63.082 54.3119 62.9942 54.5015 63.0853C54.5032 63.0853 54.5032 63.087 54.5049 63.0887C54.6014 63.1123 54.7318 63.1562 54.879 63.2372C54.8977 63.249 54.9163 63.2574 54.9366 63.2709C54.9755 63.2945 55.0111 63.3181 55.0517 63.3451C55.1736 63.4345 55.3057 63.5509 55.4343 63.7078C55.4648 63.7399 55.4936 63.777 55.5223 63.8158C55.5511 63.8495 55.5765 63.8883 55.6019 63.9271C55.607 63.9339 55.6121 63.9389 55.6155 63.9474C55.6409 63.9862 55.6679 64.0283 55.6933 64.0739C55.7238 64.1194 55.7509 64.1684 55.778 64.2223C55.8169 64.2982 55.8592 64.4737 55.8999 64.6947Z" fill="white"/>
<path fill-rule="evenodd" clip-rule="evenodd" d="M51.4944 65.1739L51.6366 64.2883L52.0344 64.8602L51.4944 65.1739Z" fill="#025074"/>
<path fill-rule="evenodd" clip-rule="evenodd" d="M51.879 65.2942L51.8197 64.5536L52.463 65.4764L51.879 65.2942Z" fill="#025074"/>
<path fill-rule="evenodd" clip-rule="evenodd" d="M53.4465 64.0472L53.3128 63.332L52.9065 64.3593L53.4465 64.0472Z" fill="#025074"/>
<path fill-rule="evenodd" clip-rule="evenodd" d="M53.0606 64.6156L53.1283 63.8041L52.463 65.4776L53.0606 64.6156Z" fill="#025074"/>
<path fill-rule="evenodd" clip-rule="evenodd" d="M54.1748 64.8133L53.9394 64.9482L53.9428 64.6783L53.6229 64.8622V65.1304L53.3892 65.2654V65.6331L53.6229 65.4982V65.7664L53.9428 65.5842V65.3143L54.1748 65.181V64.8133Z" fill="#025074"/>
<path fill-rule="evenodd" clip-rule="evenodd" d="M52.5641 65.2942V68.3172C52.5455 68.3307 52.5269 68.3425 52.5065 68.3526C52.4575 68.3796 52.4101 68.41 52.3593 68.4319V65.4258L52.4625 65.4764L52.5641 65.2942Z" fill="#025074"/>
<path fill-rule="evenodd" clip-rule="evenodd" d="M74.5271 34.1405L74.2986 28.3543C74.2986 27.9528 73.5859 28.0186 72.5668 28.4538C72.5668 28.4538 71.981 29.6397 71.4139 29.9636C70.8518 30.2791 70.2966 29.7578 70.2966 29.7578C69.2808 30.495 68.5664 31.2491 68.5664 31.6522L68.3379 37.6999L74.5271 34.1405Z" fill="#252529"/>
<path fill-rule="evenodd" clip-rule="evenodd" d="M68.9268 37.3627C68.6136 36.7065 68.4477 35.9085 68.5018 34.8744C68.5475 33.9753 68.7202 31.2492 68.7202 31.2492C67.9263 32.3356 67.244 33.7982 67.0866 35.0043C66.9173 36.3488 66.902 37.4875 67.0544 38.4423L68.9268 37.3627Z" fill="#252529"/>
<path fill-rule="evenodd" clip-rule="evenodd" d="M71.2598 29.1686C71.2598 29.1686 72.5125 28.7586 74.6202 27.3315C75.7747 26.5521 73.9887 25.5315 74.4441 22.6654C74.4729 22.4968 71.2598 29.1686 71.2598 29.1686Z" fill="#252529"/>
<path fill-rule="evenodd" clip-rule="evenodd" d="M71.8537 28.826C71.8537 28.826 70.5975 29.86 68.4933 30.857C67.3387 31.4053 69.1247 28.3283 68.6659 25.9885C68.6406 25.8519 71.8537 28.826 71.8537 28.826Z" fill="#252529"/>
<path fill-rule="evenodd" clip-rule="evenodd" d="M71.5559 21.7437C70.1491 22.5534 69.0098 24.7532 69.0098 26.6527C69.0098 28.0748 69.648 28.93 70.5571 28.9317C70.8652 28.93 71.2004 28.8339 71.5559 28.6298C71.9097 28.4273 72.2483 28.1338 72.553 27.7795C73.4655 26.732 74.1037 25.1446 74.1037 23.7225C74.1037 21.8196 72.9644 20.9357 71.5559 21.7437Z" fill="#EFD0B4"/>
<path fill-rule="evenodd" clip-rule="evenodd" d="M72.5537 28.5491V27.7799C72.2489 28.1341 71.9104 28.4277 71.5565 28.6301C71.201 28.8342 70.8641 28.9304 70.5577 28.9321V29.6979C70.3952 29.8059 70.2395 29.9105 70.1074 30.0033L70.5577 30.6241L70.7253 30.8568L71.5565 32.004L72.3878 29.9037L72.5537 29.4769L73.0057 28.3349C72.8719 28.3956 72.7162 28.4682 72.5537 28.5491Z" fill="#E5BD99"/>
<path fill-rule="evenodd" clip-rule="evenodd" d="M72.2138 21.2957C72.0225 22.6418 72.6217 23.4313 73.3345 23.6017C73.9185 23.7417 74.2639 24.0707 74.2639 24.0707C74.2639 24.0707 74.77 22.3719 74.1369 21.3361C73.9236 20.9853 73.5952 20.604 73.3192 20.5264C72.7724 20.3746 72.2764 20.8537 72.2138 21.2957Z" fill="#252529"/>
<path fill-rule="evenodd" clip-rule="evenodd" d="M70.8822 26.0764C70.8822 25.847 70.7484 25.7424 70.5808 25.8386C70.4149 25.9364 70.2795 26.1962 70.2795 26.4222C70.2795 26.6517 70.4149 26.7562 70.5808 26.6601C70.7484 26.5623 70.8822 26.3058 70.8822 26.0764Z" fill="#252529"/>
<path fill-rule="evenodd" clip-rule="evenodd" d="M72.8431 24.9463C72.8414 24.722 72.7094 24.6157 72.5418 24.7102C72.3759 24.8063 72.2404 25.0678 72.2404 25.2938C72.2404 25.5216 72.3759 25.6279 72.5418 25.5334C72.7094 25.4372 72.8431 25.1758 72.8431 24.9463Z" fill="#252529"/>
<path fill-rule="evenodd" clip-rule="evenodd" d="M69.0039 27.3037C69.8842 24.6552 71.9106 23.6886 73.0364 21.3404C73.2142 20.9709 73.1989 20.7567 73.1075 20.6335C72.9382 20.4007 72.4591 20.3248 71.8108 20.6791C70.944 21.1514 69.5016 22.2834 68.7957 24.4629C68.5469 25.2372 68.64 28.3934 69.0039 27.3037Z" fill="#252529"/>
<path fill-rule="evenodd" clip-rule="evenodd" d="M70.6225 32.7633L69.4883 32.8358L70.3584 30.0777L71.4944 30.0068L70.6225 32.7633Z" fill="#FF695B"/>
<path fill-rule="evenodd" clip-rule="evenodd" d="M72.0723 32.9328L70.8331 33.6649L70.7925 30.1038L72.0334 29.37L72.0723 32.9328Z" fill="#FF695B"/>
<path fill-rule="evenodd" clip-rule="evenodd" d="M73.4665 27.5822C73.3734 27.346 73.2092 27.1925 73.1245 27.1233C73.0839 27.0913 73.0551 27.0845 73.0416 27.1115C72.9383 27.2819 72.4947 27.9938 71.6483 28.5589C71.6178 28.5792 71.4942 28.6483 71.4638 28.6635C70.6122 29.0768 70.1721 28.8727 70.0688 28.8187C70.0536 28.8119 70.0248 28.8524 69.9876 28.93C69.9012 29.0937 69.7387 29.4395 69.6473 29.7819C69.5423 30.1615 69.395 30.5697 69.5677 30.8346C69.6541 30.9678 70.4836 30.983 71.5569 30.3622C72.6302 29.7465 73.4563 28.7816 73.5443 28.5437C73.7153 28.0849 73.568 27.8487 73.4665 27.5822Z" fill="#FF695B"/>
<path fill-rule="evenodd" clip-rule="evenodd" d="M71.9663 34.0003C71.8935 34.0829 71.8089 34.0981 71.7733 34.0357C71.7394 33.9733 71.7682 33.8586 71.8393 33.7776L72.1915 33.3761C72.2642 33.2951 72.3489 33.2783 72.3844 33.3407C72.4183 33.4031 72.3895 33.5178 72.3184 33.6005L71.9663 34.0003Z" fill="#D4EEFA"/>
<path fill-rule="evenodd" clip-rule="evenodd" d="M72.7499 33.5605C72.5468 33.7899 72.3013 33.8338 72.2014 33.66L72.1252 33.5251C72.0271 33.3496 72.11 33.019 72.3115 32.7896L75.0015 29.7244C75.2029 29.4967 75.4484 29.4494 75.5449 29.6249L75.6245 29.7598C75.721 29.9353 75.638 30.2676 75.4366 30.497L72.7499 33.5605Z" fill="#D4EEFA"/>
<path fill-rule="evenodd" clip-rule="evenodd" d="M72.1667 33.4782C72.077 33.3213 72.1531 33.0294 72.3309 32.8236L75.0192 29.7602C75.1987 29.5577 75.4171 29.5139 75.5051 29.6708L75.5813 29.8074C75.6676 29.9643 75.5931 30.2561 75.4137 30.4603L72.727 33.5237C72.5476 33.7278 72.3309 33.77 72.2429 33.6114L72.1667 33.4782Z" fill="white"/>
<path fill-rule="evenodd" clip-rule="evenodd" d="M71.8127 33.9922C71.7873 33.9483 71.811 33.8673 71.8584 33.8134L72.2105 33.4119C72.2596 33.3562 72.3189 33.3444 72.3409 33.3883C72.3646 33.4287 72.3476 33.508 72.3002 33.5637L71.9447 33.9652C71.8973 34.0209 71.8381 34.0327 71.8127 33.9922Z" fill="white"/>
<path fill-rule="evenodd" clip-rule="evenodd" d="M71.924 33.7385L71.8597 33.8127C71.8123 33.8667 71.7886 33.9476 71.814 33.9915C71.8394 34.0337 71.8969 34.0202 71.946 33.9662L72.0104 33.8936L71.924 33.7385Z" fill="#FF5542"/>
<path fill-rule="evenodd" clip-rule="evenodd" d="M75.4079 30.1784L75.2132 29.8309L75.2521 29.7853L75.4485 30.1345L75.4079 30.1784Z" fill="#D4EEFA"/>
<path fill-rule="evenodd" clip-rule="evenodd" d="M75.1231 30.3975L75.0013 30.1799L75.0385 30.1343L75.1604 30.3536L75.1231 30.3975Z" fill="#D4EEFA"/>
<path fill-rule="evenodd" clip-rule="evenodd" d="M74.8731 30.6826L74.7513 30.4616L74.7885 30.4177L74.9104 30.637L74.8731 30.6826Z" fill="#D4EEFA"/>
<path fill-rule="evenodd" clip-rule="evenodd" d="M74.6251 30.9658L74.5015 30.7465L74.5421 30.7044L74.664 30.922L74.6251 30.9658Z" fill="#D4EEFA"/>
<path fill-rule="evenodd" clip-rule="evenodd" d="M74.4126 31.3135L74.2179 30.9677L74.2552 30.9221L74.4515 31.2713L74.4126 31.3135Z" fill="#D4EEFA"/>
<path fill-rule="evenodd" clip-rule="evenodd" d="M74.1271 31.5341L74.0035 31.3148L74.0424 31.2727L74.166 31.4886L74.1271 31.5341Z" fill="#D4EEFA"/>
<path fill-rule="evenodd" clip-rule="evenodd" d="M73.8762 31.8176L73.7526 31.5983L73.7933 31.5561L73.9168 31.7754L73.8762 31.8176Z" fill="#D4EEFA"/>
<path fill-rule="evenodd" clip-rule="evenodd" d="M73.6271 32.101L73.5052 31.885L73.5424 31.8412L73.6643 32.0588L73.6271 32.101Z" fill="#FF5542"/>
<path fill-rule="evenodd" clip-rule="evenodd" d="M73.4146 32.4518L73.2199 32.1026L73.2571 32.0605L73.4535 32.4063L73.4146 32.4518Z" fill="#FF5542"/>
<path fill-rule="evenodd" clip-rule="evenodd" d="M73.1282 32.6693L73.008 32.4517L73.0452 32.4095L73.1654 32.6271L73.1282 32.6693Z" fill="#FF5542"/>
<path fill-rule="evenodd" clip-rule="evenodd" d="M72.8782 32.9527L72.7563 32.7368L72.7952 32.6912L72.9171 32.9105L72.8782 32.9527Z" fill="#FF5542"/>
<path fill-rule="evenodd" clip-rule="evenodd" d="M72.631 33.2393L72.5074 33.0217L72.5463 32.9761L72.6699 33.1938L72.631 33.2393Z" fill="#FF5542"/>
<path fill-rule="evenodd" clip-rule="evenodd" d="M72.4176 33.5868L72.2229 33.2393L72.2636 33.1971L72.4582 33.5429L72.4176 33.5868Z" fill="#FF5542"/>
<path fill-rule="evenodd" clip-rule="evenodd" d="M71.8891 33.9559L71.8535 33.8952L75.2952 29.9731L75.329 30.0321L71.8891 33.9559Z" fill="#D4EEFA"/>
<path fill-rule="evenodd" clip-rule="evenodd" d="M71.8891 33.9559L71.8535 33.8952L73.692 31.8L73.7259 31.8607L71.8891 33.9559Z" fill="#FF5542"/>
<path fill-rule="evenodd" clip-rule="evenodd" d="M73.9414 34.4782L75.8121 33.4019C75.9661 32.2734 75.9526 31.1516 75.7782 30.0028C75.6258 28.9771 74.9402 28.3023 74.1479 28.1286C74.1479 28.1286 74.3206 30.6556 74.3663 31.5041C74.4188 32.4741 74.2563 33.4626 73.9414 34.4782Z" fill="#252529"/>
<path fill-rule="evenodd" clip-rule="evenodd" d="M53.4485 32.9082L48.4629 35.7743V33.7044L53.4485 30.8349V32.9082Z" fill="#83CFF2"/>
<path fill-rule="evenodd" clip-rule="evenodd" d="M53.4485 37.2704L48.4629 40.1399V38.0717L53.4485 35.2022V37.2704Z" fill="#FF695B"/>
<path fill-rule="evenodd" clip-rule="evenodd" d="M63.3561 29.4354L58.9258 31.9844V29.7576L63.3578 27.2087L63.3561 29.4354Z" fill="#FFC300"/>
<path fill-rule="evenodd" clip-rule="evenodd" d="M48.3103 33.6347L48.3086 49.3131L63.5193 40.568L63.521 24.8913L48.3103 33.6347ZM48.505 33.7477L63.328 25.2287L63.3263 40.4533L48.5016 48.9723L48.505 33.7477Z" fill="#025074"/>
<path fill-rule="evenodd" clip-rule="evenodd" d="M63.3561 27.3202L48.4637 35.8898C48.4078 35.9202 48.3672 35.8932 48.3672 35.8325C48.3672 35.7683 48.4078 35.6941 48.4637 35.6604L63.3578 27.0941C63.412 27.0621 63.4526 27.0874 63.4526 27.1515C63.4526 27.2139 63.412 27.2898 63.3561 27.3202Z" fill="#025074"/>
<path fill-rule="evenodd" clip-rule="evenodd" d="M63.3579 29.5491L48.4637 38.1187C48.4079 38.1491 48.3672 38.1221 48.3672 38.0597C48.3655 37.9956 48.4079 37.9214 48.4637 37.8876L63.3579 29.3197C63.412 29.291 63.4527 29.313 63.4527 29.3771C63.4527 29.4412 63.412 29.5171 63.3579 29.5491Z" fill="#025074"/>
<path fill-rule="evenodd" clip-rule="evenodd" d="M63.3578 31.7747L48.4637 40.3426C48.4078 40.3747 48.3672 40.3494 48.3672 40.287C48.3672 40.2229 48.4078 40.1453 48.4637 40.1149L63.3578 31.5453C63.412 31.5166 63.4526 31.5419 63.4526 31.606C63.4526 31.6684 63.412 31.7427 63.3578 31.7747Z" fill="#025074"/>
<path fill-rule="evenodd" clip-rule="evenodd" d="M63.3561 34.0003L48.4637 42.5682C48.4078 42.6019 48.3672 42.5749 48.3672 42.5142C48.3672 42.4518 48.4078 42.3725 48.4637 42.3405L63.3578 33.7742C63.412 33.7405 63.4526 33.7692 63.4526 33.8316C63.4526 33.8957 63.412 33.9682 63.3561 34.0003Z" fill="#025074"/>
<path fill-rule="evenodd" clip-rule="evenodd" d="M63.3578 36.2277L48.4637 44.7973C48.4078 44.8294 48.3672 44.8007 48.3672 44.74C48.3672 44.6759 48.4078 44.6016 48.4637 44.5696L63.3578 36C63.412 35.9696 63.4526 35.9949 63.4526 36.0607C63.4526 36.1231 63.412 36.1973 63.3578 36.2277Z" fill="#025074"/>
<path fill-rule="evenodd" clip-rule="evenodd" d="M63.3578 38.455L48.4637 47.0229C48.4078 47.0583 48.3672 47.0296 48.3672 46.9655C48.3672 46.9048 48.4078 46.8289 48.4637 46.7952L63.3578 38.2289C63.412 38.1969 63.4526 38.2205 63.4526 38.2846C63.4526 38.3487 63.412 38.4246 63.3578 38.455Z" fill="#025074"/>
<path fill-rule="evenodd" clip-rule="evenodd" d="M53.4489 46.224C53.393 46.2543 53.3507 46.229 53.3507 46.1666V30.8914C53.3507 30.8307 53.393 30.7548 53.4489 30.7244C53.4996 30.6941 53.5437 30.7211 53.5437 30.7818L53.5454 46.0553C53.5437 46.1177 53.4996 46.1919 53.4489 46.224Z" fill="#025074"/>
<path fill-rule="evenodd" clip-rule="evenodd" d="M58.9265 43.0743C58.8724 43.103 58.83 43.076 58.83 43.0135L58.8283 27.7401C58.83 27.6777 58.8724 27.6034 58.9265 27.5748C58.979 27.541 59.0247 27.568 59.0247 27.6304V42.9022C59.0247 42.9646 58.979 43.0389 58.9265 43.0743Z" fill="#025074"/>
</svg>
