<?xml version="1.0" encoding="UTF-8"?>
<svg width="114px" height="71px" viewBox="0 0 114 71" version="1.1" xmlns="http://www.w3.org/2000/svg" xmlns:xlink="http://www.w3.org/1999/xlink">
    <!-- Generator: Sketch 52.4 (67378) - http://www.bohemiancoding.com/sketch -->
    <title>Group 11</title>
    <desc>Created with Sketch.</desc>
    <g id="Desktop-Website" stroke="none" stroke-width="1" fill="none" fill-rule="evenodd">
        <g id="Business-Solutions" transform="translate(-1243.000000, -652.000000)">
            <g id="Group-11" transform="translate(1243.000000, 652.000000)">
                <path d="M2.13752937,33.2141179 L3.41912166,33.9526452 C3.4160372,32.7605824 3.41141051,31.5685196 3.40986828,30.3733924 C3.40832605,30.0960616 3.58722462,29.8233274 3.94656397,29.6164785 L51.6199463,2.26798375 C52.3278294,1.86501136 53.530768,1.86501136 54.23094,2.27104818 L106.173212,32.2564839 C106.521756,32.4602684 106.692943,32.7299381 106.696028,33.0042045 C106.702197,34.594643 106.702197,36.1820172 106.709908,37.7755201 C106.709908,38.0467221 106.531009,38.3240529 106.174754,38.5278374 L90.4563566,47.5464513 C90.5843616,47.7349137 90.6522197,47.937166 90.6522197,48.1424827 L90.6568463,50.3580647 L111.65121,38.3209885 C113.100905,37.4874638 113.827295,36.3903983 113.822668,35.2902684 C113.827295,36.8822391 113.831921,38.4711455 113.83809,40.061584 C113.839632,41.1555851 113.1117,42.255715 111.663547,43.0907719 L66.4099223,69.0480159 C63.5274963,70.6966786 60.6512392,71.7600354 57.78732,70.1021794 L2.15140943,37.9823691 C0.731016538,37.1641666 0.0185067478,36.0793588 0.0154222898,34.9960832 C0.0107956029,33.4087091 0.00616891593,31.8182706 -1.67688086e-12,30.227832 C0.00308445797,31.3111076 0.714052019,32.392851 2.13752937,33.2141179" id="Fill-1013" fill="#082C44"></path>
                <path d="M81.5049511,49.3772943 C80.3698706,50.025421 80.3559905,51.0841811 81.4879866,51.7369045 C82.6199827,52.3926922 84.4629463,52.3926922 85.5995691,51.7399689 L89.7959741,49.3359245 C90.9310547,48.6801368 90.9387658,47.6213766 89.8098542,46.9655888 C88.6763159,46.3098011 86.8410634,46.3174622 85.7028984,46.9686533 L81.5049511,49.3772943 Z" id="Fill-1014" fill="#F8F9FC"></path>
                <path d="M106.161183,33.7632635 L104.366028,34.7898472 L104.282748,34.8419424 L103.636554,35.2081417 L102.461375,35.8869127 L102.057311,36.118277 L96.3433531,39.391087 L89.1982062,43.4928249 L89.1874106,43.4928249 L79.2261536,49.2064524 L77.5404973,50.1763441 L76.076922,51.0175298 L74.7058804,51.8020236 L74.6950848,51.8020236 L66.2066565,56.6805942 L63.9735089,57.9507999 L63.9627133,57.9507999 L62.5099336,58.7904534 L62.4806313,58.7904534 L61.9516467,59.1106862 L61.93314,59.1106862 L58.4878004,61.0995005 C57.7675795,61.5208595 56.5769787,61.510134 55.8752645,61.0995005 L51.5338899,58.5958622 L48.2659067,56.7066419 L45.0812039,54.8679846 L44.6586331,54.6258947 L42.8542252,53.5855211 L38.0332174,50.8014876 L34.211574,48.5996955 L32.1665784,47.4137616 L31.0885603,46.7916825 L27.8298305,44.9101232 L23.3542819,42.3222131 L22.8684798,42.0464145 L21.7734972,41.4212711 L19.6205456,40.1740485 L16.9910452,38.6586885 L16.343309,38.283296 L14.949134,37.4819478 L13.8664892,36.8491433 L12.6558395,36.153518 L12.1515306,35.8685261 L8.18645989,33.5763334 L6.04893052,32.3459652 L5.83301846,32.2203236 L5.65720436,32.1130686 L5.62173309,32.087021 L3.94224573,31.1232581 C3.2328204,30.7141569 3.2328204,30.0277248 3.9514991,29.6170914 L15.1958906,23.1710654 L15.4195138,23.0377628 L15.6508482,22.9029279 L22.8684798,18.7674812 L24.6605499,17.7408976 L33.369517,12.7397498 L33.3756859,12.7397498 L34.103618,12.3214553 L40.0273195,8.92300375 L40.9526569,8.395922 L40.9619103,8.38826092 L51.0018209,2.62866702 L51.3441958,2.43254357 L51.6248814,2.27319328 C51.709704,2.21650134 51.8114912,2.17513155 51.9101938,2.13682619 C52.2232663,2.02344233 52.6011124,1.96062154 52.9697051,1.96981483 C53.4354583,1.9774759 53.8919581,2.07553762 54.2343329,2.27319328 L59.562734,5.34834757 L62.8214639,7.22990684 L64.7908903,8.37906764 L64.8063126,8.37906764 L66.5721648,9.39799021 L68.9718731,10.7785154 L69.4006127,11.0282663 L75.5679864,14.5845359 L76.3205942,15.0242815 L82.9429254,18.8486886 L83.5073812,19.1750503 L84.549928,19.7848716 L84.5576392,19.7848716 L85.708142,20.4437238 L85.9055473,20.5601721 L86.4792565,20.8895982 L87.7068707,21.6020779 L94.3862645,25.4525326 L96.9170622,26.9157974 L102.146761,29.9388564 L104.347521,31.2044655 L104.907351,31.5246983 L106.168894,32.2570968 C106.870608,32.6646658 106.870608,33.3541623 106.161183,33.7632635" id="Fill-1015" fill="#4D39B9"></path>
                <path d="M3.9386986,31.1223388 C3.23389996,30.7132375 3.23235773,30.0268055 3.94640975,29.6177042 L51.6197921,2.2676773 C52.3276752,1.86470492 53.5306138,1.86470492 54.2307858,2.27074173 L106.173058,32.2561774 C106.87323,32.6652787 106.870145,33.3547752 106.16072,33.7623442 L58.48888,61.1047101 C57.774828,61.5153435 56.5780583,61.5138113 55.8748019,61.1047101 L3.9386986,31.1223388 Z M81.4881408,51.7367512 C80.3561447,51.0840279 80.3700248,50.0252678 81.5051053,49.3725444 L85.7030526,46.9685 C86.8412176,46.3173089 88.6764701,46.3096479 89.8100084,46.9654356 C90.93892,47.6212234 90.9312089,48.6799835 89.7961284,49.3357713 L85.5997233,51.7398157 C84.4631005,52.392539 82.6201369,52.392539 81.4881408,51.7367512 Z M2.13737515,33.2138114 L57.774828,65.335154 C60.6387472,66.9914778 63.513462,65.9296532 66.3912613,64.2809905 L111.651055,38.320682 C114.535023,36.6643582 114.547361,33.9630643 111.6819,32.3052083 L57.8812418,1.24109366 C55.0111536,-0.413697887 50.3135241,-0.413697887 47.4264715,1.24109366 L2.17130419,27.1983377 C-0.708037326,28.8531293 -0.725001845,31.5574877 2.13737515,33.2138114 Z" id="Fill-1016" fill="#114269"></path>
                <polygon id="Fill-1017" fill="#A6A7A9" points="19.1381363 28.6893355 19.1443053 31.1975705 61.3551125 55.5659082 61.3474014 53.0607377"></polygon>
                <polygon id="Fill-1018" fill="#A7A7A9" points="61.3475556 53.0611974 61.3552668 55.5663679 96.1479526 35.6108076 96.143326 33.1010405"></polygon>
                <polygon id="Fill-1019" fill="#F8F9FC" points="19.1381363 28.6893355 61.3474014 53.0607377 96.1431717 33.1005808 53.9323645 8.73224306"></polygon>
                <path d="M50.8125894,14.7213627 L67.3591642,24.2118986 C68.2521148,24.7236582 68.253657,25.5556507 67.3591642,26.0689425 C66.4662136,26.5807021 65.0118917,26.5807021 64.1189411,26.0689425 L47.5723663,16.5784065 L50.8125894,14.7213627 Z" id="Fill-1020" fill="#83CFF2"></path>
                <polygon id="Fill-1021" fill="#9ED7E2" points="47.9253826 16.7801992 47.5722121 16.5779469 50.8124352 14.720903 51.1640634 14.9231553"></polygon>
                <path d="M56.4407999,18.159805 L67.1747136,24.3177747 C67.9643349,24.7682457 67.9643349,25.5052408 67.1700869,25.9618407 C66.3789235,26.4153762 65.0942467,26.4153762 64.3046255,25.9618407 L53.572254,19.8054033 L56.4407999,18.159805 Z" id="Fill-1022" fill="#FE534F"></path>
                <polygon id="Fill-1023" fill="#83CFF2" points="47.0819375 16.8611001 51.3076449 14.4356047 50.3267873 13.8763464 46.1026221 16.2987774"></polygon>
                <path d="M45.3153142,17.874047 L61.861889,27.364583 C62.7548396,27.8763426 62.7563818,28.708335 61.861889,29.223159 C60.9627695,29.7379831 59.5146165,29.7349186 58.6232081,29.223159 L42.0750911,19.7326231 L45.3153142,17.874047 Z" id="Fill-1024" fill="#83CFF2"></path>
                <polygon id="Fill-1025" fill="#9ED7E2" points="42.4267193 19.9344157 42.0750911 19.7321634 45.3153142 17.8735874 45.6669424 18.0758397"></polygon>
                <path d="M56.4136567,24.4547546 L61.6741997,27.4716848 C62.4653632,27.9252202 62.4653632,28.6606831 61.6741997,29.1157508 C60.881494,29.5692863 59.5983595,29.5692863 58.8087383,29.117283 L53.5481952,26.0972885 L56.4136567,24.4547546 Z" id="Fill-1026" fill="#FE534F"></path>
                <polygon id="Fill-1027" fill="#83CFF2" points="41.5803441 20.0153166 45.8075937 17.5928857 44.8282783 17.030563 40.6041131 19.4560584"></polygon>
                <path d="M39.8151088,21.0282636 L56.3616835,30.5187995 C57.2546341,31.0305591 57.2546341,31.865616 56.3616835,32.3773756 C55.4671907,32.8906674 54.014411,32.8891352 53.1214605,32.3773756 L36.5764279,22.8868396 L39.8151088,21.0282636 Z" id="Fill-1028" fill="#83CFF2"></path>
                <polygon id="Fill-1029" fill="#9ED7E2" points="36.9280561 23.0872533 36.5764279 22.8865332 39.8151088 21.0279571 40.1682792 21.2302094"></polygon>
                <path d="M46.7717953,25.2328131 L56.1747654,30.6262078 C56.9643866,31.078211 56.9628444,31.8182706 56.1747654,32.271806 C55.3820597,32.7253415 54.0958407,32.7253415 53.3062195,32.271806 L43.9032494,26.8784114 L46.7717953,25.2328131 Z" id="Fill-1030" fill="#FE534F"></path>
                <polygon id="Fill-1031" fill="#83CFF2" points="36.0830689 23.1709122 40.3087763 20.7454168 39.3310031 20.1846263 35.1022112 22.6085895"></polygon>
                <path d="M34.3149033,24.1840123 L50.8614781,33.6745483 C51.7528865,34.1863079 51.7544287,35.0183003 50.8599359,35.5331244 C49.9654431,36.044884 48.5142056,36.044884 47.6197128,35.5331244 L31.073138,26.0425884 L34.3149033,24.1840123 Z" id="Fill-1032" fill="#83CFF2"></path>
                <polygon id="Fill-1033" fill="#9ED7E2" points="31.4263084 26.244381 31.073138 26.0421287 34.3149033 24.1835527 34.6680738 24.385805"></polygon>
                <path d="M43.1150161,29.4450237 L50.6734804,33.7811904 C51.4646439,34.2347259 51.4646439,34.9701888 50.6719382,35.4237243 C49.8838591,35.8787919 48.5991824,35.8787919 47.8080189,35.4267887 L40.2464702,31.0890897 L43.1150161,29.4450237 Z" id="Fill-1034" fill="#FE534F"></path>
                <polygon id="Fill-1035" fill="#83CFF2" points="30.5813212 26.3251287 34.8085708 23.9026978 33.8307977 23.3403751 29.6020058 25.7658705"></polygon>
                <polygon id="Fill-1036" fill="#0E3757" points="29.6280695 31.4335315 59.0445451 14.5623188 57.4992316 13.6751667 28.082756 30.5494438"></polygon>
                <polygon id="Fill-1037" fill="#0E3757" points="46.1300738 40.9021568 75.5465494 24.0248153 74.6875279 23.5345067 45.2679678 40.4087838"></polygon>
                <polygon id="Fill-1038" fill="#0E3757" points="72.4625541 25.3017627 73.3061534 24.817583 56.4634707 15.1569712 55.6183292 15.641151"></polygon>
                <polygon id="Fill-1039" fill="#0E3757" points="47.5066674 39.6167822 48.3502666 39.1341346 31.5075839 29.4704584 30.6624424 29.9546382"></polygon>
                <polygon id="Fill-1040" fill="#0E3757" points="55.9152083 16.7353053 58.3704368 15.3226036 57.5623088 14.8614071 55.1086225 16.2710443"></polygon>
                <polygon id="Fill-1041" fill="#0E3757" points="71.6295963 25.7491693 74.0848248 24.3410643 73.2797813 23.8768034 70.8245527 25.2849084"></polygon>
                <polygon id="Fill-1042" fill="#0E3757" points="30.9593215 31.0460345 33.4130078 29.6394617 32.6064221 29.1782652 30.154278 30.584838"></polygon>
                <polygon id="Fill-1043" fill="#0E3757" points="46.6738637 40.0628098 49.1306345 38.6547047 48.3209643 38.191976 45.8688202 39.6016132"></polygon>
                <polygon id="Fill-1044" fill="#83CFF2" points="63.3823725 39.3743858 53.9639801 44.7769738 50.561823 42.8264649 59.9802154 37.4238769"></polygon>
                <polygon id="Fill-1045" fill="#FE534F" points="70.5467973 43.4848574 61.1284049 48.8889776 57.7293322 46.9400009 67.1492668 41.5358807"></polygon>
                <polygon id="Fill-1046" fill="#FFC300" points="85.7582644 30.7333095 77.3870455 35.5368017 73.7304206 33.4392002 82.1031817 28.635708"></polygon>
                <path d="M50.0098593,42.8413274 L61.1663437,49.2475157 L89.9196609,32.7685499 L78.7662609,26.3638938 L50.0098593,42.8413274 Z M50.7501292,42.845924 L78.7693453,26.7883171 L89.1778488,32.7624211 L61.1570903,48.8200279 L50.7501292,42.845924 Z" id="Fill-1047" fill="#AEBFCF"></path>
                <path d="M82.2882492,28.7417373 L54.1471969,44.8820837 C54.0423254,44.9433723 53.8773069,44.9433723 53.7786042,44.8851481 C53.6706482,44.8223273 53.6706482,44.7303945 53.7755198,44.6706381 L81.916572,28.5272273 C82.0168169,28.4690031 82.1802932,28.4690031 82.2851648,28.5302917 C82.3854096,28.5869836 82.3900363,28.6835131 82.2882492,28.7417373" id="Fill-1048" fill="#AEBFCF"></path>
                <path d="M85.9464164,30.8425564 L57.8084486,46.9829029 C57.703577,47.0426592 57.535474,47.041127 57.4336869,46.9829029 C57.3288153,46.9200821 57.3288153,46.8296814 57.4306025,46.7699251 L85.5716547,30.624982 C85.6718996,30.5667578 85.8369181,30.5667578 85.9402474,30.6265142 C86.0420346,30.6878028 86.0482035,30.7843323 85.9464164,30.8425564" id="Fill-1049" fill="#AEBFCF"></path>
                <path d="M70.6643151,43.5521216 C70.562528,43.6103458 70.3959673,43.6103458 70.292638,43.5521216 L59.7962275,37.5289868 C59.6959826,37.4707627 59.6944404,37.3757654 59.7962275,37.3190735 C59.8964724,37.2608493 60.0614909,37.2608493 60.1601935,37.3206057 L70.6581462,43.340676 C70.7599333,43.397368 70.7614756,43.4938975 70.6643151,43.5521216" id="Fill-1050" fill="#AEBFCF"></path>
                <path d="M81.0109752,37.6147908 C80.9122725,37.6699506 80.7457118,37.6699506 80.6454669,37.6132586 L70.145972,31.5931883 C70.0441849,31.5318997 70.0441849,31.4399668 70.1428875,31.3817427 C70.2477591,31.3235185 70.4096931,31.3235185 70.5114802,31.3848071 L81.0063485,37.4033452 C81.1081356,37.4615694 81.1127623,37.5580989 81.0109752,37.6147908" id="Fill-1051" fill="#AEBFCF"></path>
            </g>
        </g>
    </g>
</svg>