<?xml version="1.0" encoding="UTF-8"?>
<svg width="117px" height="75px" viewBox="0 0 117 75" version="1.1" xmlns="http://www.w3.org/2000/svg" xmlns:xlink="http://www.w3.org/1999/xlink">
    <!-- Generator: Sketch 52.4 (67378) - http://www.bohemiancoding.com/sketch -->
    <title>Group 2895</title>
    <desc>Created with Sketch.</desc>
    <g id="Desktop-Website" stroke="none" stroke-width="1" fill="none" fill-rule="evenodd">
        <g id="Business-Solutions" transform="translate(-682.000000, -358.000000)">
            <g id="Group-2895" transform="translate(682.000000, 358.000000)">
                <path d="M116.732251,44.4713151 C116.739935,45.5449658 116.031078,46.6243784 114.611442,47.4387396 L100.000148,55.8723713 L99.9924643,52.5284969 C99.9924643,51.9676632 99.6332332,51.4106709 98.9493494,50.9612358 L104.051584,48.0149385 C104.612522,47.6884258 104.898755,47.2620386 104.898755,46.8279687 L104.873781,39.9596774 C104.873781,39.5371316 104.606759,39.112665 104.049663,38.7957556 L47.2815398,5.81220793 C46.167347,5.16494446 44.336613,5.16494446 43.2224202,5.81220793 L29.7349243,13.5908935 C29.7349243,12.5998314 29.7330033,11.6241345 29.7330033,10.7732808 C29.7330033,10.5351185 29.5774005,10.3027183 29.2700369,10.122176 C28.6457048,9.75724997 27.6294841,9.75724997 27.010915,10.1144933 L17.3712262,15.6824957 C17.0600207,15.8649587 16.8909707,16.1031209 16.8909707,16.3432038 L16.912102,20.9950499 L9.88116121,25.0572523 C9.3144597,25.3837651 9.03399048,25.8139936 9.03399048,26.2403808 L9.04551661,30.3486792 L3.06537491,26.8761203 C1.68416005,26.0752038 0.984908014,25.0149978 0.984908014,23.9509504 C0.994513124,26.2403808 1.00027619,28.5336526 1.00219721,30.817321 C1.00219721,31.8813684 1.69952822,32.9434951 3.08842718,33.7424909 L71.3653935,73.4099462 C74.1527965,75.0405892 78.7305921,75.0309859 81.5333633,73.4099462 L114.634495,54.3051102 C116.052209,53.4926697 116.759145,52.4151777 116.753382,51.3376857 C116.745698,49.0482553 116.739935,46.7607455 116.732251,44.4713151" id="Fill-2845" fill="#100455"></path>
                <path d="M104.050431,38.7955635 L47.2803872,5.81201587 C46.1661944,5.1647524 44.3373814,5.1647524 43.2231886,5.81201587 L9.88000859,25.0570603 C8.76005273,25.7004824 8.75044762,26.7626091 9.8627194,27.4060313 L66.6327635,60.3876583 C67.7488774,61.0368424 69.5738483,61.0368424 70.6918832,60.3876583 L104.035063,41.1464552 C105.149256,40.503033 105.162703,39.4447477 104.050431,38.7955635" id="Fill-2847" fill="#4937AE"></path>
                <path d="M92.9069666,50.8504135 C94.5398353,49.9054472 97.1697145,49.9035266 98.7891361,50.8446515 C100.406637,51.7857764 100.391269,53.3069416 98.7583998,54.2461459 L92.7628899,57.7110221 C91.1300211,58.6521471 88.4962999,58.6598297 86.8730362,57.7167841 C85.2632197,56.7718179 85.2785879,55.2583353 86.9076146,54.3172104 L92.9069666,50.8504135 Z" id="Fill-2849" fill="#F8F9FC"></path>
                <path d="M17.3718026,15.6821115 C16.7417073,16.0451169 16.7417073,16.6309191 17.3660395,16.9958451 C17.9807666,17.3569298 18.9912242,17.3569298 19.6232404,16.9900831 L29.2648502,11.4297634 C29.8853403,11.0648374 29.8911034,10.4828765 29.2686922,10.1217918 C28.64436,9.75686584 27.6300604,9.75686584 27.0114913,10.1160298 L17.3718026,15.6821115 Z M98.7578235,54.2451856 C100.390692,53.307902 100.407981,51.7867368 98.7885598,50.8456118 C97.1691382,49.9025663 94.539259,49.9044869 92.9063902,50.8513738 L86.9070383,54.3162501 C85.2799326,55.257375 85.2645645,56.7727782 86.874381,57.7177445 C88.4957236,58.6607901 91.1313659,58.6511867 92.7623136,57.7119825 L98.7578235,54.2451856 Z M104.050239,38.7953715 L47.2801951,5.8118238 C46.1660023,5.16456033 44.3371893,5.16456033 43.2229965,5.8118238 L9.88173751,25.0568682 C8.76178165,25.7002903 8.75025552,26.7643377 9.86252729,27.4058392 L66.6344925,60.3874662 C67.7486852,61.0366503 69.5736562,61.0366503 70.6916911,60.3874662 L104.034871,41.1462631 C105.149064,40.502841 105.162511,39.4445556 104.050239,38.7953715 Z M36.1997398,1.87638508 C39.0101951,0.255345411 43.5860697,0.255345411 46.3792358,1.87638508 L114.656202,41.545761 C117.447447,43.1668007 117.422474,45.8173158 114.612019,47.4383555 L81.5147294,66.5431915 C78.7042741,68.1680725 74.1360836,68.1699931 71.3409965,66.5431915 L3.06595122,26.8757362 C0.282390244,25.2566172 0.295837398,22.6041814 3.09860859,20.9850624 L36.1997398,1.87638508 Z" id="Fill-2851" fill="#26157F"></path>
                <path d="M27.0107229,10.1150695 C27.629292,9.75590551 28.6455127,9.75590551 29.2698448,10.1227522 C29.890335,10.4819162 29.8845719,11.0638771 29.2660028,11.4307237 L19.622472,16.9891228 C18.9904557,17.3578901 17.9819192,17.3578901 17.3652711,16.9948848 C16.7409389,16.6318795 16.7409389,16.0460772 17.3710341,15.6811512 L27.0107229,10.1150695 Z" id="Fill-2853" fill="#F8F9FC"></path>
                <path d="M71.9972177,22.7851079 C63.0068344,17.5973968 48.4301189,17.5973968 39.4435777,22.7851079 C30.4512734,27.9785809 30.4512734,36.393006 39.4416567,41.5807171 C48.4301189,46.7684282 63.0068344,46.7684282 72.0010597,41.5807171 C80.9876009,36.3910854 80.9876009,27.9785809 71.9972177,22.7851079" id="Fill-2855" fill="#F8F9FC"></path>
                <polygon id="Fill-2857" fill="#13B5E6" points="62.9059807 33.1086721 62.5736439 32.3768995 63.2844221 33.9556845 63.2863431 33.9595259"></polygon>
                <path d="M64.8496708,37.4620471 L59.8089089,36.7033852 L64.8496708,37.4620471 Z" id="Fill-2859" fill="#13B5E6"></path>
                <polygon id="Fill-2861" fill="#13B5E6" points="58.7938409 36.5541497 58.7861568 36.552229 56.0563844 36.1431278 57.3165749 36.3332734"></polygon>
                <polygon id="Fill-2863" fill="#13B5E6" points="63.5495231 34.5455202 64.8577391 37.4572455 63.5514441 34.5455202"></polygon>
                <path d="M67.7029649,30.9742392 C66.3736177,31.1701468 64.3699916,31.5773274 62.573836,32.3763233 L65.7857849,33.6017063 L64.6389347,34.4756081 L65.4515271,35.1228715 L64.8579312,37.4564772 L64.8502472,37.4564772 L64.8521682,37.4603185 L64.8502472,37.4603185 L64.8464051,37.4603185 L64.8502472,37.4622392 L60.8007326,37.8060379 L59.6884609,37.3335548 L58.1785375,37.9961835 L56.0577292,36.1427436 C54.6649882,37.1760604 53.952289,38.3361409 53.6141891,39.1063268 C52.5749161,41.534045 53.2856943,43.7812208 54.2538894,45.4406738 C60.6239986,45.6769153 67.1324214,44.3881504 72.0002913,41.5801409 C76.8662402,38.7721314 79.0907837,35.0172351 78.6912111,31.3449272 C75.8115991,30.7840935 71.9138453,30.371151 67.7029649,30.9742392" id="Fill-2865" fill="#13B5E6"></path>
                <path d="M57.6702351,26.7126719 C60.1329854,28.2933776 60.9417357,30.3638525 59.9658564,32.0444327 L61.4719377,32.9125724 C61.8484581,32.7262681 62.2096102,32.5495671 62.5323419,32.3978347 C63.585062,31.8062705 64.7818588,31.0802598 66.0554964,30.2005961 C68.1417264,28.7639401 62.1423744,28.5949217 57.9199679,26.1576002 C58.2984093,26.5110022 58.4809064,26.7510851 58.4809064,26.7510851 C58.4809064,26.7510851 58.1716218,26.7280372 57.6702351,26.7126719" id="Fill-2867" fill="#505457"></path>
                <path d="M55.4771963,34.6373279 C52.8127387,35.1482243 49.5815796,34.8005843 46.9555424,33.650107 C46.9881998,33.7058063 47.0150941,33.7576642 47.0458304,33.8114427 C47.353194,34.2992912 46.830676,34.23783 45.9854262,33.8978726 C49.5431591,36.2890982 49.9350476,39.2891739 52.2786945,38.1521414 C53.8078281,37.4146067 55.0680186,36.7250887 56.0957654,36.1143178 C56.3512613,35.9318548 56.6547828,35.7205819 56.9832776,35.4997056 L55.4771963,34.6373279 Z" id="Fill-2869" fill="#505457"></path>
                <polygon id="Fill-2871" fill="#13B5E6" points="63.2869194 33.9602941 63.2849984 33.9564528 63.5500994 34.5460964 63.5520204 34.5460964"></polygon>
                <polygon id="Fill-2873" fill="#FFFFFF" points="62.9059807 33.1086721 63.2863431 33.9595259 63.5514441 34.5453281 64.8577391 37.4570534 65.451335 35.1234477 64.6387426 34.4761843 65.7855928 33.6022825 62.5736439 32.3768995 62.5717229 32.3768995 62.5736439 32.3768995"></polygon>
                <path d="M49.5189542,31.1373035 C49.8935535,30.9202686 50.5563062,30.9509992 50.9981412,31.2064474 C51.4399763,31.4638162 51.497607,31.8460282 51.1249287,32.0611425 C50.7503294,32.280098 50.0856557,32.2416848 49.6438207,31.9881573 C49.2039066,31.7346297 49.1443549,31.3504971 49.5189542,31.1373035 M53.9238578,28.5924249 C54.2965361,28.3773106 54.9612098,28.4080412 55.4049659,28.6634894 C55.8429589,28.9170169 55.9005895,29.3030702 55.5298323,29.5181845 C55.159075,29.7332988 54.4944014,29.7006475 54.0506453,29.4451993 C53.6068892,29.1916718 53.5531006,28.8075391 53.9238578,28.5924249 M57.6698509,26.7120957 C56.9360204,26.6948097 55.7603549,26.6948097 54.4310077,26.8273355 C52.7136139,26.9982745 50.6830936,26.8619074 48.9138323,26.339487 C48.1646337,28.7768085 45.3887568,30.8626487 46.9563108,33.6514515 C49.5804269,34.8000081 52.8135071,35.1476481 55.4779647,34.6367517 C56.5172376,34.4370027 57.4662225,34.11049 58.2596046,33.6495308 C58.8570425,33.3057321 59.3276929,32.9119962 59.6677138,32.4836883 C59.7829751,32.3415593 59.8847893,32.1936682 59.9654722,32.0457771 C60.9413515,30.3651969 60.1326012,28.2947221 57.6698509,26.7120957" id="Fill-2875" fill="#EFD0B4"></path>
                <path d="M64.8571628,37.4564772 L63.5489468,34.5447519 L63.2857668,33.957029 L62.5749886,32.3763233 L62.5730676,32.3763233 C62.5615415,32.3878472 62.5461733,32.3936092 62.5327261,32.3974506 C62.2099944,32.5491829 61.8488423,32.725884 61.4704009,32.9121883 L59.9662407,32.0459692 C59.8855577,32.1938603 59.7818225,32.3417513 59.6684822,32.4838804 C59.3284613,32.9121883 58.8578109,33.3059242 58.258452,33.6497229 C57.4650699,34.1106821 56.516085,34.4371948 55.4768121,34.6369438 L56.9828934,35.4993215 C56.6543986,35.7221184 56.3508771,35.9314707 56.0953812,36.1139337 C56.0876971,36.123537 56.0723289,36.135061 56.0588818,36.1389023 L58.7944172,36.5480036 L59.8164009,36.7035773 L64.8494787,37.4564772 L64.8571628,37.4564772 Z" id="Fill-2877" fill="#E5BD99"></path>
                <polygon id="Fill-2879" fill="#13B5E6" points="59.8087168 36.7043455 59.8087168 36.7043455 58.7867331 36.5526131 58.7944172 36.5545338"></polygon>
                <path d="M49.0894137,25.2028386 C49.0932557,25.5908126 49.027941,25.9672625 48.9126797,26.3398712 C50.683862,26.8622915 52.7143823,26.9986586 54.4298551,26.8277196 C55.7611233,26.6951938 56.9367889,26.6951938 57.6706193,26.7124798 C58.172006,26.7278451 58.4812906,26.7508931 58.4812906,26.7508931 C58.4812906,26.7508931 58.2987935,26.5108102 57.9203521,26.1574082 C57.1404172,25.4352388 55.5037064,24.2636343 52.7143823,23.7488966 C51.817265,23.5856403 50.7453347,23.4377492 49.8040339,23.376288 C50.1363707,23.7392933 50.4898388,24.1234259 50.9220688,24.601671 C50.2516321,24.8033407 49.6484311,25.0050103 49.0894137,25.2028386" id="Fill-2881" fill="#505457"></path>
                <polygon id="Fill-2883" fill="#FFFFFF" points="59.688653 37.3325944 60.8009247 37.8050776 64.8504393 37.4612789 59.8077563 36.7045376 58.7934567 36.5547259 57.3181117 36.331929 56.0560002 36.143704 58.1787296 37.9971439"></polygon>
                <path d="M51.1247366,32.0621028 C51.4974149,31.8469885 51.4397842,31.4628559 50.9979491,31.2074077 C50.5561141,30.9519595 49.8933614,30.9193082 49.5187621,31.1382638 C49.1441628,31.3514574 49.2037145,31.7336694 49.6436286,31.9891176 C50.0854636,32.2426451 50.7501373,32.2791377 51.1247366,32.0621028" id="Fill-2885" fill="#505457"></path>
                <path d="M55.5296402,29.5187607 C55.9003974,29.3036464 55.8427668,28.9175931 55.4066948,28.6640656 C54.9610177,28.4086174 54.296344,28.3778868 53.9236657,28.5930011 C53.5529085,28.8081153 53.6066971,29.192248 54.0504532,29.4457755 C54.4942093,29.7012237 55.1588829,29.7319543 55.5296402,29.5187607" id="Fill-2887" fill="#505457"></path>
                <path d="M47.0464067,33.8120189 C47.0137494,33.7582404 46.9887761,33.7044618 46.9561187,33.6506832 C45.3885647,30.8638011 48.1644416,28.7779609 48.9136402,26.3387188 C49.0269805,25.9680308 49.0922952,25.5915808 49.0884532,25.2036069 C46.0820537,26.2657336 44.4837633,27.3393843 42.5838725,29.4156211 C41.6310455,29.1256009 40.8837679,28.8951214 40.1672267,28.6761658 C40.1480165,29.3157466 40.3343556,30.0071853 40.8088481,30.7427993 C41.2564462,31.434238 44.283977,33.2166134 45.9840815,33.8984488 C46.8312523,34.2384062 47.3518492,34.2998674 47.0464067,33.8120189" id="Fill-2889" fill="#505457"></path>
                <path d="M41.859263,24.4862392 L42.3740969,24.1904571 L43.8724941,25.0566761 L45.3747333,24.1885364 L45.8857252,24.4862392 L44.3834859,25.3524583 L45.8838042,26.2186773 L45.3747333,26.5163801 L43.8724941,25.6482404 L42.3740969,26.5125388 L41.859263,26.2167567 L43.3576602,25.3524583 L41.859263,24.4862392 Z M49.08999,25.2026465 C49.6490074,25.0067389 50.2522084,24.8031486 50.9226451,24.601479 C50.4904151,24.1232339 50.136947,23.7391012 49.8046102,23.3760959 C49.2571189,22.7787697 48.7653373,22.2448253 48.046875,21.4669568 C42.475911,23.1667436 40.1034488,24.5380971 37.1508379,27.7552078 C38.3726079,28.1278165 39.250515,28.392868 40.1668425,28.6771261 C40.8833837,28.8960817 41.6306613,29.1246406 42.5834883,29.4146607 C44.4833791,27.3384239 46.0816695,26.2666939 49.08999,25.2026465 Z" id="Fill-2891" fill="#13B5E6"></path>
                <polygon id="Fill-2893" fill="#FFFFFF" points="41.859263 26.2175249 42.3740969 26.5113864 43.8724941 25.6490086 45.3747333 26.5152277 45.8838042 26.2194456 44.3834859 25.3532265 45.8857252 24.4870075 45.3747333 24.187384 43.8724941 25.0574444 42.3740969 24.1893047 41.859263 24.4870075 43.3576602 25.3532265"></polygon>
            </g>
        </g>
    </g>
</svg>