<?xml version="1.0" encoding="UTF-8"?>
<svg width="132px" height="78px" viewBox="0 0 132 78" version="1.1" xmlns="http://www.w3.org/2000/svg" xmlns:xlink="http://www.w3.org/1999/xlink">
    <!-- Generator: Sketch 52.4 (67378) - http://www.bohemiancoding.com/sketch -->
    <title>Group 6</title>
    <desc>Created with Sketch.</desc>
    <g id="Desktop-Website" stroke="none" stroke-width="1" fill="none" fill-rule="evenodd">
        <g id="Business-Solutions" transform="translate(-593.000000, -652.000000)">
            <g id="Group-6" transform="translate(593.000000, 652.000000)">
                <path d="M118.797703,8.52984733 C117.821893,7.9630339 116.236587,7.9630339 115.259238,8.52984733 C115.023751,8.66884789 114.843673,8.82638187 114.722081,8.994727 C114.340377,8.46961375 114.520455,7.84102229 115.259238,7.41012053 C116.236587,6.84485156 117.821893,6.84485156 118.797703,7.41012053 C119.536487,7.84102229 119.715026,8.46961375 119.33486,8.994727 C119.213269,8.82638187 119.03473,8.66884789 118.797703,8.52984733" id="Fill-2019" fill="#88898A"></path>
                <path d="M129.895462,11.134718 C129.937018,11.1038289 129.973957,11.0713955 130.013975,11.038962 C130.123253,10.9571061 130.234071,10.8767947 130.332575,10.7903054 C130.381827,10.7470608 130.420306,10.7022718 130.468019,10.6574827 C130.548054,10.5818046 130.631167,10.5045821 130.703506,10.4258151 C130.748141,10.3779371 130.783541,10.3269702 130.825097,10.2744589 C130.886663,10.2018697 130.952845,10.1261916 131.006715,10.0489691 C131.043654,9.99336886 131.074437,9.93622418 131.109837,9.88062395 C131.154472,9.80649032 131.202185,9.73390113 131.242202,9.6597675 C131.272985,9.59798947 131.292994,9.53930034 131.319159,9.47752231 C131.349941,9.40493312 131.385342,9.33234394 131.409968,9.25975475 C131.433055,9.19488782 131.44075,9.13002089 131.45922,9.06669841 C131.47615,8.99565367 131.499237,8.92615339 131.51155,8.8535642 C131.523863,8.78560837 131.523863,8.72074144 131.53002,8.65433006 C131.536176,8.58482977 131.545411,8.51532949 131.545411,8.44582921 L131.545411,8.43501805 C131.550029,9.14083204 131.550029,9.84355714 131.551568,10.5509156 C131.556185,11.6443867 130.835871,12.7394023 129.395244,13.5734057 L129.387548,11.4590526 C129.569166,11.3571189 129.73847,11.2459184 129.895462,11.134718" id="Fill-2021" fill="#88898A"></path>
                <path d="M92.4716176,32.9710894 C92.4716176,32.9309336 92.465461,32.8907779 92.4639219,32.8506222 L103.694969,26.3453956 L129.387702,11.4584348 L129.395398,13.5727879 L92.4777741,34.9618864 L92.4731567,32.9602782 C92.4731567,32.9602782 92.4716176,32.9649116 92.4716176,32.9710894" id="Fill-2023" fill="#88898A"></path>
                <path d="M118.797703,9.4589889 C117.821893,10.0258023 116.236587,10.0258023 115.259238,9.4589889 C114.283429,8.89371992 114.283429,7.97631618 115.259238,7.4110472 C116.236587,6.84577823 117.821893,6.84577823 118.797703,7.4110472 C119.775052,7.97631618 119.775052,8.89371992 118.797703,9.4589889 M111.16053,13.8236067 C110.18472,14.3888757 108.600953,14.3888757 107.623604,13.8236067 C106.644716,13.2583377 106.644716,12.340934 107.623604,11.775665 C108.600953,11.2103961 110.18472,11.2103961 111.16053,11.775665 C112.136339,12.340934 112.136339,13.2583377 111.16053,13.8236067 M131.530943,8.65433006 C131.5371,8.58482977 131.546335,8.51532949 131.546335,8.44582921 C131.549413,7.36162478 130.841412,6.2789648 129.423872,5.4511392 L122.206881,1.24405535 C119.364104,-0.413140306 114.732855,-0.416229208 111.871609,1.24405535 L76.3576737,21.8176838 L90.3514631,29.9770171 C91.7166733,30.7739537 92.4139001,31.8087357 92.4631523,32.85124 L103.6942,26.3460134 L129.388471,11.4590526 C129.570089,11.3571189 129.737854,11.2459184 129.894846,11.134718 C129.937942,11.1038289 129.973342,11.0713955 130.014898,11.038962 C130.122638,10.9571061 130.234994,10.8767947 130.331959,10.7903054 C130.381212,10.7470608 130.421229,10.7022718 130.467403,10.6574827 C130.547438,10.5818046 130.630551,10.5045821 130.70289,10.4258151 C130.747525,10.3779371 130.782925,10.3269702 130.826021,10.2744589 C130.886047,10.2003253 130.95223,10.1261916 131.006099,10.0489691 C131.044578,9.99336886 131.073821,9.93622418 131.109221,9.88062395 C131.153856,9.80649032 131.203108,9.73390113 131.243126,9.6597675 C131.272369,9.59798947 131.293917,9.53930034 131.318543,9.47752231 C131.350865,9.40493312 131.384726,9.33234394 131.409352,9.25975475 C131.432439,9.19488782 131.441674,9.13002089 131.460143,9.06669841 C131.477074,8.99565367 131.500161,8.92615339 131.512474,8.8535642 C131.524787,8.78560837 131.524787,8.71919699 131.530943,8.65433006" id="Fill-2025" fill="#F8F9FC"></path>
                <path d="M131.318851,9.47705897 C131.351173,9.40446979 131.385034,9.3318806 131.40966,9.25929142 C131.385034,9.3318806 131.351173,9.40446979 131.318851,9.47705897" id="Fill-2027" fill="#E4E5E8"></path>
                <path d="M130.467403,10.6581005 C130.547438,10.5808779 130.630551,10.5036554 130.70289,10.4264328 C130.630551,10.5036554 130.547438,10.5808779 130.467403,10.6581005" id="Fill-2029" fill="#E4E5E8"></path>
                <path d="M131.459374,9.06685285 C131.476304,8.99580812 131.499391,8.92630783 131.511704,8.85371865 C131.499391,8.92630783 131.476304,8.99580812 131.459374,9.06685285" id="Fill-2031" fill="#E4E5E8"></path>
                <path d="M130.014283,11.0395798 C130.123561,10.9561795 130.234378,10.8774125 130.332883,10.7909232 C130.234378,10.8774125 130.123561,10.9561795 130.014283,11.0395798" id="Fill-2033" fill="#E4E5E8"></path>
                <path d="M130.825867,10.2749222 C130.885893,10.2007886 130.952076,10.1251105 131.005945,10.0494324 C130.952076,10.1251105 130.885893,10.2007886 130.825867,10.2749222" id="Fill-2035" fill="#E4E5E8"></path>
                <path d="M131.109221,9.88124173 C131.153856,9.80556365 131.203108,9.73297446 131.243126,9.65884083 C131.203108,9.73297446 131.153856,9.80556365 131.109221,9.88124173" id="Fill-2037" fill="#E4E5E8"></path>
                <path d="M129.895462,11.134718 C129.73847,11.2459184 129.569166,11.3571189 129.387548,11.4590526 C129.569166,11.3571189 129.73847,11.2459184 129.895462,11.134718" id="Fill-2039" fill="#E4E5E8"></path>
                <path d="M131.530789,8.65355783 C131.536946,8.58405755 131.546181,8.51455726 131.546181,8.44505698 C131.546181,8.51455726 131.536946,8.58405755 131.530789,8.65355783" id="Fill-2041" fill="#E4E5E8"></path>
                <polygon id="Fill-2043" fill="#E4E5E8" points="129.388164 11.4588982 129.388164 11.4588982 103.695431 26.345859"></polygon>
                <path d="M111.161299,12.8963185 C110.18395,12.3310495 108.601722,12.3310495 107.624373,12.8963185 C107.387347,13.0322302 107.207269,13.1913086 107.085677,13.3627426 C106.705512,12.8345405 106.884051,12.2044046 107.624373,11.7750472 C108.601722,11.2097783 110.18395,11.2097783 111.161299,11.7750472 C111.901622,12.2044046 112.080161,12.8345405 111.698456,13.3627426 C111.575326,13.1913086 111.399865,13.0322302 111.161299,12.8963185" id="Fill-2045" fill="#88898A"></path>
                <path d="M93.9708862,36.6090431 C93.9616514,36.6183098 93.9524166,36.6275765 93.9416427,36.6352988 C93.9524166,36.6275765 93.9616514,36.6183098 93.9708862,36.6090431" id="Fill-2047" fill="#9C9D9E"></path>
                <path d="M93.2253306,34.9649753 L93.2453393,42.2161716 C94.685967,41.3806237 95.4062808,40.2856081 95.4032026,39.1905925 L95.3831938,31.9393963 C95.384733,33.0344118 94.6659583,34.1294274 93.2253306,34.9649753" id="Fill-2050" fill="#9C9D9E"></path>
                <path d="M39.5188537,35.6256913 L39.5404016,42.8768876 C39.5404016,43.4452455 39.7374105,44.0151478 40.1314283,44.5464389 L40.1114196,37.2952426 C39.7174018,36.7624071 39.5188537,36.1940492 39.5188537,35.6256913" id="Fill-2053" fill="#9C9D9E"></path>
                <path d="M40.1109579,37.2952426 L40.1325057,44.5464389 C40.4834279,45.0221297 40.9944197,45.4715649 41.6639422,45.8607664 L41.6454726,38.6095702 C40.9728719,38.2203686 40.4634191,37.7709334 40.1109579,37.2952426" id="Fill-2056" fill="#BCBCBE"></path>
                <polygon id="Fill-2060" fill="#BABBBC" points="41.644857 38.6089524 41.6633266 45.8601487 59.0847632 56.0180013 59.0647545 48.766805"></polygon>
                <polygon id="Fill-2062" fill="#88898A" points="69.4011042 48.7671139 69.4226521 56.0183101 93.2453393 42.2170982 93.2253306 34.9643575"></polygon>
                <path d="M59.0646006,48.7671139 L59.0846093,56.0183101 C60.4867587,56.8384135 62.3244825,57.2507818 64.1668236,57.2631375 L64.1483541,50.0119412 C62.3044737,50.0026745 60.4698282,49.5856728 59.0646006,48.7671139" id="Fill-2065" fill="#BCBCBE"></path>
                <path d="M64.1486619,50.0113234 L64.1671315,57.2625197 C66.0648814,57.2764197 67.9672487,56.8609625 69.4217286,56.0192368 L69.4017199,48.7664961 C67.94724,49.6082217 66.0448727,50.0252235 64.1486619,50.0113234" id="Fill-2068" fill="#9C9D9E"></path>
                <path d="M41.6771787,32.6001123 C38.8097756,34.2619413 38.7974625,36.9508301 41.644857,38.6095702 L59.0647545,48.7674228 C61.9090707,50.4277073 66.5357019,50.4277073 69.401566,48.7674228 L93.2257923,34.9646664 C96.087039,33.3059263 96.1039694,30.6170375 93.2596532,28.9598419 L75.8366774,18.7958115 C72.9923612,17.1386158 68.3641909,17.1386158 65.4983268,18.7958115 L41.6771787,32.6001123 Z" id="Fill-2072" fill="#F8F9FC"></path>
                <path d="M64.2239254,48.1592181 C65.8338577,48.1592181 67.3837637,47.7962721 68.4765475,47.1615029 L92.3007739,33.360291 C93.0611052,32.9216669 93.536697,32.3780203 93.536697,31.9455741 C93.536697,31.523939 93.0780356,30.9957369 92.3315565,30.5586573 L74.9101199,20.3992602 C73.82811,19.7675799 72.2858996,19.4077229 70.6759674,19.4077229 C69.0660351,19.4077229 67.51459,19.7722132 66.4233453,20.4038936 L42.600658,34.2051055 C41.8403268,34.6437295 41.3647349,35.1889206 41.3647349,35.6167335 C41.3647349,36.039913 41.8264746,36.5727485 42.5698754,37.0051947 L59.9928512,47.1676807 C61.0748611,47.7978166 62.6170715,48.1592181 64.2239254,48.1592181" id="Fill-2074" fill="#26157F"></path>
                <path d="M0.861703134,67.4392146 L0.867859663,69.5535676 C0.867859663,70.1219255 1.06640771,70.6902834 1.46042554,71.2231189 L1.45426901,69.1087658 C1.06025118,68.5759303 0.861703134,68.0075724 0.861703134,67.4392146" id="Fill-2077" fill="#9C9D9E"></path>
                <path d="M1.45380727,69.1089203 L1.4599638,71.2232734 C1.81242506,71.7020531 2.32187779,72.1468549 2.99293941,72.5376009 L2.98678288,70.4232479 C2.31879953,70.0325018 1.80626853,69.5877 1.45380727,69.1089203" id="Fill-2080" fill="#BCBCBE"></path>
                <polygon id="Fill-2084" fill="#BABBBC" points="2.98616722 70.4226301 2.99232375 72.5369832 10.2077752 76.7456115 10.2016187 74.6312584"></polygon>
                <polygon id="Fill-2086" fill="#88898A" points="20.5336588 74.6306406 20.5413545 76.7449937 59.0843015 54.4153247 59.0796841 52.3009716"></polygon>
                <path d="M10.2016187,74.6306406 L10.2077752,76.7449937 C11.6114637,77.5635526 13.4476484,77.9774654 15.2930678,77.989821 L15.2869113,75.8739235 C13.443031,75.8631123 11.6053072,75.4491995 10.2016187,74.6306406" id="Fill-2089" fill="#BCBCBE"></path>
                <path d="M15.2864495,75.8734601 L15.2926061,77.9893577 C17.1857386,78.0001688 19.0911842,77.586256 20.5410467,76.7445303 L20.533351,74.6301773 C19.0834885,75.4719029 17.1795821,75.8842713 15.2864495,75.8734601" id="Fill-2092" fill="#9C9D9E"></path>
                <path d="M3.018489,64.41518 L41.3321053,42.2167893 L58.9844118,52.3530196 L20.5338127,74.6301773 C17.6725661,76.2889174 13.047474,76.2889174 10.2016187,74.6301773 L2.98616722,70.4230934 C0.141851033,68.7612644 0.155703223,66.0723757 3.018489,64.41518" id="Fill-2096" fill="#F8F9FC"></path>
                <path d="M80.6424636,31.6272628 C80.8410117,31.7430966 81.0380206,31.8666526 81.2334904,31.9994754 C83.3621101,33.4497146 83.9808412,35.681446 81.0010814,38.079978 C75.9003975,42.188217 63.4796011,39.7618849 57.7524904,39.3016385 C56.9413678,35.9733472 52.7287632,28.7638511 59.7810666,25.78615 C63.2579661,24.3142885 66.6763786,24.2308881 69.0204768,25.0957805 C69.6022688,25.3104592 70.1009476,25.5452157 70.5303655,25.7969612 C73.6070906,27.5777129 73.0499248,30.0380229 72.8929333,30.4720136 C73.6948211,30.3731688 77.2794599,29.6812548 80.6424636,31.6272628" id="Fill-2098" fill="#FF695B"></path>
                <path d="M72.286977,27.9079165 L63.8617676,35.6100924 L73.6829698,32.7837475 L70.6308708,35.793882 L73.9046048,34.8533115 L72.7918123,36.359151 L73.7183699,36.2973729 L79.416237,39.4882082 C79.5578372,39.5700641 79.5609155,39.7013424 79.4177762,39.7847427 C79.2807934,39.8619653 79.0530019,39.8635097 78.9129408,39.7831983 L73.6306393,36.7220969 L71.6451589,36.8518308 L72.473212,35.7274706 L68.793147,36.7854194 L71.8406287,33.7783738 L61.8793655,36.6464188 L70.2353138,29.0075654 L61.0251471,31.8292769 L62.3272529,30.1736257 L57.0557253,27.1187021 C56.9141252,27.0383907 56.9141252,26.9055679 57.0526471,26.8268009 C57.1927081,26.7434006 57.4189605,26.7434006 57.5590215,26.8268009 L63.0060102,29.9805694 L62.5473488,30.8902509 L72.286977,27.9079165 Z" id="Fill-2100" fill="#FFFFFF"></path>
            </g>
        </g>
    </g>
</svg>