<?xml version="1.0" encoding="UTF-8"?>
<svg width="54px" height="83px" viewBox="0 0 54 83" version="1.1" xmlns="http://www.w3.org/2000/svg" xmlns:xlink="http://www.w3.org/1999/xlink">
    <!-- Generator: Sketch 52.4 (67378) - http://www.bohemiancoding.com/sketch -->
    <title>Group 8</title>
    <desc>Created with Sketch.</desc>
    <g id="Desktop-Website" stroke="none" stroke-width="1" fill="none" fill-rule="evenodd">
        <g id="Business-Solutions" transform="translate(-1330.000000, -418.000000)">
            <g id="Group-8" transform="translate(1330.000000, 418.000000)">
                <path d="M10.6438813,82.0722061 L1.47492895,76.7961814 C0.646595703,76.321002 0.132564604,75.306264 0.129468031,73.8669301 L9.29842034,79.1414219 C9.30151692,80.5807558 9.81554801,81.593961 10.6438813,82.0722061" id="Fill-2742" fill="#AAB8C5"></path>
                <path d="M48.9398174,5.90339411 L39.7708651,0.627369475 C41.0543946,-0.106859404 42.2171577,-0.174304228 43.0578772,0.308539398 L52.2268296,5.5830312 C51.3876583,5.10172041 50.2233469,5.16916523 48.9398174,5.90339411" id="Fill-2745" fill="#C5D3DE"></path>
                <polygon id="Fill-2748" fill="#BCC8D3" points="9.29826551 79.1412686 0.129313203 73.8683097 0.000805427977 28.6174313 9.16975774 33.8919231"></polygon>
                <polygon id="Fill-2750" fill="#D1DCE6" points="13.7661557 26.00701 4.59720339 20.7325182 39.7696265 0.626296489 48.9401271 5.90385397"></polygon>
                <path d="M9.1689836,33.8926895 L3.12847509e-05,28.6181977 C-0.0092584339,25.7165374 2.05151082,22.186414 4.59689373,20.7317518 L13.765846,26.0062436 C11.2220114,27.4624387 9.15969388,30.9910292 9.1689836,33.8926895" id="Fill-2753" fill="#C5D3DE"></path>
                <path d="M48.9398174,5.90339411 C51.4882969,4.44566621 53.5630008,5.6121551 53.5707422,8.51228253 L53.7007983,53.7631609 C53.7085397,56.6632883 51.6493187,60.1903461 49.0992909,61.648074 L13.9268678,81.75123 C11.3799366,83.2089579 9.30678109,82.042469 9.29749137,79.1408088 L9.1689836,33.8929961 C9.15969388,30.9913358 11.2220114,27.4612124 13.765846,26.0065502 L48.9398174,5.90339411 Z" id="Fill-2756" fill="#F8F8F8"></path>
                <path d="M44.4824556,15.5584272 C46.3837514,14.4716459 47.9289412,15.3422972 47.9335861,17.5051301 L48.0311281,45.7415188 C48.0373213,47.9043517 46.5029694,50.533167 44.6016737,51.6184155 L18.3845393,66.604962 C16.4847919,67.6902105 14.939602,66.821092 14.9349571,64.6597919 L14.8374151,36.4218704 C14.8312219,34.2590375 16.3686704,31.6286894 18.2653213,30.5449737 L44.4824556,15.5584272 Z" id="Fill-2758" fill="#4D39B9"></path>
                <path d="M34.7731513,62.7320962 L32.7077372,61.5441476 C35.1726092,60.1339377 37.2875685,59.6327 38.1592538,60.1339377 L40.2231196,61.3218863 C39.3529826,60.8191158 37.2380233,61.3218863 34.7731513,62.7320962" id="Fill-2761" fill="#D83736"></path>
                <path d="M29.3383563,69.5820378 L27.2729421,68.3940892 C26.9988954,68.236207 26.8456151,67.9771576 26.8456151,67.6184737 C26.8409702,66.1162936 29.466864,63.395508 32.7074276,61.5438411 L34.7728417,62.7317897 C31.5322781,64.5834566 28.904836,67.305775 28.9110292,68.8064223 C28.9110292,69.166639 29.0627613,69.4241556 29.3383563,69.5820378" id="Fill-2764" fill="#D83736"></path>
                <path d="M34.7731513,62.7320962 C38.0137148,60.8788964 40.6442535,60.5937887 40.6488984,62.0944361 C40.6535432,63.5996819 38.0291977,66.3220003 34.7886342,68.1752001 C31.5465224,70.0283999 28.9144354,70.3104419 28.9097906,68.8067289 C28.9051457,67.3045487 31.5310395,64.5837632 34.7731513,62.7320962" id="Fill-2767" fill="#FE534F"></path>
                <polygon id="Fill-2769" fill="#F8F8F8" points="33.3769066 28.2492438 34.2888473 27.0229743 35.7504297 26.189111 35.7504297 32.5580484 34.2749127 33.4011087 34.2749127 28.6324531 33.3769066 29.3206968"></polygon>
                <path d="M36.2616739,26.0698563 C36.8856333,25.5578888 37.4786271,25.1133661 38.5748139,24.4864358 C39.7623496,23.8089219 40.3088947,24.3668745 40.3088947,25.5854799 C40.3088947,26.7856912 39.1832904,28.5929059 38.7126113,29.3516602 L40.3088947,28.4380894 L40.3088947,29.9509994 L36.3220571,32.2318607 L36.3220571,30.7680015 C36.9382751,29.9464009 38.8333777,27.1060541 38.8333777,26.4530656 C38.8333777,25.922704 38.5825553,26.0054772 37.9663373,26.3564968 L36.2616739,27.3329139 L36.2616739,26.0698563 Z" id="Fill-2771" fill="#F8F8F8"></path>
                <path d="M42.7314985,27.0533245 L43.0519938,26.8709169 C43.3028162,26.7268302 43.4777725,26.5904077 43.4777725,26.1213597 L43.4777725,23.7914476 C43.4777725,23.3898443 43.3167507,23.3775816 43.1123769,23.49561 L42.6788567,23.7423968 C42.2824954,23.9677238 42.2979783,24.350933 42.2979783,24.4658958 L42.2979783,26.7881437 C42.2979783,27.2755858 42.5642835,27.1483604 42.7314985,27.0533245 Z M40.820913,25.0483738 C40.820913,23.9171402 41.3457821,22.9897738 42.2979783,22.4456167 L43.5458971,21.7313147 C44.6498254,21.1013188 44.9548378,21.6929938 44.9548378,22.5989004 L44.9548378,25.6262533 C44.9548378,26.6609182 44.4516447,27.5852189 43.5381557,28.1063835 L42.2902368,28.8176198 C41.3008818,29.3847694 40.820913,29.0337498 40.820913,27.988355 L40.820913,25.0483738 Z" id="Fill-2773" fill="#F8F8F8"></path>
                <path d="M37.0706536,40.740945 L37.2007096,40.6673688 C37.451532,40.5232821 37.5273981,40.4006552 37.5273981,40.0787594 L37.5273981,39.9055488 C37.5273981,39.5315366 37.5212049,39.4319022 37.2378685,39.5928501 L36.462177,40.03584 C36.462177,40.9586078 36.5767502,41.0245198 37.0706536,40.740945 M36.2965104,36.3110463 C37.056719,35.7362324 38.1141986,35.2809799 38.8217655,35.0510543 L38.8217655,36.3386374 L37.154261,37.2905291 C36.462177,37.6875338 36.462177,38.1565819 36.462177,38.7927092 C36.7455134,38.466215 36.9870461,38.3083328 37.6264884,37.9435176 C38.7381581,37.3089231 39.0044633,37.8515474 39.0044633,38.8003734 L39.0044633,39.5928501 C39.0044633,40.7225509 38.4331456,41.4751738 37.5506224,41.98101 L36.4993359,42.5803492 C35.5719123,43.1107108 34.9851117,42.8378658 34.9851117,40.0971535 C34.9851117,37.7902339 35.6183609,36.8199481 36.2965104,36.3110463" id="Fill-2775" fill="#F8F8F8"></path>
                <path d="M39.57671,39.2919542 L41.5863858,38.1438594 C42.0586132,37.8740801 42.0353889,37.5997023 42.0353889,37.4249589 L42.0353889,37.1551796 C42.0353889,36.8685391 41.9595228,36.7367151 41.6699933,36.9022615 L41.3340151,37.0938661 C41.0909342,37.2333543 40.9995853,37.4080977 40.9995853,37.6763441 L39.5829032,38.4887477 L39.7516664,34.3439567 L43.2755663,32.329809 L43.2755663,33.8442518 L41.1900245,35.036799 L41.1590588,35.9411727 C41.3572394,35.6882547 41.5554201,35.5502993 41.6545104,35.4859202 C41.8526911,35.3540962 42.1344792,35.2023454 42.2320213,35.1548274 C43.1145445,34.7363629 43.5124541,35.2069439 43.5124541,36.1297117 L43.5124541,36.9467138 C43.5124541,38.137728 42.7119901,39.0574302 41.965716,39.4835588 C41.0228095,40.0231174 40.5970308,40.2576415 39.57671,40.6408507 L39.57671,39.2919542 Z" id="Fill-2777" fill="#F8F8F8"></path>
                <polygon id="Fill-2779" fill="#F8F8F8" points="34.8593909 47.5849085 38.5210883 45.4925861 38.8771942 45.9662327 37.1338237 52.6540001 35.5669578 53.5507097 37.0734405 47.833228 34.8593909 49.0978185"></polygon>
                <path d="M41.2075201,48.8108714 L41.5295637,48.6284638 C41.7803861,48.4843772 41.9537942,48.3494875 41.9537942,47.8804394 L41.9537942,45.5474616 C41.9537942,45.148924 41.7943207,45.1351285 41.5899469,45.253157 L41.1548784,45.4999437 C40.7585171,45.7268036 40.7739999,46.1100128 40.7739999,46.2249756 L40.7739999,48.5456906 C40.7739999,49.0331328 41.0418535,48.9059073 41.2075201,48.8108714 Z M39.2984829,46.8043879 C39.2984829,45.6746871 39.823352,44.7488536 40.7739999,44.2031637 L42.0219188,43.4903945 C43.125847,42.8588657 43.4308595,43.4520736 43.4308595,44.3564474 L43.4308595,47.3838003 C43.4308595,48.4184652 42.9276664,49.341233 42.0157256,49.8639304 L40.7678068,50.5766995 C39.7769034,51.1423164 39.2984829,50.7912967 39.2984829,49.7459019 L39.2984829,46.8043879 Z" id="Fill-2781" fill="#F8F8F8"></path>
                <path d="M21.6830088,53.1998433 C20.970797,53.7884527 20.3638687,54.895161 20.1889123,56.2777799 C19.8374513,59.0736744 22.9278311,59.0445505 24.1432359,59.397103 L24.1231082,52.9438596 C23.997697,52.7967072 23.1260117,52.0026977 21.6830088,53.1998433" id="Fill-2783" fill="#FE534F"></path>
                <path d="M28.0621037,51.7477869 C27.8453436,50.3575039 27.0154621,50.1459724 26.1592597,50.5598383 C24.7348362,51.2450164 24.2471259,52.6552264 24.123263,52.9433997 L24.1433908,59.3966431 C25.3510542,57.6507419 28.4321442,54.1267498 28.0621037,51.7477869" id="Fill-2785" fill="#FE534F"></path>
                <polygon id="Fill-2787" fill="#FDBC4F" points="18.5985125 49.3498169 18.62793 37.2664635 25.5116115 33.3561966 25.4837423 45.4334186"></polygon>
                <polygon id="Fill-2789" fill="#FDBC4F" points="21.1273288 36.7382479 21.1335219 32.5076181 23.0193348 31.4376979 23.0084968 35.6698606"></polygon>
                <polygon id="Fill-2791" fill="#FDBC4F" points="26.243951 30.4946966 17.9079768 35.2311627 17.9141699 33.0790597 26.2454993 28.3425936"></polygon>
                <path d="M22.6530102,41.0553298 C23.0261473,40.8437983 23.1577516,40.4391294 23.1623965,39.8627827 C23.1623965,39.295633 23.0013747,39.1055613 22.6561068,39.3032972 L21.549082,39.9317603 L21.5459854,41.6822601 L22.6530102,41.0553298 Z M19.6384965,39.1530792 L22.8589323,37.3213391 C23.8668668,36.7495909 25.0915614,36.335725 25.0869165,38.7330819 C25.0776268,41.3925539 23.7538419,42.359774 22.8449977,42.7996982 C22.451733,42.9913028 21.5908857,43.3208628 21.5413406,43.3162642 L21.5335991,46.3436171 L19.6199171,47.4334642 L19.6384965,39.1530792 Z" id="Fill-2793" fill="#4D39B9"></path>
                <path d="M45.6927511,55.4302743 L44.6445612,54.8248038 C45.4094147,54.3879452 46.103047,54.3496243 46.6015953,54.6362648 L47.6513335,55.2417354 C47.1496887,54.9535621 46.4560563,54.9934158 45.6927511,55.4302743" id="Fill-2796" fill="#051E2E"></path>
                <path d="M43.7468647,61.8983862 L42.6986748,61.2944485 C42.2032231,61.0108737 41.8966624,60.4023374 41.8935658,59.5439487 C41.8904693,57.811843 43.1182604,55.6980609 44.6448708,54.8258767 L45.6930608,55.4298145 C44.1679986,56.3019987 42.9386592,58.4157808 42.9417558,60.1448208 C42.9448523,61.0062752 43.2514131,61.6117457 43.7468647,61.8983862" id="Fill-2799" fill="#051E2E"></path>
                <path d="M45.6927511,55.4302743 C47.2147167,54.559623 48.4533458,55.2616623 48.4564424,56.993768 C48.4626356,58.722808 47.2332961,60.8365901 45.7113306,61.7072415 C44.1862684,62.5794257 42.946091,61.8773864 42.9414461,60.1452807 C42.9383495,58.4147078 44.1692373,56.3009257 45.6927511,55.4302743" id="Fill-2802" fill="#02314B"></path>
                <path d="M21.9082844,68.1868496 L20.8616428,67.5829119 C21.624948,67.1445206 22.3185804,67.1077325 22.8171286,67.394373 L23.8668668,67.9983107 C23.365222,67.7101374 22.6715897,67.7499911 21.9082844,68.1868496" id="Fill-2804" fill="#051E2E"></path>
                <path d="M19.962398,74.6564944 L18.9142081,74.0510238 C18.4187565,73.767449 18.113744,73.1604456 18.1075509,72.3005241 C18.1060026,70.5699512 19.3337937,68.4561691 20.8619525,67.5839849 L21.9085941,68.1863898 C20.3850802,69.058574 19.1541925,71.1738889 19.1557408,72.9013961 C19.1603857,73.7643833 19.4684947,74.3698539 19.962398,74.6564944" id="Fill-2807" fill="#051E2E"></path>
                <path d="M21.0601904,68.1547187 C22.582156,67.2840673 23.8207851,67.9876394 23.8238817,69.7197452 C23.8300749,71.4487852 22.6007354,73.5625673 21.0787699,74.4332186 C19.5521594,75.30387 18.3135303,74.6033635 18.3088854,72.869725 C18.3057888,71.140685 19.5366766,69.02537 21.0601904,68.1547187" id="Fill-2810" fill="#02314B"></path>
            </g>
        </g>
    </g>
</svg>