<?xml version="1.0" encoding="UTF-8"?>
<svg width="16px" height="16px" viewBox="0 0 16 16" version="1.1" xmlns="http://www.w3.org/2000/svg" xmlns:xlink="http://www.w3.org/1999/xlink">
    <!-- Generator: Sketch 52.4 (67378) - http://www.bohemiancoding.com/sketch -->
    <title>Icons / Close</title>
    <desc>Created with Sketch.</desc>
    <g id="Mobile-Website" stroke="none" stroke-width="1" fill="none" fill-rule="evenodd">
        <g id="Mobile-Navigation-Menu" transform="translate(-328.000000, -23.000000)">
            <g id="Icons-/-Close" transform="translate(324.000000, 19.000000)">
                <g id="Icon">
                    <rect id="Path" fill-rule="nonzero" x="0" y="0" width="24" height="24"></rect>
                    <path d="M10.5857864,12 L4.29289322,5.70710678 C3.90236893,5.31658249 3.90236893,4.68341751 4.29289322,4.29289322 C4.68341751,3.90236893 5.31658249,3.90236893 5.70710678,4.29289322 L12,10.5857864 L18.2928932,4.29289322 C18.6834175,3.90236893 19.3165825,3.90236893 19.7071068,4.29289322 C20.0976311,4.68341751 20.0976311,5.31658249 19.7071068,5.70710678 L13.4142136,12 L19.7071068,18.2928932 C20.0976311,18.6834175 20.0976311,19.3165825 19.7071068,19.7071068 C19.3165825,20.0976311 18.6834175,20.0976311 18.2928932,19.7071068 L12,13.4142136 L5.70710678,19.7071068 C5.31658249,20.0976311 4.68341751,20.0976311 4.29289322,19.7071068 C3.90236893,19.3165825 3.90236893,18.6834175 4.29289322,18.2928932 L10.5857864,12 Z" id="Color" fill="#FFFFFF" fill-rule="nonzero"></path>
                </g>
            </g>
        </g>
    </g>
</svg>