<?xml version="1.0" encoding="UTF-8"?>
<svg width="90px" height="90px" viewBox="0 0 90 90" version="1.1" xmlns="http://www.w3.org/2000/svg" xmlns:xlink="http://www.w3.org/1999/xlink">
    <!-- Generator: Sketch 52.4 (67378) - http://www.bohemiancoding.com/sketch -->
    <title>Group 4</title>
    <desc>Created with Sketch.</desc>
    <g id="Desktop-Website" stroke="none" stroke-width="1" fill="none" fill-rule="evenodd">
        <g id="Homepage" transform="translate(-159.000000, -4088.000000)">
            <g id="Group-4" transform="translate(159.000000, 4088.000000)">
                <circle id="Oval" fill="#818797" opacity="0.100000001" cx="45" cy="45" r="45"></circle>
                <path d="M61.3996683,72.8410218 C61.3996683,67.6936752 54.0856976,63.4729426 45.0080341,63.4729426 C35.9822634,63.4729426 28.6164,67.6423129 28.6164,72.8410218 C28.6164,75.620602 35.9303707,77.8853822 45.0080341,77.8853822 C54.0339366,77.8853822 61.3996683,75.620602 61.3996683,72.8410218 Z" id="Path" fill="#E4E7E7" fill-rule="nonzero"></path>
                <path d="M45.0080341,63.4729426 C40.443322,63.4729426 36.3453805,64.553905 33.3885512,66.2525228 C35.2558976,68.2084752 39.7688488,69.5467723 45.0080341,69.5467723 C50.2472195,69.5467723 54.760039,68.1569822 56.6275171,66.2525228 C53.6706878,64.5024119 49.5727463,63.4729426 45.0080341,63.4729426 Z" id="Path" fill="#B6B9B9" fill-rule="nonzero"></path>
                <path d="M45.0080341,12 C59.895439,12 71.9816927,23.9931802 71.9816927,38.7659406 C71.9816927,53.538701 59.895439,65.5318812 45.0080341,65.5318812 C30.1206293,65.5318812 18.0343756,53.538701 18.0343756,38.7659406 C18.0343756,23.9931802 30.1206293,12 45.0080341,12 Z" id="Path" fill="#E4E7E7" fill-rule="nonzero"></path>
                <path d="M45.0080341,15.0884079 C46.149278,15.0884079 47.0829512,16.0148911 47.0829512,17.1473465 C47.0829512,18.279802 46.149278,19.2062851 45.0080341,19.2062851 C43.8667902,19.2062851 42.9331171,18.279802 42.9331171,17.1473465 C42.9331171,16.0148911 43.8667902,15.0884079 45.0080341,15.0884079 Z" id="Path" fill="#E2574C" fill-rule="nonzero"></path>
                <path d="M45.0080341,22.2945624 C35.8265854,22.2945624 28.4088293,29.655196 28.4088293,38.7659406 C28.4088293,47.8766851 35.8265854,55.2373188 45.0080341,55.2373188 C54.1894829,55.2373188 61.607239,47.8766851 61.607239,38.7659406 C61.607239,29.655196 54.1893512,22.2945624 45.0080341,22.2945624 Z" id="Path" fill="#4D39B9" fill-rule="nonzero"></path>
                <path d="M45.0080341,26.4124396 C38.1089415,26.4124396 32.5586634,31.9714693 32.5586634,38.7659406 C32.5586634,45.611905 38.1090732,51.1194416 45.0080341,51.1194416 C51.9069951,51.1194416 57.4574049,45.6117743 57.4574049,38.7659406 C57.4574049,31.9201069 51.9071268,26.4124396 45.0080341,26.4124396 Z" id="Path" fill="#233640" fill-rule="nonzero"></path>
                <path d="M45.0080341,29.5008475 C39.8726341,29.5008475 35.671039,33.6702178 35.671039,38.7659406 C35.671039,43.8616634 39.8727659,48.0310337 45.0080341,48.0310337 C50.1433024,48.0310337 54.3450293,43.8616634 54.3450293,38.7659406 C54.3450293,33.6702178 50.1434341,29.5008475 45.0080341,29.5008475 Z" id="Path" fill="#2B414D" fill-rule="nonzero"></path>
                <path d="M45.0080341,34.1333941 C42.4144537,34.1333941 40.3395366,36.1923327 40.3395366,38.7659406 C40.3395366,41.3395485 42.4144537,43.3984871 45.0080341,43.3984871 C47.6016146,43.3984871 49.6765317,41.3395485 49.6765317,38.7659406 C49.6765317,36.1923327 47.6016146,34.1333941 45.0080341,34.1333941 Z" id="Path" fill="#233640" fill-rule="nonzero"></path>
                <path d="M43.7111122,36.1923327 C44.4373463,36.1923327 45.0079024,36.758495 45.0079024,37.4791366 C45.0079024,38.1997782 44.4373463,38.7659406 43.7111122,38.7659406 C42.984878,38.7659406 42.414322,38.1997782 42.414322,37.4791366 C42.414322,36.758495 42.9850098,36.1923327 43.7111122,36.1923327 Z" id="Path" fill="#5A6870" fill-rule="nonzero"></path>
                <path d="M45.0080341,60.3845347 C31.0025415,60.3845347 19.4868439,49.7811446 18.138161,36.192202 C18.0343756,37.0158297 18.0343756,37.8908198 18.0343756,38.7658099 C18.0343756,53.5385703 30.1206293,65.5317505 45.0080341,65.5317505 C59.895439,65.5317505 71.9816927,53.5385703 71.9816927,38.7658099 C71.9816927,37.8908198 71.9298,37.015699 71.8779073,36.192202 C70.5292244,49.7811446 59.0135268,60.3845347 45.0080341,60.3845347 Z" id="Path" fill="#D2D5D5" fill-rule="nonzero"></path>
            </g>
        </g>
    </g>
</svg>