<?xml version="1.0" encoding="UTF-8"?>
<svg width="90px" height="90px" viewBox="0 0 90 90" version="1.1" xmlns="http://www.w3.org/2000/svg" xmlns:xlink="http://www.w3.org/1999/xlink">
    <!-- Generator: Sketch 52.4 (67378) - http://www.bohemiancoding.com/sketch -->
    <title>Group 5</title>
    <desc>Created with Sketch.</desc>
    <g id="Desktop-Website" stroke="none" stroke-width="1" fill="none" fill-rule="evenodd">
        <g id="Homepage" transform="translate(-159.000000, -4914.000000)">
            <g id="Group-5" transform="translate(159.000000, 4914.000000)">
                <g id="transparency-(1)" transform="translate(15.000000, 15.000000)" fill-rule="nonzero">
                    <path d="M38.4375,0 C26.5478906,0 16.875,9.67289063 16.875,21.5625 C16.875,33.4521094 26.5478906,43.125 38.4375,43.125 C50.3271094,43.125 60,33.4521094 60,21.5625 C60,9.67289063 50.3271094,0 38.4375,0 Z" id="Path" fill-opacity="0.130791084" fill="#4D39B9"></path>
                    <path d="M21.5625,16.875 C9.67289063,16.875 0,26.5478906 0,38.4375 C0,50.3271094 9.67289063,60 21.5625,60 C33.4521094,60 43.125,50.3271094 43.125,38.4375 C43.125,26.5478906 33.4521094,16.875 21.5625,16.875 Z" id="Path" fill="#EDEBEC"></path>
                    <path d="M24.375,58.125 C12.4853906,58.125 2.8125,48.4521094 2.8125,36.5625 C2.8125,29.6905078 6.04394531,23.5590234 11.0669531,19.6078125 C4.47011719,23.2993359 0,30.3556641 0,38.4375 C0,50.3271094 9.67289062,60 21.5625,60 C26.5801172,60 31.2029297,58.2772266 34.8705469,55.3921875 C31.7623828,57.1314844 28.1827734,58.125 24.375,58.125 Z" id="Path" fill="#DCD7D8"></path>
                    <path d="M21.5625,16.875 C20.1032813,16.875 18.6778125,17.0214844 17.2991016,17.2991016 C17.0214844,18.6778125 16.875,20.1032813 16.875,21.5625 C16.875,33.4521094 26.5478906,43.125 38.4375,43.125 C39.8967188,43.125 41.3221875,42.9785156 42.7008984,42.7008984 C42.9785156,41.3221875 43.125,39.8967188 43.125,38.4375 C43.125,26.5478906 33.4521094,16.875 21.5625,16.875 Z" id="Path" fill="#AEB5CA"></path>
                    <path d="M60,21.5625 C60,20.2412109 59.8782422,18.9130078 59.638125,17.6150391 C59.638125,17.6149219 59.638125,17.6148047 59.638125,17.6148047 C59.3027344,15.8032031 58.7340234,14.0395312 57.9475781,12.3727734 C57.9474609,12.3724219 57.9472266,12.3721875 57.9469922,12.3718359 C57.2317969,10.8558984 56.3364844,9.42105469 55.2858984,8.10714844 C55.2854297,8.1065625 55.2850781,8.10597656 55.2846094,8.10539062 C54.2617969,6.82675781 53.0935547,5.66378906 51.8119922,4.64917969 C50.4926953,3.60445312 49.0505859,2.71488281 47.525625,2.00507812 C45.8471484,1.22378906 44.0755078,0.662929687 42.2600391,0.338085937 C41.0064844,0.113789062 39.7203516,0 38.4375,0 C37.4508984,0 36.4508203,0.0690234375 35.4649219,0.204960938 C25.9525781,1.51722656 18.3923438,9.07746094 17.0799609,18.5899219 L17.0799609,18.5901562 C16.9439062,19.5758203 16.875,20.5760156 16.875,21.5625 C16.875,22.8455859 16.9887891,24.1317188 17.2130859,25.3850391 C17.5379297,27.2003906 18.0987891,28.9720313 18.8800781,30.650625 C19.5898828,32.1755859 20.4793359,33.6176953 21.5240625,34.9369922 C22.5380859,36.2177344 23.7007031,37.3857422 24.9794531,38.4086719 C24.9798047,38.4089063 24.9801563,38.4092578 24.9805078,38.4096094 C26.2947656,39.4606641 27.7304297,40.3565625 29.2478906,41.0725781 C30.9147656,41.8590234 32.6783203,42.4277344 34.4898047,42.763125 C34.4900391,42.763125 34.4901562,42.763125 34.4903906,42.763125 C35.788125,43.0032422 37.1162109,43.125 38.4375,43.125 C39.3697266,43.125 40.3113281,43.0641797 41.2364063,42.9442969 C41.2364063,42.9442969 41.2365234,42.9442969 41.2366406,42.9442969 C50.9217188,41.6881641 58.5632813,34.0467188 59.8192969,24.3616406 L59.8192969,24.3614063 C59.9391797,23.4364453 60,22.4947266 60,21.5625 Z M34.3511719,40.824375 C33.3069141,40.6038281 32.2819922,40.2978516 31.2878906,39.9103125 L56.7853125,14.4130078 C57.1728516,15.4069922 57.4789453,16.4320312 57.699375,17.4761719 L34.3511719,40.824375 Z M26.9894531,37.5796875 L54.4545703,10.1145703 C55.0173047,10.9005469 55.5215625,11.7268359 55.9620703,12.5844141 L29.4594141,39.0870703 C28.6016016,38.6465625 27.7751953,38.1420703 26.9894531,37.5796875 Z M20.8648828,30.4458984 L47.3208984,3.98988281 C48.1831641,4.42652344 49.0133203,4.92703125 49.8024609,5.48566406 L22.3606641,32.9274609 C21.8020313,32.1383203 21.3016406,31.3080469 20.8648828,30.4458984 Z M19.1501953,25.5315234 L42.4065234,2.27519531 C43.4540625,2.48976563 44.4837891,2.79082031 45.4842187,3.17484375 L20.0498438,28.6093359 C19.6659375,27.6089063 19.3648828,26.5789453 19.1501953,25.5315234 Z M40.0865625,1.94332031 L39.0128906,3.01699219 L18.8183203,23.2116797 C18.7728516,22.6635938 18.75,22.1128125 18.75,21.5625 C18.75,20.7641016 18.7994531,19.9560938 18.8971875,19.1553516 L36.0304687,2.0221875 C37.3829297,1.85707031 38.7437109,1.831875 40.0865625,1.94332031 Z M32.6625,2.73832031 L19.6132031,15.7876172 C21.5232422,9.56894531 26.4440625,4.64824219 32.6625,2.73832031 Z M23.5248047,34.4150391 L51.2900391,6.64992188 C51.9997266,7.26257813 52.6667578,7.92621094 53.2835156,8.63390625 L25.5087891,36.4086328 C24.8010938,35.7916406 24.1372266,35.1246094 23.5248047,34.4150391 Z M36.6576563,41.1697266 L58.0448438,19.7825391 C58.0981641,20.3746875 58.125,20.9694141 58.125,21.5625 C58.125,22.3093359 58.0823438,23.0626172 57.9979688,23.8066406 L40.6816406,41.1229687 C39.3466406,41.2742578 37.9951172,41.2901953 36.6576563,41.1697266 Z M44.0034375,40.4530078 L57.3280078,27.1284375 C55.4478516,33.5349609 50.4099609,38.5728516 44.0034375,40.4530078 Z" id="Shape" fill="#4D39B9"></path>
                </g>
                <circle id="Oval" fill="#818797" opacity="0.100000001" cx="45" cy="45" r="45"></circle>
            </g>
        </g>
    </g>
</svg>