<?xml version="1.0" encoding="UTF-8"?>
<svg width="90px" height="90px" viewBox="0 0 90 90" version="1.1" xmlns="http://www.w3.org/2000/svg" xmlns:xlink="http://www.w3.org/1999/xlink">
    <!-- Generator: Sketch 52.4 (67378) - http://www.bohemiancoding.com/sketch -->
    <title>Group 9</title>
    <desc>Created with Sketch.</desc>
    <g id="Desktop-Website" stroke="none" stroke-width="1" fill="none" fill-rule="evenodd">
        <g id="Homepage" transform="translate(-159.000000, -2536.000000)">
            <g id="Group-9" transform="translate(159.000000, 2536.000000)">
                <circle id="Oval" fill="#818797" opacity="0.100000001" cx="45" cy="45" r="45"></circle>
                <g id="doctor-(2)" transform="translate(19.500000, 13.500000)" fill-rule="nonzero">
                    <g id="Group">
                        <path d="M34.2837464,1.90406651 L27.4348776,39.3227743 L32.3270117,40.3074299 C42.6817959,32.6760499 47.1253382,1.90406651 34.2837464,1.90406651 Z" id="Path" fill="#80362D"></path>
                        <path d="M34.2837464,1.90406651 C32.5714548,0.85775772 23.5346414,-1.79946556 16.672242,1.90406651 C8.2334519,6.45832304 0.854510204,22.7468907 12.7586239,39.3227743 C12.7755743,39.3462684 21.5643761,38.3381188 21.5643761,38.3381188 L34.2837464,1.90406651 Z" id="Path" fill="#80362D"></path>
                        <path d="M32.3800933,34.7299097 L32.326863,34.7299097 L32.326863,32.429886 L18.6291254,32.429886 L18.6291254,34.7275154 C18.6291254,36.9784561 18.619758,39.4251306 16.672242,40.9051069 L16.672242,62.9557055 L25.4779942,62.9557055 C25.4779942,62.9557055 30.0889592,62.9557055 34.2837464,62.9557055 L34.2837464,40.8706888 C32.3860408,39.3869715 32.3800933,36.9615463 32.3800933,34.7299097 Z" id="Path" fill="#FFD7A3"></path>
                        <path d="M25.4779942,53.1085511 C23.3740583,53.1085511 21.3887755,52.8278195 19.6074927,52.3402803 L19.6074927,62.9555558 L33.3052303,62.9555558 L33.3052303,51.6905273 C31.0856152,52.5819549 28.3906443,53.1085511 25.4779942,53.1085511 Z" id="Path" fill="#545465"></path>
                        <path d="M33.3052303,45.2310071 C33.6622303,45.3290238 33.9836939,45.3812494 34.2835977,45.4066888 L34.2835977,40.8706888 C32.3860408,39.3869715 32.3799446,36.9613967 32.3799446,34.7297601 L32.3786064,34.6725962 L32.3786064,32.3725724 L21.5642274,32.4297363 L18.6289767,33.4143919 C20.5858601,35.6301663 26.5787318,43.3847031 33.3052303,45.2310071 Z" id="Path" fill="#FDC88E"></path>
                        <path d="M39.1757318,19.6286152 C39.1757318,27.5142399 31.3832886,37.3533135 25.4779942,37.3533135 C19.5726997,37.3533135 11.7802566,27.5142399 11.7802566,19.6286152 C11.7802566,11.7429905 17.9130437,8.79680523 25.4779942,8.79680523 C33.0429446,8.79680523 39.1757318,11.7429905 39.1757318,19.6286152 Z" id="Path" fill="#FFE1B2"></path>
                        <path d="M27.4347289,3.87337767 C26.8850292,3.87337767 25.1001778,4.49499762 23.6413994,5.03970071 L23.5211108,4.85803325 C23.5211108,4.85803325 23.3197872,5.01725416 22.9712624,5.29319715 C22.1598717,5.60325891 21.5643761,5.84268884 21.5643761,5.84268884 L21.793207,6.22667458 C18.0795743,9.17136342 9.60673469,15.9075748 8.84485714,16.6744988 C7.8664898,17.6591544 14.7153586,42.7819382 14.7153586,28.4909644 C14.7153586,16.5514917 21.3062536,14.1869715 27.4347289,12.7357268 C30.2068688,12.0792399 31.0222741,10.4380974 31.3483469,8.79695487 C31.6745685,7.15581235 28.4132449,3.87337767 27.4347289,3.87337767 Z" id="Path" fill="#80362D"></path>
                        <path d="M30.3699796,9.78161045 C32.1637522,16.2641758 35.7512974,19.197791 39.114621,20.0594394 C40.9576093,20.5315653 40.1542478,14.7051876 40.1542478,14.7051876 C40.1542478,14.7051876 37.54507,7.97630879 37.2189971,7.81229929 C36.8929242,7.64814014 34.2837464,1.90406651 34.2837464,1.90406651 L28.4132449,6.82764371 L30.3699796,9.78161045 Z" id="Path" fill="#80362D"></path>
                        <path d="M17.7466618,39.7251663 C16.8302974,41.2235487 14.9620321,42.2768907 11.1279621,42.2768907 L10.8018892,42.2768907 C4.85793586,42.2768907 0.0392536443,47.1263943 0.0392536443,53.1087007 L0.0392536443,60.0015891 C0.0392536443,61.6330048 1.3533586,62.9557055 2.97450437,62.9557055 L23.0515539,62.9557055 L17.7466618,39.7251663 Z" id="Path" fill="#E4EBF0"></path>
                        <path d="M33.2093265,39.7251663 C34.125691,41.2235487 35.9939563,42.2768907 39.8280262,42.2768907 L40.1540991,42.2768907 C46.0980525,42.2768907 50.9167347,47.1263943 50.9167347,53.1087007 L50.9167347,60.0015891 C50.9167347,61.6330048 49.6026297,62.9557055 47.981484,62.9557055 L27.9044344,62.9557055 L33.2093265,39.7251663 Z" id="Path" fill="#E4EBF0"></path>
                        <ellipse id="Oval" fill="#D0D7DC" cx="10.8017405" cy="58.0321283" rx="2.93525073" ry="2.95411639"></ellipse>
                        <path d="M43.8307085,61.4044988 L42.6211312,60.5678409 C43.6959971,58.9938884 44.3126064,56.6340071 44.3126064,54.0932067 C44.3126064,49.6896413 42.4083586,45.9693492 40.1543965,45.9693492 C37.9004344,45.9693492 35.9961866,49.6896413 35.9961866,54.0932067 C35.9961866,56.6340071 36.6126472,58.9938884 37.6876618,60.5678409 L36.4780845,61.4044988 C35.2393644,59.5903682 34.5286356,56.9255131 34.5286356,54.0932067 C34.5286356,48.7094751 36.9996822,44.4923658 40.1545452,44.4923658 C43.3092595,44.4923658 45.7804548,48.7096247 45.7804548,54.0932067 C45.7800087,56.9255131 45.0694286,59.5903682 43.8307085,61.4044988 Z" id="Path" fill="#D0D7DC"></path>
                        <ellipse id="Oval" fill="#545465" cx="37.2189971" cy="60.9862447" rx="1" ry="1"></ellipse>
                        <ellipse id="Oval" fill="#545465" cx="43.0894985" cy="60.9862447" rx="1" ry="1"></ellipse>
                        <path d="M10.8017405,56.8013088 C10.3964169,56.8013088 10.067965,56.4707458 10.067965,56.0628171 C10.067965,43.3020998 16.060688,39.8046271 16.3158367,39.6620166 C16.6707551,39.4631401 17.1169679,39.5922827 17.3135335,39.9488836 C17.5099504,40.3041378 17.3837143,40.7520214 17.0322157,40.9511971 C16.9602507,40.9930974 11.535516,44.2690974 11.535516,56.0628171 C11.535516,56.4707458 11.2070641,56.8013088 10.8017405,56.8013088 Z" id="Path" fill="#D0D7DC"></path>
                        <ellipse id="Oval" fill="#B2B9BF" cx="10.8017405" cy="58.0321283" rx="1.54918076" ry="1.55913777"></ellipse>
                        <path d="M40.1542478,45.9697981 C39.8518163,45.9697981 39.5687143,45.7800499 39.4622536,45.4767221 C38.8246793,43.6585511 37.7868367,42.8892328 37.7765773,42.8820499 C37.4445569,42.6481568 37.3638192,42.1875534 37.5962187,41.853399 C37.8286181,41.5196936 38.2855364,41.4382874 38.6183003,41.6718812 C38.6761399,41.712734 40.0434752,42.6957435 40.846242,44.9854418 C40.9812507,45.3698765 40.7805219,45.7917221 40.3983936,45.9275986 C40.3175073,45.9560309 40.2351341,45.9697981 40.1542478,45.9697981 Z" id="Path" fill="#D0D7DC"></path>
                    </g>
                    <path d="M37.7185889,19.7187007 C39.3195131,19.34938 40.3683586,20.1384513 40.3683586,21.6881615 C40.3683586,23.7396271 38.2155044,28.7657102 35.9521749,25.6269335 C33.6888455,22.4881568 37.7185889,19.7187007 37.7185889,19.7187007 Z" id="Path" fill="#FFE1B2"></path>
                </g>
            </g>
        </g>
    </g>
</svg>