<?xml version="1.0" encoding="UTF-8"?>
<svg width="60px" height="60px" viewBox="0 0 60 60" version="1.1" xmlns="http://www.w3.org/2000/svg" xmlns:xlink="http://www.w3.org/1999/xlink">
    <!-- Generator: Sketch 52.4 (67378) - http://www.bohemiancoding.com/sketch -->
    <title>Group 27</title>
    <desc>Created with Sketch.</desc>
    <g id="Desktop-Website" stroke="none" stroke-width="1" fill="none" fill-rule="evenodd">
        <g id="Homepage" transform="translate(-140.000000, -942.000000)">
            <g id="Group-27" transform="translate(140.000000, 942.000000)">
                <g id="Group-14" fill="#818797" opacity="0.100000001">
                    <g id="Group-19">
                        <circle id="Oval" cx="30" cy="30" r="30"></circle>
                    </g>
                </g>
                <path d="M36.1110146,22.8052976 C35.2933856,17.7304397 30.8159602,13.9285875 25.6234958,13.9285875 L18.1757357,13.9285875 L18.1757357,12.0467105 C18.1757357,11.6234451 17.9189794,11.2416271 17.5250615,11.0796057 C17.1310031,10.9178633 16.6777798,11.0070379 16.3763335,11.306659 L9.3087189,18.3266116 C8.8970937,18.7353634 8.8970937,19.3979628 9.3087189,19.806575 L16.376474,26.8268068 C16.6776392,27.1262883 17.1311437,27.2154629 17.5252021,27.0538601 C17.91912,26.8918386 18.1758763,26.5101602 18.1758763,26.0867553 L18.1758763,24.20432 L25.6236364,24.20432 C25.7641708,24.20432 25.902035,24.3416406 25.902035,24.4817521 L25.9017539,50.9533498 C25.9017539,51.5315194 26.3735278,52 26.9557618,52 L35.1944494,52 C35.7766833,52 36.2484573,51.5315194 36.2484573,50.9533498 L36.2484573,33.3532987 C36.2484573,33.2133267 36.386462,33.0761458 36.5269964,33.0761458 L41.8242994,33.0761458 L41.8242994,34.8843387 C41.8242994,35.3077435 42.0810557,35.689422 42.4751141,35.8514434 C42.8688915,36.0131858 43.3222554,35.9237321 43.6238422,35.6243901 L50.6914568,28.6036002 C51.1029414,28.1948484 51.1028009,27.532249 50.6913162,27.1234972 L43.6237016,20.1035446 C43.3222554,19.8040631 42.8688915,19.7146094 42.4749736,19.8764913 C42.0810557,20.0385127 41.8242994,20.4201911 41.8242994,20.843596 L41.8242994,22.8052976 L36.1110146,22.8052976 Z M25.6234958,22.1110197 L17.1217279,22.1110197 C16.5394939,22.1110197 16.06772,22.5795003 16.06772,23.1576698 L16.06772,23.5597231 L11.5444804,19.0666631 L16.0678605,14.5740218 L16.0678605,14.9752377 C16.0678605,15.5534073 16.5396345,16.0218879 17.1218684,16.0218879 L25.6236364,16.0218879 C29.7715087,16.0218879 33.3497951,19.0524287 34.0230953,23.0989179 C31.5831374,23.6868562 29.4689381,25.1111378 28.0101912,27.0505108 L28.0101912,24.4817521 C28.0100507,23.1966052 26.9171148,22.1110197 25.6234958,22.1110197 Z M43.9323151,32.3568878 L43.9323151,32.0294956 C43.9323151,31.451326 43.4605412,30.9828454 42.8783073,30.9828454 L36.5269964,30.9828454 C35.2333774,30.9828454 34.1404415,32.0682914 34.1404415,33.3532987 L34.1404415,49.9066996 L28.0097696,49.9066996 L28.0097696,33.3532987 C28.0097696,28.6884486 31.8306184,24.8934345 36.5268559,24.8934345 L42.8781667,24.8934345 C43.4604007,24.8934345 43.9321746,24.4249539 43.9321746,23.8467843 L43.9321746,23.3709074 L48.4554142,27.8635487 L43.9323151,32.3568878 Z" id="Shape" fill="#4D39B9" fill-rule="nonzero"></path>
            </g>
        </g>
    </g>
</svg>