<?xml version="1.0" encoding="UTF-8"?>
<svg width="90px" height="90px" viewBox="0 0 90 90" version="1.1" xmlns="http://www.w3.org/2000/svg" xmlns:xlink="http://www.w3.org/1999/xlink">
    <!-- Generator: Sketch 52.4 (67378) - http://www.bohemiancoding.com/sketch -->
    <title>Group 22</title>
    <desc>Created with Sketch.</desc>
    <g id="Desktop-Website" stroke="none" stroke-width="1" fill="none" fill-rule="evenodd">
        <g id="Homepage" transform="translate(-159.000000, -5710.000000)">
            <g id="Group-22" transform="translate(159.000000, 5710.000000)">
                <g id="Group-5" fill="#818797" opacity="0.100000001">
                    <circle id="Oval" cx="45" cy="45" r="45"></circle>
                </g>
                <g id="calendar" transform="translate(17.000000, 18.000000)" fill-rule="nonzero">
                    <path d="M0,13.6097561 L0,49.6097561 C0,52.0304268 1.9977832,54 4.453125,54 L52.546875,54 C55.0022168,54 57,52.0304268 57,49.6097561 L57,13.6097561 L0,13.6097561 Z" id="Path" fill="#D8DCE1"></path>
                    <path d="M52.546875,1.31707317 L4.453125,1.31707317 C1.9977832,1.31707317 0,3.28664634 0,5.70731707 L0,13.6097561 L57,13.6097561 L57,5.70731707 C57,3.28664634 55.0021055,1.31707317 52.546875,1.31707317 Z M7.125,10.097561 C5.6493457,10.097561 4.453125,8.91823171 4.453125,7.46341463 C4.453125,6.00859756 5.6493457,4.82926829 7.125,4.82926829 C8.6006543,4.82926829 9.796875,6.00859756 9.796875,7.46341463 C9.796875,8.91823171 8.6006543,10.097561 7.125,10.097561 Z M49.875,10.097561 C48.3993457,10.097561 47.203125,8.91823171 47.203125,7.46341463 C47.203125,6.00859756 48.3993457,4.82926829 49.875,4.82926829 C51.3506543,4.82926829 52.546875,6.00859756 52.546875,7.46341463 C52.546875,8.91823171 51.3506543,10.097561 49.875,10.097561 Z" id="Shape" fill="#4D39B9"></path>
                    <g id="Group" transform="translate(7.125000, 21.512195)" fill="#FFFFFF">
                        <path d="M21.375,0 C19.4102813,0 17.8125,1.57521951 17.8125,3.51219512 C17.8125,5.44917073 19.4102813,7.02439024 21.375,7.02439024 C23.3397188,7.02439024 24.9375,5.44917073 24.9375,3.51219512 C24.9375,1.57521951 23.3397188,0 21.375,0 Z" id="Path"></path>
                        <path d="M12.46875,0 C10.5040313,0 8.90625,1.57521951 8.90625,3.51219512 C8.90625,5.44917073 10.5040313,7.02439024 12.46875,7.02439024 C14.4334687,7.02439024 16.03125,5.44917073 16.03125,3.51219512 C16.03125,1.57521951 14.4334687,0 12.46875,0 Z" id="Path"></path>
                        <path d="M3.5625,0 C1.59778125,0 0,1.57521951 0,3.51219512 C0,5.44917073 1.59778125,7.02439024 3.5625,7.02439024 C5.52721875,7.02439024 7.125,5.44917073 7.125,3.51219512 C7.125,1.57521951 5.52721875,0 3.5625,0 Z" id="Path"></path>
                        <path d="M30.28125,0 C28.3165312,0 26.71875,1.57521951 26.71875,3.51219512 C26.71875,5.44917073 28.3165312,7.02439024 30.28125,7.02439024 C32.2459687,7.02439024 33.84375,5.44917073 33.84375,3.51219512 C33.84375,1.57521951 32.2459687,0 30.28125,0 Z" id="Path"></path>
                        <path d="M39.1875,7.02439024 C41.1522187,7.02439024 42.75,5.44917073 42.75,3.51219512 C42.75,1.57521951 41.1522187,0 39.1875,0 C37.2227812,0 35.625,1.57521951 35.625,3.51219512 C35.625,5.44917073 37.2226699,7.02439024 39.1875,7.02439024 Z" id="Path"></path>
                        <path d="M21.375,8.7804878 C19.4102813,8.7804878 17.8125,10.3557073 17.8125,12.2926829 C17.8125,14.2296585 19.4102813,15.804878 21.375,15.804878 C23.3397188,15.804878 24.9375,14.2296585 24.9375,12.2926829 C24.9375,10.3557073 23.3397188,8.7804878 21.375,8.7804878 Z" id="Path"></path>
                        <path d="M12.46875,8.7804878 C10.5040313,8.7804878 8.90625,10.3557073 8.90625,12.2926829 C8.90625,14.2296585 10.5040313,15.804878 12.46875,15.804878 C14.4334687,15.804878 16.03125,14.2296585 16.03125,12.2926829 C16.03125,10.3557073 14.4334687,8.7804878 12.46875,8.7804878 Z" id="Path"></path>
                        <path d="M3.5625,8.7804878 C1.59778125,8.7804878 0,10.3557073 0,12.2926829 C0,14.2296585 1.59778125,15.804878 3.5625,15.804878 C5.52721875,15.804878 7.125,14.2296585 7.125,12.2926829 C7.125,10.3557073 5.52721875,8.7804878 3.5625,8.7804878 Z" id="Path"></path>
                        <path d="M30.28125,8.7804878 C28.3165312,8.7804878 26.71875,10.3557073 26.71875,12.2926829 C26.71875,14.2296585 28.3165312,15.804878 30.28125,15.804878 C32.2459687,15.804878 33.84375,14.2296585 33.84375,12.2926829 C33.84375,10.3557073 32.2459687,8.7804878 30.28125,8.7804878 Z" id="Path"></path>
                        <path d="M39.1875,8.7804878 C37.2227812,8.7804878 35.625,10.3557073 35.625,12.2926829 C35.625,14.2296585 37.2227812,15.804878 39.1875,15.804878 C41.1522187,15.804878 42.75,14.2296585 42.75,12.2926829 C42.75,10.3557073 41.1522187,8.7804878 39.1875,8.7804878 Z" id="Path"></path>
                        <path d="M21.375,17.5609756 C19.4102813,17.5609756 17.8125,19.1361951 17.8125,21.0731707 C17.8125,23.0101463 19.4102813,24.5853659 21.375,24.5853659 C23.3397188,24.5853659 24.9375,23.0101463 24.9375,21.0731707 C24.9375,19.1360854 23.3397188,17.5609756 21.375,17.5609756 Z" id="Path"></path>
                        <path d="M12.46875,17.5609756 C10.5040313,17.5609756 8.90625,19.1361951 8.90625,21.0731707 C8.90625,23.0101463 10.5040313,24.5853659 12.46875,24.5853659 C14.4334687,24.5853659 16.03125,23.0101463 16.03125,21.0731707 C16.03125,19.1360854 14.4334687,17.5609756 12.46875,17.5609756 Z" id="Path"></path>
                        <path d="M3.5625,17.5609756 C1.59778125,17.5609756 0,19.1361951 0,21.0731707 C0,23.0101463 1.59778125,24.5853659 3.5625,24.5853659 C5.52721875,24.5853659 7.125,23.0101463 7.125,21.0731707 C7.125,19.1360854 5.52721875,17.5609756 3.5625,17.5609756 Z" id="Path"></path>
                        <path d="M30.28125,17.5609756 C28.3165312,17.5609756 26.71875,19.1361951 26.71875,21.0731707 C26.71875,23.0101463 28.3165312,24.5853659 30.28125,24.5853659 C32.2459687,24.5853659 33.84375,23.0101463 33.84375,21.0731707 C33.84375,19.1360854 32.2459687,17.5609756 30.28125,17.5609756 Z" id="Path"></path>
                        <path d="M39.1875,17.5609756 C37.2227812,17.5609756 35.625,19.1361951 35.625,21.0731707 C35.625,23.0101463 37.2227812,24.5853659 39.1875,24.5853659 C41.1522187,24.5853659 42.75,23.0101463 42.75,21.0731707 C42.75,19.1360854 41.1522187,17.5609756 39.1875,17.5609756 Z" id="Path"></path>
                    </g>
                    <path d="M7.125,8.7804878 C6.38745117,8.7804878 5.7890625,8.1909878 5.7890625,7.46341463 L5.7890625,1.31707317 C5.7890625,0.5895 6.38745117,0 7.125,0 C7.86254883,0 8.4609375,0.5895 8.4609375,1.31707317 L8.4609375,7.46341463 C8.4609375,8.1909878 7.86254883,8.7804878 7.125,8.7804878 Z" id="Path" fill="#5C546A"></path>
                    <path d="M49.875,8.7804878 C49.1374512,8.7804878 48.5390625,8.1909878 48.5390625,7.46341463 L48.5390625,1.31707317 C48.5390625,0.5895 49.1374512,0 49.875,0 C50.6125488,0 51.2109375,0.5895 51.2109375,1.31707317 L51.2109375,7.46341463 C51.2109375,8.1909878 50.6125488,8.7804878 49.875,8.7804878 Z" id="Path" fill="#5C546A"></path>
                    <ellipse id="Oval" fill="#FFFFFF" cx="10.6875" cy="25.0243902" rx="3.5625" ry="3.51219512"></ellipse>
                    <ellipse id="Oval" fill="#FFFFFF" cx="28.5" cy="42.5853659" rx="3.5625" ry="3.51219512"></ellipse>
                    <ellipse id="Oval" fill="#4D39B9" cx="37.40625" cy="33.804878" rx="3.5625" ry="3.51219512"></ellipse>
                </g>
            </g>
        </g>
    </g>
</svg>