<?xml version="1.0" encoding="UTF-8"?>
<svg width="90px" height="90px" viewBox="0 0 90 90" version="1.1" xmlns="http://www.w3.org/2000/svg" xmlns:xlink="http://www.w3.org/1999/xlink">
    <!-- Generator: Sketch 52.4 (67378) - http://www.bohemiancoding.com/sketch -->
    <title>Group 11</title>
    <desc>Created with Sketch.</desc>
    <g id="Desktop-Website" stroke="none" stroke-width="1" fill="none" fill-rule="evenodd">
        <g id="Homepage" transform="translate(-159.000000, -1768.000000)">
            <g id="Group-11" transform="translate(159.000000, 1768.000000)">
                <g id="sneeze" transform="translate(15.000000, 10.500000)" fill-rule="nonzero">
                    <path d="M59.9041706,31.895545 C59.9041706,35.6219431 57.0344076,38.6756872 53.3853555,38.9675829 C53.1949763,38.9836493 53.0014692,38.9917536 52.8078199,38.9917536 C52.3109005,38.9917536 51.8270616,38.9417062 51.3591469,38.8433175 L8.617109,38.8433175 C8.14933649,38.9417062 7.66535545,38.9917536 7.16843602,38.9917536 L7.1636019,38.9917536 C3.24526066,38.9884834 0.0722274882,35.8138863 0.0722274882,31.895545 C0.0722274882,28.2014218 2.89521327,25.1670142 6.50232227,24.8331754 C6.72170616,24.8105687 6.94436019,24.8009005 7.1685782,24.8009005 C7.46701422,24.8009005 7.75905213,24.818673 8.04767773,24.8540758 L51.9287204,24.8540758 C52.2174882,24.8185308 52.5095261,24.8009005 52.8079621,24.8009005 C53.2289573,24.8009005 53.6419905,24.8380095 54.0419431,24.9089573 C57.3730806,25.491327 59.9041706,28.3981991 59.9041706,31.895545 Z" id="Path" fill="#FFD0A6"></path>
                    <path d="M54.0419431,24.9089573 L54.0419431,33.8974408 C54.0419431,35.6428436 53.814455,37.3416114 53.3853555,38.9675829 C53.1949763,38.9836493 53.0014692,38.9917536 52.8078199,38.9917536 C52.3109005,38.9917536 51.8270616,38.9417062 51.3591469,38.8433175 L8.617109,38.8433175 C8.14933649,38.9417062 7.66535545,38.9917536 7.16843602,38.9917536 L7.1636019,38.9917536 C6.73123223,37.3576777 6.50218009,35.6525118 6.50218009,33.8974408 L6.50218009,24.8331754 C6.72156398,24.8105687 6.94421801,24.8009005 7.16843602,24.8009005 C7.46687204,24.8009005 7.75890995,24.818673 8.04753555,24.8540758 L51.9285782,24.8540758 C52.217346,24.8185308 52.5093839,24.8009005 52.8078199,24.8009005 C53.2288152,24.8007583 53.6418483,24.8378673 54.0419431,24.9089573 Z" id="Path" fill="#E8B182"></path>
                    <path d="M56.0353081,33.1755924 C55.6235545,33.1755924 55.231564,32.9357346 55.0568246,32.534218 C54.8746919,32.1152133 54.511564,31.5454976 53.4662559,31.4353081 C52.808673,31.3662085 52.2250237,31.5201896 52.2193365,31.5216114 C51.6524645,31.6821327 51.063128,31.3534123 50.9023223,30.7869668 C50.7415166,30.2205213 51.0703791,29.6307583 51.6369668,29.4699526 C52.995782,29.0843602 55.8676777,29.0506635 57.0125118,31.6836967 C57.2472512,32.2238389 56.9998578,32.8519905 56.4597156,33.086872 C56.3213744,33.1470142 56.1772038,33.1755924 56.0353081,33.1755924 Z" id="Path" fill="#D6996B"></path>
                    <path d="M4.50966825,33.1755924 C4.36777251,33.1755924 4.22345972,33.1470142 4.08511848,33.086872 C3.5449763,32.8521327 3.29744076,32.2238389 3.53232227,31.6838389 C4.6771564,29.0506635 7.54933649,29.0840758 8.9078673,29.4700948 C9.47445498,29.6309005 9.80331754,30.2205213 9.64251185,30.787109 C9.4821327,31.3519905 8.89492891,31.6805687 8.33047393,31.5231754 C8.30744076,31.5170616 7.70004739,31.3588152 7.02753555,31.4412796 C6.01990521,31.5651185 5.6664455,32.1243128 5.48815166,32.5343602 C5.3135545,32.9357346 4.9214218,33.1755924 4.50966825,33.1755924 Z" id="Path" fill="#D6996B"></path>
                    <path d="M51.9282938,21.6567299 L51.9282938,36.404218 C51.9282938,46.9575355 44.378673,55.7475355 34.3852607,57.6688152 C33.054455,57.9253081 31.678436,58.0592417 30.2717062,58.0592417 C18.3118009,58.0592417 8.61668246,48.3641232 8.61668246,36.404218 L8.61668246,21.6567299 C8.61668246,9.69682464 18.3118009,0.000142180095 30.2717062,0.000142180095 C31.678436,0.000142180095 33.054455,0.134075829 34.3852607,0.39056872 C38.7166351,1.222891 42.5881991,3.34592417 45.5853555,6.34308057 C49.5036967,10.263128 51.9282938,15.6767773 51.9282938,21.6567299 Z" id="Path" fill="#E8B182"></path>
                    <path d="M51.9282938,21.6567299 L51.9282938,36.404218 C51.9282938,46.9575355 44.378673,55.7475355 34.3852607,57.6688152 C24.3917062,55.7475355 16.8422275,46.9573934 16.8422275,36.404218 L16.8422275,21.6567299 C16.8422275,11.1034123 24.3918483,2.31184834 34.3852607,0.39056872 C38.7166351,1.222891 42.5881991,3.34592417 45.5853555,6.34308057 C49.5036967,10.263128 51.9282938,15.6767773 51.9282938,21.6567299 Z" id="Path" fill="#FFD0A6"></path>
                    <path d="M51.9285782,21.6567299 L51.9285782,29.6645972 C26.2906635,29.6323223 17.7683886,19.1468246 17.7683886,19.1468246 C17.7683886,23.5023697 13.4128436,28.0981991 8.61696682,29.6645972 L8.61696682,21.6567299 C8.61696682,9.69682464 18.3120853,0.000142180095 30.2719905,0.000142180095 C31.6787204,0.000142180095 33.0547393,0.134075829 34.385545,0.39056872 C38.7169194,1.222891 42.5884834,3.34592417 45.5856398,6.34308057 C49.503981,10.263128 51.9285782,15.6767773 51.9285782,21.6567299 Z" id="Path" fill="#5B5B68"></path>
                    <path d="M34.3834123,0.390995261 C24.3909953,2.31184834 16.8412322,11.1028436 16.8412322,21.656872 L16.8412322,22.7630332 C15.3127962,25.8227488 12.0796209,28.5327014 8.61611374,29.664455 L8.61611374,21.656872 C8.61625592,9.69668246 18.3113744,0 30.2702844,0 C31.6777251,0 33.0526066,0.133649289 34.3834123,0.390995261 Z" id="Path" fill="#40404C"></path>
                    <path d="M37.5928436,48.0113744 C37.5928436,43.9684834 34.3154502,40.69109 30.2725592,40.69109 C26.2296682,40.69109 22.9522749,43.9684834 22.9522749,48.0113744 C22.9522749,52.0542654 26.2296682,51.1704739 30.2725592,51.1704739 C34.3154502,51.1704739 37.5928436,52.0542654 37.5928436,48.0113744 Z" id="Path" fill="#F95C5C"></path>
                    <path d="M36.4458768,44.0772512 C35.1449289,44.8834123 32.8672038,44.5194313 30.2724171,44.5194313 C27.6776303,44.5194313 25.3984834,44.8834123 24.0975355,44.0772512 C25.3970616,42.0398104 27.6776303,40.6905213 30.2724171,40.6905213 C32.8672038,40.6905213 35.1463507,42.0398104 36.4458768,44.0772512 Z" id="Path" fill="#FFFFFF"></path>
                    <path d="M40.5864455,63.7198578 C40.5864455,65.6790995 38.9982938,67.268673 37.0376303,67.268673 C36.1532701,67.268673 35.3442654,66.9430806 34.7229384,66.4084834 C34.1144076,68.2852607 32.3527962,69.6445024 30.2727014,69.6445024 C28.1926066,69.6445024 26.4295735,68.2852607 25.8224645,66.4084834 C25.2011374,66.9430806 24.3921327,67.268673 23.5063507,67.268673 C21.547109,67.268673 19.9575355,65.6790995 19.9575355,63.7198578 C19.9575355,61.7591943 21.547109,60.1710427 23.5063507,60.1710427 C23.7509005,60.1710427 23.989763,60.1952133 24.2200948,60.2421327 C24.4603791,58.0027962 27.0210427,56.2340758 30.1674882,56.1956872 C30.2030332,56.1942654 30.2371564,56.1942654 30.2727014,56.1942654 C33.4660664,56.1942654 36.0821801,57.9772038 36.3238863,60.2421327 C36.554218,60.1952133 36.7930806,60.1710427 37.0376303,60.1710427 C38.9982938,60.1710427 40.5864455,61.7591943 40.5864455,63.7198578 Z" id="Path" fill="#E4E4EF"></path>
                    <path d="M24.1993365,55.6981991 C24.1064929,55.6981991 24.0120853,55.6859716 23.9181043,55.6603791 C23.3498104,55.5054028 23.0148341,54.9191943 23.1698104,54.3510427 L24.8374408,48.2367299 C24.9924171,47.6685782 25.5783412,47.3333175 26.1467773,47.488436 C26.7150711,47.6434123 27.0500474,48.2296209 26.8950711,48.7977725 L25.2274408,54.9122275 C25.0980569,55.3863981 24.6682464,55.6981991 24.1993365,55.6981991 Z" id="Path" fill="#E4E4EF"></path>
                    <path d="M36.442891,55.6981991 C35.973981,55.6981991 35.5441706,55.3863981 35.4149289,54.9122275 L33.7472986,48.7977725 C33.5923223,48.2296209 33.9272986,47.6434123 34.4954502,47.488436 C35.0636019,47.3334597 35.6499526,47.668436 35.8047867,48.2367299 L37.4724171,54.3510427 C37.6273934,54.9193365 37.2924171,55.505545 36.7242654,55.6603791 C36.6301422,55.6859716 36.5357346,55.6981991 36.442891,55.6981991 Z" id="Path" fill="#E4E4EF"></path>
                    <path d="M30.2724171,54.4163033 C29.6835071,54.4163033 29.2060664,53.9388626 29.2060664,53.3499526 L29.2060664,48.5172512 C29.2060664,47.9283412 29.6835071,47.4509005 30.2724171,47.4509005 C30.8614692,47.4509005 31.3387678,47.9283412 31.3387678,48.5172512 L31.3387678,53.3499526 C31.3387678,53.9388626 30.8614692,54.4163033 30.2724171,54.4163033 Z" id="Path" fill="#E4E4EF"></path>
                    <g id="Group" transform="translate(17.630332, 33.127962)" fill="#D6996B">
                        <path d="M1.15236967,7.67758294 C0.696540284,7.67758294 0.274549763,7.38298578 0.133507109,6.92459716 C-0.0396682464,6.36170616 0.276255924,5.7649763 0.839146919,5.59180095 L4.78265403,4.37843602 L2.24132701,1.837109 C1.82488152,1.42066351 1.82488152,0.745450237 2.24132701,0.329146919 C2.65777251,-0.0872985782 3.33298578,-0.0872985782 3.7492891,0.329146919 L7.54293839,4.12279621 C7.80739336,4.38725118 7.91402844,4.77085308 7.82388626,5.13383886 C7.73374408,5.49682464 7.46004739,5.78601896 7.10260664,5.89592417 L1.46630332,7.63009479 C1.36194313,7.66222749 1.25630332,7.67758294 1.15236967,7.67758294 Z" id="Path"></path>
                        <path d="M24.1319431,7.67758294 C24.0280095,7.67758294 23.9223697,7.66236967 23.8178673,7.63023697 L18.1814218,5.89606635 C17.823981,5.78616114 17.5504265,5.49682464 17.4601422,5.13398104 C17.37,4.77099526 17.4766351,4.38739336 17.74109,4.12293839 L21.5348815,0.3292891 C21.9516114,-0.0872985782 22.6266825,-0.0871563981 23.0429858,0.3292891 C23.4592891,0.745734597 23.4594313,1.42094787 23.0429858,1.83725118 L20.5015166,4.3785782 L24.4451659,5.59194313 C25.0079147,5.76511848 25.323981,6.36184834 25.1506635,6.92473934 C25.009763,7.38298578 24.5876303,7.67758294 24.1319431,7.67758294 Z" id="Path"></path>
                    </g>
                    <path d="M27.4433175,62.5399052 C27.4433175,62.5399052 24.9423697,63.1598104 25.8224645,66.4086256 C25.2011374,66.9432227 24.3921327,67.2688152 23.5063507,67.2688152 C21.547109,67.2688152 19.9575355,65.6792417 19.9575355,63.72 C19.9575355,61.7593365 21.547109,60.1711848 23.5063507,60.1711848 C23.7509005,60.1711848 23.989763,60.1953555 24.2200948,60.2422749 C24.4603791,58.0029384 27.0210427,56.234218 30.1674882,56.1958294 C27.3949763,56.3023223 25.475545,60.5719905 27.4433175,62.5399052 Z" id="Path" fill="#CACADB"></path>
                </g>
                <circle id="Oval" fill="#818797" opacity="0.100000001" cx="45" cy="45" r="45"></circle>
            </g>
        </g>
    </g>
</svg>