<svg xmlns="http://www.w3.org/2000/svg" width="8" height="6" fill="none">
  <path fill="#000" fill-rule="evenodd" d="M4.15 1.62c.99 0 1.94.38 2.65 1.06.06.05.14.05.2 0l.51-.52a.14.14 0 0 0 0-.2 4.87 4.87 0 0 0-6.72 0 .14.14 0 0 0 0 .2l.51.51c.06.06.14.06.2 0a3.86 3.86 0 0 1 2.65-1.05zm0 1.69c.54 0 1.07.2 1.47.56.05.05.14.05.2 0l.5-.52a.14.14 0 0 0 0-.2 3.2 3.2 0 0 0-4.34 0 .14.14 0 0 0 0 .2l.51.52c.05.05.14.05.2 0 .4-.36.92-.56 1.46-.56zm1.03 1.13c0 .04-.01.08-.04.1l-.9.9a.14.14 0 0 1-.19 0l-.89-.9a.14.14 0 0 1 0-.2c.57-.48 1.4-.48 1.98 0 .02.03.04.06.04.1z" clip-rule="evenodd"/>
</svg>
