<svg xmlns="http://www.w3.org/2000/svg" width="9" height="6" fill="none">
  <path fill="#000" fill-rule="evenodd" d="M8.08.76h-.44c-.25 0-.44.2-.44.44v3.84c0 .24.2.44.44.44h.44c.25 0 .45-.2.45-.44V1.2c0-.25-.2-.44-.45-.44zM5.57 1.79H6c.25 0 .44.2.44.44v2.8c0 .25-.2.45-.44.45h-.44a.44.44 0 0 1-.45-.44v-2.8c0-.25.2-.45.45-.45zM3.94 2.82h-.45c-.24 0-.44.2-.44.45v1.77c0 .24.2.44.44.44h.45c.24 0 .44-.2.44-.44V3.27c0-.25-.2-.45-.44-.45zm-2.07.89h-.45c-.24 0-.44.2-.44.44v.89c0 .24.2.44.44.44h.45c.24 0 .44-.2.44-.44v-.89c0-.24-.2-.44-.44-.44z" clip-rule="evenodd"/>
</svg>
