<?xml version="1.0" encoding="UTF-8"?>
<svg width="78px" height="29px" viewBox="0 0 78 29" version="1.1" xmlns="http://www.w3.org/2000/svg" xmlns:xlink="http://www.w3.org/1999/xlink">
    <!-- Generator: Sketch 52.4 (67378) - http://www.bohemiancoding.com/sketch -->
    <title>HIPAA-logo</title>
    <desc>Created with Sketch.</desc>
    <g id="Symbols" stroke="none" stroke-width="1" fill="none" fill-rule="evenodd">
        <g id="footer" transform="translate(-140.000000, -796.000000)" fill="#838095">
            <g id="HIPAA-logo" transform="translate(140.000000, 796.000000)">
                <path d="M35.2871401,22.3193717 C35.3320537,22.3193717 35.3769674,22.334555 35.4069098,22.3649215 L35.7362764,22.7293194 C35.5566219,22.9570681 35.3320537,23.1240838 35.0775432,23.2455497 C34.8080614,23.3670157 34.493666,23.4277487 34.134357,23.4277487 C33.8049904,23.4277487 33.5055662,23.3670157 33.2510557,23.260733 C32.9965451,23.1544503 32.7570058,22.9874346 32.5773512,22.7900524 C32.3976967,22.5926702 32.2479846,22.3497382 32.1431862,22.0612565 C32.0383877,21.7727749 31.9934741,21.4691099 31.9934741,21.1350785 C31.9934741,20.8010471 32.0533589,20.482199 32.1581574,20.2089005 C32.2629559,19.9204188 32.4126679,19.6926702 32.6072937,19.4801047 C32.8019194,19.2827225 33.0264875,19.1157068 33.2959693,19.0094241 C33.5654511,18.9031414 33.8648752,18.8424084 34.1792706,18.8424084 C34.5086372,18.8424084 34.7930902,18.9031414 35.0476008,19.0094241 C35.3021113,19.1157068 35.5117083,19.252356 35.6913628,19.434555 L35.421881,19.8293194 C35.4069098,19.8596859 35.3919386,19.8748691 35.3619962,19.8900524 C35.3320537,19.9052356 35.3021113,19.9204188 35.2571977,19.9204188 C35.2272553,19.9204188 35.1973129,19.9052356 35.1673704,19.8900524 C35.137428,19.8748691 35.0925144,19.8445026 35.062572,19.8293194 C35.0176583,19.7989529 34.9727447,19.7685864 34.9278311,19.7382199 C34.8829175,19.7078534 34.8230326,19.6774869 34.7481766,19.6471204 C34.6733205,19.6167539 34.5984645,19.6015707 34.5086372,19.5863874 C34.41881,19.5712042 34.3140115,19.5560209 34.1942418,19.5560209 C33.9996161,19.5560209 33.8199616,19.5863874 33.6552783,19.6623037 C33.490595,19.7382199 33.3558541,19.8445026 33.2360845,19.9659686 C33.1163148,20.1026178 33.0264875,20.2696335 32.9666027,20.4670157 C32.9067179,20.6643979 32.8618042,20.8921466 32.8618042,21.1350785 C32.8618042,21.3931937 32.8917466,21.6209424 32.9666027,21.8031414 C33.0414587,21.9853403 33.131286,22.1675393 33.2510557,22.3041885 C33.3708253,22.4408377 33.5205374,22.5471204 33.6702495,22.6078534 C33.8349328,22.6837696 34.0145873,22.7141361 34.1942418,22.7141361 C34.3140115,22.7141361 34.4038388,22.7141361 34.493666,22.6989529 C34.5834933,22.6837696 34.6733205,22.6685864 34.7481766,22.6382199 C34.8230326,22.6078534 34.8978887,22.5774869 34.9727447,22.5319372 C35.0476008,22.4863874 35.1074856,22.4408377 35.1823417,22.3801047 C35.1973129,22.3649215 35.2272553,22.3497382 35.2422265,22.334555 C35.2571977,22.3193717 35.2571977,22.3193717 35.2871401,22.3193717 Z M40.7366603,21.1350785 C40.7366603,21.4691099 40.6767754,21.7727749 40.571977,22.0460733 C40.4671785,22.334555 40.3174664,22.5774869 40.1228407,22.7748691 C39.928215,22.9874346 39.6886756,23.139267 39.4191939,23.260733 C39.1497121,23.382199 38.8353167,23.4277487 38.5059501,23.4277487 C38.1765835,23.4277487 37.8621881,23.3670157 37.5927063,23.260733 C37.3232246,23.139267 37.0836852,22.9874346 36.8890595,22.7748691 C36.6944338,22.5623037 36.5447217,22.3193717 36.424952,22.0460733 C36.3201536,21.7575916 36.2602687,21.4539267 36.2602687,21.1350785 C36.2602687,20.8010471 36.3201536,20.4973822 36.424952,20.2240838 C36.5297505,19.9507853 36.6794626,19.6926702 36.8890595,19.495288 C37.0836852,19.2827225 37.3232246,19.1308901 37.5927063,19.0094241 C37.8621881,18.8879581 38.1765835,18.8424084 38.5059501,18.8424084 C38.7305182,18.8424084 38.9401152,18.8727749 39.1347409,18.9183246 C39.3293666,18.9638743 39.5090211,19.0397906 39.6737044,19.1460733 C39.8383877,19.2371728 39.9880998,19.3586387 40.1228407,19.495288 C40.2575816,19.6319372 40.36238,19.7837696 40.4522073,19.9507853 C40.5420345,20.117801 40.6168906,20.3 40.6618042,20.4973822 C40.7067179,20.6947644 40.7366603,20.9073298 40.7366603,21.1350785 Z M39.8982726,21.1350785 C39.8982726,20.8921466 39.8683301,20.6643979 39.7934741,20.4670157 C39.7335893,20.2696335 39.6287908,20.1026178 39.5090211,19.9659686 C39.3892514,19.8293194 39.2395393,19.7230366 39.074856,19.6471204 C38.8952015,19.5712042 38.7005758,19.5408377 38.4909789,19.5408377 C38.281382,19.5408377 38.071785,19.5712042 37.9071017,19.6471204 C37.7274472,19.7230366 37.5927063,19.8293194 37.4579655,19.9659686 C37.3381958,20.1026178 37.2483685,20.2696335 37.1735125,20.4670157 C37.1136276,20.6643979 37.068714,20.8921466 37.068714,21.1350785 C37.068714,21.3780105 37.0986564,21.6057592 37.1735125,21.8031414 C37.2333973,22.0005236 37.3381958,22.1675393 37.4579655,22.3041885 C37.5777351,22.4408377 37.7274472,22.5471204 37.9071017,22.6230366 C38.0867562,22.6989529 38.281382,22.7293194 38.4909789,22.7293194 C38.7005758,22.7293194 38.9101727,22.6989529 39.074856,22.6230366 C39.2545106,22.5471204 39.3892514,22.4408377 39.5090211,22.3041885 C39.6287908,22.1675393 39.718618,22.0005236 39.7934741,21.8031414 C39.8683301,21.6057592 39.8982726,21.3780105 39.8982726,21.1350785 Z M46.5904031,18.8879581 L46.5904031,23.382199 L45.8568138,23.382199 L45.8568138,20.482199 C45.8568138,20.360733 45.8568138,20.239267 45.871785,20.1026178 L44.5243762,22.6534031 C44.4644914,22.7748691 44.3596929,22.8356021 44.2399232,22.8356021 L44.1201536,22.8356021 C43.9854127,22.8356021 43.8955854,22.7748691 43.8357006,22.6534031 L42.4733205,20.0874346 C42.4733205,20.1633508 42.4882917,20.2240838 42.4882917,20.2848168 C42.4882917,20.3455497 42.4882917,20.4062827 42.4882917,20.4670157 L42.4882917,23.382199 L41.7696737,23.382199 L41.7696737,18.8879581 L42.3984645,18.8879581 C42.4284069,18.8879581 42.4733205,18.8879581 42.4882917,18.8879581 C42.5182342,18.8879581 42.5332054,18.8879581 42.5631478,18.9031414 C42.578119,18.9183246 42.6080614,18.9183246 42.6230326,18.9486911 C42.6380038,18.9638743 42.652975,18.9942408 42.6679463,19.0246073 L44.0003839,21.5298429 C44.0303263,21.5905759 44.0602687,21.6664921 44.0902111,21.7424084 C44.1201536,21.8183246 44.150096,21.8790576 44.1800384,21.9549738 C44.2099808,21.8790576 44.2399232,21.8031414 44.2698656,21.7272251 C44.2998081,21.6513089 44.3297505,21.5905759 44.3746641,21.5146597 L45.6921305,19.0246073 C45.7071017,18.9942408 45.7220729,18.9638743 45.7370441,18.9486911 C45.7520154,18.9335079 45.7819578,18.9183246 45.796929,18.9031414 C45.8119002,18.8879581 45.8418426,18.8879581 45.871785,18.8879581 C45.9017274,18.8879581 45.9316699,18.8879581 45.9616123,18.8879581 L46.5904031,18.8879581 Z M49.3151631,21.1502618 C49.4648752,21.1502618 49.5996161,21.1350785 49.7044146,21.0895288 C49.8241843,21.0439791 49.9140115,20.9984293 49.9888676,20.9225131 C50.0637236,20.8465969 50.1236084,20.7706806 50.1535509,20.6643979 C50.1834933,20.5581152 50.2134357,20.4518325 50.2134357,20.3151832 C50.2134357,20.1937173 50.1984645,20.0874346 50.1535509,19.9811518 C50.1086372,19.8748691 50.0637236,19.7989529 49.9888676,19.7382199 C49.9140115,19.6774869 49.8241843,19.6167539 49.7044146,19.5863874 C49.5846449,19.5560209 49.4648752,19.5256545 49.3001919,19.5256545 L48.6863724,19.5256545 L48.6863724,21.1350785 L49.3151631,21.1350785 L49.3151631,21.1502618 Z M49.3151631,18.8879581 C49.6145873,18.8879581 49.8690979,18.9183246 50.0786948,18.9942408 C50.2882917,19.0701571 50.4679463,19.1612565 50.6176583,19.2827225 C50.7523992,19.4041885 50.8571977,19.5560209 50.9320537,19.7382199 C51.0069098,19.9204188 51.0368522,20.1026178 51.0368522,20.3151832 C51.0368522,20.5277487 51.0069098,20.7403141 50.9320537,20.9073298 C50.8571977,21.0895288 50.7523992,21.2413613 50.6026871,21.3780105 C50.452975,21.5146597 50.2733205,21.6057592 50.0637236,21.6816754 C49.8541267,21.7575916 49.5996161,21.7879581 49.3001919,21.7879581 L48.6863724,21.7879581 L48.6863724,23.382199 L47.8629559,23.382199 L47.8629559,18.8879581 L49.3151631,18.8879581 Z M54.5850288,22.6837696 L54.5850288,23.382199 L51.9800384,23.382199 L51.9800384,18.8879581 L52.8034549,18.8879581 L52.8034549,22.6989529 L54.5850288,22.6989529 L54.5850288,22.6837696 Z M56.3067179,23.382199 L55.4833013,23.382199 L55.4833013,18.8879581 L56.3067179,18.8879581 L56.3067179,23.382199 Z M59.9596929,21.6816754 L59.4207294,20.178534 C59.3907869,20.117801 59.3608445,20.0267016 59.3309021,19.9356021 C59.3009597,19.8445026 59.2710173,19.7382199 59.2410749,19.6471204 C59.2111324,19.7534031 59.18119,19.8445026 59.1512476,19.9507853 C59.1213052,20.0418848 59.0913628,20.117801 59.0614203,20.1937173 L58.5224568,21.6816754 L59.9596929,21.6816754 Z M61.4119002,23.382199 L60.7681382,23.382199 C60.6932821,23.382199 60.6333973,23.3670157 60.5884837,23.321466 C60.5435701,23.2759162 60.5136276,23.2455497 60.4836852,23.1848168 L60.1543186,22.273822 L58.3128599,22.273822 L57.9834933,23.1848168 C57.9685221,23.2303665 57.9385797,23.2759162 57.893666,23.321466 C57.8487524,23.3670157 57.7888676,23.382199 57.7140115,23.382199 L57.0702495,23.382199 L58.821881,18.8879581 L59.6602687,18.8879581 L61.4119002,23.382199 Z M65.9182342,18.8879581 L65.9182342,23.382199 L65.4990403,23.382199 C65.4391555,23.382199 65.3792706,23.3670157 65.334357,23.3518325 C65.2894434,23.3366492 65.2445298,23.2910995 65.1996161,23.2455497 L62.8790787,20.239267 C62.8940499,20.3759162 62.8940499,20.4973822 62.8940499,20.6188482 L62.8940499,23.382199 L62.1604607,23.382199 L62.1604607,18.8879581 L62.5946257,18.8879581 C62.6245681,18.8879581 62.6545106,18.8879581 62.684453,18.8879581 C62.7143954,18.8879581 62.7293666,18.9031414 62.759309,18.9031414 C62.7742802,18.9183246 62.8042226,18.9335079 62.8191939,18.9486911 C62.8341651,18.9638743 62.8641075,18.9942408 62.8790787,19.0246073 L65.1996161,22.0308901 C65.1996161,21.9549738 65.1846449,21.8942408 65.1846449,21.8183246 C65.1846449,21.7424084 65.1846449,21.6816754 65.1846449,21.6209424 L65.1846449,18.8879581 L65.9182342,18.8879581 Z M70.3197697,19.5712042 L68.9873321,19.5712042 L68.9873321,23.382199 L68.1639155,23.382199 L68.1639155,19.5712042 L66.8314779,19.5712042 L66.8314779,18.8879581 L70.3347409,18.8879581 L70.3347409,19.5712042 L70.3197697,19.5712042 Z" id="Shape"></path>
                <g id="Group" transform="translate(31.888676, 6.073298)">
                    <polygon id="Path" points="6.94664107 9.92984293 4.77581574 9.92984293 4.77581574 5.95183246 2.26065259 5.95183246 2.26065259 9.92984293 0.0898272553 9.92984293 0.0898272553 0.167015707 2.26065259 0.167015707 2.26065259 3.79581152 4.77581574 3.79581152 4.77581574 0.167015707 6.94664107 0.167015707"></polygon>
                    <polygon id="Path" points="9.52168906 9.92984293 9.52168906 0.167015707 11.6925144 0.167015707 11.6925144 9.91465969 9.52168906 9.91465969"></polygon>
                    <path d="M20.0913628,3.27958115 C20.0913628,4.37277487 19.821881,5.2078534 19.2978887,5.8 C18.7738964,6.3921466 18.0253359,6.69581152 17.0522073,6.69581152 L16.4383877,6.69581152 L16.4383877,9.92984293 L14.2675624,9.92984293 L14.2675624,0.167015707 L17.0372361,0.167015707 C18.0552783,0.167015707 18.8038388,0.440314136 19.3128599,0.971727749 C19.821881,1.50314136 20.0913628,2.27748691 20.0913628,3.27958115 Z M16.4383877,4.53979058 L16.8276392,4.53979058 C17.1570058,4.53979058 17.4115163,4.43350785 17.606142,4.20575916 C17.8007678,3.97801047 17.890595,3.67434555 17.890595,3.27958115 C17.890595,2.62670157 17.5911708,2.29267016 16.9923225,2.29267016 L16.4383877,2.29267016 L16.4383877,4.53979058 Z M27.1278311,9.92984293 L26.7385797,8.1078534 L24.1335893,8.1078534 L23.7293666,9.92984293 L21.3489443,9.92984293 L23.968906,0.136649215 L26.8583493,0.136649215 L29.5082534,9.92984293 L27.1278311,9.92984293 Z M26.2894434,5.93664921 L25.9451056,4.34240838 C25.8702495,3.99319372 25.7654511,3.52251309 25.6456814,2.96073298 C25.5259117,2.39895288 25.4510557,1.98900524 25.4211132,1.7460733 C25.3911708,1.97382199 25.3163148,2.35340314 25.2264875,2.86963351 C25.1366603,3.38586387 24.9120921,4.41832461 24.5827255,5.95183246 L26.2894434,5.95183246 L26.2894434,5.93664921 Z M36.1255278,9.92984293 L35.7362764,8.1078534 L33.131286,8.1078534 L32.7270633,9.92984293 L30.3466411,9.92984293 L32.9666027,0.136649215 L35.8560461,0.136649215 L38.5059501,9.92984293 L36.1255278,9.92984293 Z M35.2871401,5.93664921 L34.9428023,4.34240838 C34.8679463,3.99319372 34.7631478,3.52251309 34.6433781,2.96073298 C34.5236084,2.39895288 34.4487524,1.98900524 34.41881,1.7460733 C34.3888676,1.97382199 34.3140115,2.35340314 34.2241843,2.86963351 C34.134357,3.38586387 33.9097889,4.41832461 33.5804223,5.95183246 L35.2871401,5.95183246 L35.2871401,5.93664921 Z" id="Shape" fill-rule="nonzero"></path>
                </g>
                <path d="M14.23762,0.0151832461 C6.37773512,0.0151832461 0.0149712092,6.46806283 0.0149712092,14.439267 C0.0149712092,22.4104712 6.37773512,28.8633508 14.23762,28.8633508 C22.0975048,28.8633508 28.4602687,22.4104712 28.4602687,14.439267 C28.4602687,6.46806283 22.0825336,0.0151832461 14.23762,0.0151832461 Z M14.23762,25.6141361 C8.14433781,25.6141361 3.20383877,20.6036649 3.20383877,14.4240838 C3.20383877,8.24450262 8.14433781,3.23403141 14.23762,3.23403141 C20.3309021,3.23403141 25.2714012,8.24450262 25.2714012,14.4240838 C25.2714012,20.6036649 20.3309021,25.6141361 14.23762,25.6141361 Z" id="Shape" fill-rule="nonzero"></path>
                <path d="M16.0042226,28.2863874 L64.3163148,28.2863874 C71.8318618,28.2863874 77.9700576,22.0460733 77.9700576,14.439267 C77.9700576,6.81727749 71.8168906,0.592146597 64.3163148,0.592146597 L16.0042226,0.592146597 L16.0042226,1.82198953 L19.0583493,1.82198953 L63.8821497,1.82198953 C70.7239923,1.82198953 76.3232246,7.50052356 76.3232246,14.439267 C76.3232246,21.3780105 70.7239923,27.0565445 63.8821497,27.0565445 L19.0583493,27.0565445 L16.0042226,27.0565445 L16.0042226,28.2863874 Z" id="Path"></path>
                <g id="Group" transform="translate(7.186180, 6.832461)">
                    <path d="M11.2284069,4.02356021 C11.2284069,1.85235602 9.35700576,0.0910994764 7.05143954,0.0910994764 C4.74587332,0.0910994764 2.87447217,1.85235602 2.87447217,4.02356021 L2.87447217,7.39424084 L4.07216891,7.39424084 L4.07216891,4.02356021 C4.07216891,2.47486911 5.40460653,1.21465969 7.05143954,1.21465969 C8.69827255,1.21465969 10.0307102,2.47486911 10.0307102,4.02356021 L10.0307102,7.39424084 L11.2284069,7.39424084 L11.2284069,4.02356021 Z" id="Path" stroke="#7F7F7F" stroke-width="0.68985"></path>
                    <path d="M1.4671785,14.8188482 L12.6207294,14.8188482 C13.384261,14.8188482 14.0130518,14.2267016 14.0130518,13.4827225 L0.0898272553,13.4827225 C0.0898272553,14.2115183 0.718618042,14.8188482 1.4671785,14.8188482 Z M12.6207294,5.51151832 L1.4671785,5.51151832 C0.703646833,5.51151832 0.0748560461,6.10366492 0.0748560461,6.84764398 L0.0748560461,12.9361257 L13.9980806,12.9361257 L13.9980806,6.84764398 C14.0130518,6.10366492 13.384261,5.51151832 12.6207294,5.51151832 Z" id="Shape" fill-rule="nonzero"></path>
                </g>
            </g>
        </g>
    </g>
</svg>