<?xml version="1.0" encoding="UTF-8"?>
<svg width="70px" height="70px" viewBox="0 0 70 70" version="1.1" xmlns="http://www.w3.org/2000/svg" xmlns:xlink="http://www.w3.org/1999/xlink">
    <!-- Generator: Sketch 52.4 (67378) - http://www.bohemiancoding.com/sketch -->
    <title>icon-1</title>
    <desc>Created with Sketch.</desc>
    <g id="Desktop-Website" stroke="none" stroke-width="1" fill="none" fill-rule="evenodd">
        <g id="Homepage" transform="translate(-1260.000000, -307.000000)">
            <g id="icon-1" transform="translate(1260.000000, 307.000000)">
                <path d="M7.96449871,2.14765663 C16.9419365,0.715885545 25.9395593,1.10436296e-15 34.9573673,0 C43.9806991,0 53.0041201,0.716762855 62.0276302,2.15028857 L62.0276304,2.1502877 C65.0222789,2.62603446 67.370137,4.97575044 67.8435149,7.97077437 C69.2811716,17.0667137 70,26.1119828 70,35.1065818 C70,44.0809917 69.2843949,53.0551792 67.8531848,62.0291443 L67.853183,62.029144 C67.3757652,65.0226461 65.0258072,67.368702 62.0315157,67.8411441 C52.9097737,69.2803814 43.8534505,70 34.8625462,70 C25.8922376,70 16.9222161,69.2836745 7.95248185,67.8510235 L7.95248166,67.8510247 C4.96569582,67.3739736 2.62313106,65.032516 2.14466797,62.0459561 C0.714889325,53.1212976 5.52989512e-16,44.1434663 0,35.1124622 C0,26.0630684 0.71780373,17.0134392 2.15341119,7.96357452 L2.1534139,7.96357495 C2.62800867,4.9717972 4.97311658,2.62473869 7.96449871,2.14765663 Z" id="Rectangle" fill="#FFBE4F" fill-rule="nonzero"></path>
                <path d="M48.891,39.7659243 C48.891,39.1179243 48.627,38.5299243 48.2,38.1039243 C47.775,37.6779243 47.186,37.4159243 46.536,37.4159243 L35.21,37.4159243 C34.561,37.4159243 33.973,37.6779243 33.548,38.1039243 C33.122,38.5289243 32.86,39.1169243 32.86,39.7659243 C32.86,40.4159243 33.122,41.0029243 33.548,41.4289243 C33.973,41.8539243 34.561,42.1179243 35.21,42.1179243 L46.536,42.1179243 C47.186,42.1179243 47.775,41.8539243 48.201,41.4289243 C48.627,41.0029243 48.891,40.4159243 48.891,39.7659243 Z M42.235,28.6319243 L41.286,27.2189243 C41.26,27.1779243 41.204,27.1669243 41.164,27.1949243 L33.639,32.2469243 C33.599,32.2739243 33.588,32.3289243 33.616,32.3699243 L34.563,33.7799243 C35.011,34.4459243 35.692,34.8689243 36.426,35.0129243 C37.159,35.1579243 37.949,35.0239243 38.616,34.5779243 L41.435,32.6819243 C42.103,32.2359243 42.526,31.5569243 42.67,30.8239243 C42.816,30.0899243 42.681,29.2999243 42.235,28.6319243 Z M27.622,23.4339243 L32.355,30.4869243 C32.382,30.5269243 32.437,30.5379243 32.477,30.5109243 L39.998,25.4629243 C40.038,25.4359243 40.05,25.3809243 40.023,25.3399243 L35.289,18.2869243 C34.843,17.6219243 34.163,17.1999243 33.43,17.0549243 C32.697,16.9119243 31.908,17.0449243 31.242,17.4919243 C30.312,18.1249243 29.36,18.7759243 28.415,19.3859243 C27.751,19.8329243 27.328,20.5109243 27.184,21.2439243 C27.04,21.9739243 27.173,22.7599243 27.617,23.4249243 L27.622,23.4339243 Z M42.005,44.5839243 L46.536,44.5839243 C47.185,44.5839243 47.773,44.8249243 48.199,45.2159243 C48.626,45.6089243 48.891,46.1519243 48.891,46.7509243 C48.891,47.3499243 48.626,47.8919243 48.198,48.2839243 C47.99,48.4739243 47.743,48.6289243 47.469,48.7389243 L51.066,48.7389243 C51.716,48.7389243 52.305,49.0009243 52.731,49.4279243 C53.157,49.8539243 53.419,50.4419243 53.419,51.0929243 C53.419,51.7429243 53.157,52.3309243 52.73,52.7559243 C52.304,53.1809243 51.716,53.4439243 51.066,53.4439243 L26.15,53.4439243 C25.5,53.4439243 24.912,53.1809243 24.488,52.7559243 C24.062,52.3309243 23.799,51.7429243 23.799,51.0929243 C23.799,50.4419243 24.062,49.8539243 24.487,49.4279243 C24.911,49.0009243 25.5,48.7389243 26.15,48.7389243 L29.421,48.7389243 C26.294,48.2709243 23.493,46.9019243 21.347,44.9329243 C18.662,42.4709243 17,39.0719243 17,35.3229243 C17,32.8979243 17.698,30.6189243 18.917,28.6439243 C20.18,26.5989243 22.004,24.8819243 24.195,23.6699243 C24.236,23.6449243 24.288,23.6569243 24.315,23.6969243 L26.649,27.2669243 C26.672,27.3099243 26.657,27.3639243 26.614,27.3869243 C25.117,28.2119243 23.874,29.3819243 23.014,30.7759243 C22.184,32.1199243 21.71,33.6699243 21.71,35.3229243 C21.71,37.8739243 22.842,40.1879243 24.67,41.8649243 C26.5,43.5429243 29.027,44.5839243 31.813,44.5839243 L42.005,44.5839243 Z" id="Fill-4" fill="#FFFFFF"></path>
            </g>
        </g>
    </g>
</svg>