<?xml version="1.0" encoding="UTF-8"?>
<svg width="70px" height="70px" viewBox="0 0 70 70" version="1.1" xmlns="http://www.w3.org/2000/svg" xmlns:xlink="http://www.w3.org/1999/xlink">
    <!-- Generator: Sketch 52.4 (67378) - http://www.bohemiancoding.com/sketch -->
    <title>icon-7</title>
    <desc>Created with Sketch.</desc>
    <g id="Desktop-Website" stroke="none" stroke-width="1" fill="none" fill-rule="evenodd">
        <g id="Homepage" transform="translate(-1256.000000, -596.000000)">
            <g id="icon-7" transform="translate(1256.000000, 596.000000)">
                <path d="M7.96449871,2.14765663 C16.9419365,0.715885545 25.9395593,1.10436296e-15 34.9573673,0 C43.9806991,0 53.0041201,0.716762855 62.0276302,2.15028857 L62.0276304,2.1502877 C65.0222789,2.62603446 67.370137,4.97575044 67.8435149,7.97077437 C69.2811716,17.0667137 70,26.1119828 70,35.1065818 C70,44.0809917 69.2843949,53.0551792 67.8531848,62.0291443 L67.853183,62.029144 C67.3757652,65.0226461 65.0258072,67.368702 62.0315157,67.8411441 C52.9097737,69.2803814 43.8534505,70 34.8625462,70 C25.8922376,70 16.9222161,69.2836745 7.95248185,67.8510235 L7.95248166,67.8510247 C4.96569582,67.3739736 2.62313106,65.032516 2.14466797,62.0459561 C0.714889325,53.1212976 5.52989512e-16,44.1434663 0,35.1124622 C0,26.0630684 0.71780373,17.0134392 2.15341119,7.96357452 L2.1534139,7.96357495 C2.62800867,4.9717972 4.97311658,2.62473869 7.96449871,2.14765663 Z" id="Rectangle" fill="#3DCC79" fill-rule="nonzero"></path>
                <path d="M29.330493,25.0742095 C29.888493,26.1702095 30.520493,27.4452095 31.143493,28.7532095 L32.121493,30.8482095 C32.596493,31.8892095 33.037493,32.9002095 33.404493,33.8072095 C33.424493,33.8522095 33.476493,33.8722095 33.520493,33.8532095 L47.918493,27.6372095 C47.962493,27.6162095 47.981493,27.5632095 47.961493,27.5192095 L43.886493,18.7832095 C43.015493,16.7742095 41.414493,15.3082095 39.528493,14.5602095 C37.644493,13.8132095 35.476493,13.7842095 33.470493,14.6492095 L33.463493,14.6522095 C31.453493,15.5192095 29.986493,17.1202095 29.238493,19.0062095 C28.490493,20.8932095 28.462493,23.0642095 29.330493,25.0742095 Z M53.212493,38.8092095 C54.079493,40.8192095 54.051493,42.9912095 53.302493,44.8782095 C52.554493,46.7652095 51.086493,48.3642095 49.075493,49.2332095 L49.073493,49.2342095 C47.066493,50.1012095 44.896493,50.0712095 43.011493,49.3232095 C41.127493,48.5752095 39.526493,47.1082095 38.659493,45.1002095 C37.542493,42.3062095 35.879493,39.1452095 34.581493,36.3672095 C34.560493,36.3222095 34.579493,36.2702095 34.624493,36.2492095 L49.020493,30.0322095 C49.065493,30.0142095 49.117493,30.0342095 49.137493,30.0792095 C49.504493,30.9842095 49.945493,31.9952095 50.419493,33.0362095 L51.394493,35.1242095 C52.018493,36.4342095 52.651493,37.7112095 53.212493,38.8092095 Z M30.335493,36.4072095 C28.834493,35.0762095 26.973493,34.4112095 25.115493,34.3902095 C23.230493,34.3672095 21.348493,35.0072095 19.845493,36.2852095 L19.836493,36.2942095 C19.804493,36.3312095 19.806493,36.3872095 19.843493,36.4192095 L31.579493,46.8292095 L31.589493,46.8372095 C31.630493,46.8632095 31.684493,46.8522095 31.711493,46.8112095 C32.799493,45.1632095 33.208493,43.2172095 32.961493,41.3482095 C32.717493,39.5052095 31.834493,37.7372095 30.335493,36.4072095 Z M19.698493,48.4032095 C18.197493,47.0722095 17.312493,45.3042095 17.069493,43.4612095 C16.822493,41.5932095 17.232493,39.6462095 18.322493,37.9992095 C18.348493,37.9592095 18.404493,37.9472095 18.444493,37.9752095 C18.449493,37.9772095 18.454493,37.9812095 18.458493,37.9852095 L30.193493,48.3912095 C30.229493,48.4232095 30.233493,48.4792095 30.201493,48.5162095 L30.192493,48.5242095 C28.686493,49.8022095 26.804493,50.4412095 24.919493,50.4192095 C23.059493,50.3972095 21.199493,49.7322095 19.698493,48.4032095 Z" id="Fill-15" fill="#FFFFFF"></path>
            </g>
        </g>
    </g>
</svg>