<?xml version="1.0" encoding="UTF-8"?>
<svg width="70px" height="70px" viewBox="0 0 70 70" version="1.1" xmlns="http://www.w3.org/2000/svg" xmlns:xlink="http://www.w3.org/1999/xlink">
    <!-- Generator: Sketch 52.4 (67378) - http://www.bohemiancoding.com/sketch -->
    <title>icon-6</title>
    <desc>Created with Sketch.</desc>
    <g id="Desktop-Website" stroke="none" stroke-width="1" fill="none" fill-rule="evenodd">
        <g id="Homepage" transform="translate(-728.000000, -492.000000)">
            <g id="icon-6" transform="translate(728.000000, 492.000000)">
                <path d="M7.96449871,2.14765663 C16.9419365,0.715885545 25.9395593,1.10436296e-15 34.9573673,0 C43.9806991,0 53.0041201,0.716762855 62.0276302,2.15028857 L62.0276304,2.1502877 C65.0222789,2.62603446 67.370137,4.97575044 67.8435149,7.97077437 C69.2811716,17.0667137 70,26.1119828 70,35.1065818 C70,44.0809917 69.2843949,53.0551792 67.8531848,62.0291443 L67.853183,62.029144 C67.3757652,65.0226461 65.0258072,67.368702 62.0315157,67.8411441 C52.9097737,69.2803814 43.8534505,70 34.8625462,70 C25.8922376,70 16.9222161,69.2836745 7.95248185,67.8510235 L7.95248166,67.8510247 C4.96569582,67.3739736 2.62313106,65.032516 2.14466797,62.0459561 C0.714889325,53.1212976 5.52989512e-16,44.1434663 0,35.1124622 C0,26.0630684 0.71780373,17.0134392 2.15341119,7.96357452 L2.1534139,7.96357495 C2.62800867,4.9717972 4.97311658,2.62473869 7.96449871,2.14765663 Z" id="Rectangle" fill="#FFBE4F" fill-rule="nonzero"></path>
                <path d="M48.092,36.606 C48.473,36.309 48.709,35.9 48.709,35.449 L48.709,32.972 C48.709,32.522 48.473,32.113 48.091,31.815 C47.703,31.513 47.165,31.327 46.569,31.327 L44.976,31.327 C44.928,31.327 44.888,31.287 44.888,31.238 L44.888,29.647 C44.888,29.05 44.701,28.512 44.398,28.123 C44.101,27.742 43.692,27.505 43.24,27.505 L40.764,27.505 C40.315,27.505 39.906,27.743 39.608,28.125 C39.307,28.513 39.12,29.051 39.12,29.647 L39.12,31.238 C39.12,31.287 39.08,31.327 39.031,31.327 L37.437,31.327 C36.843,31.327 36.305,31.514 35.917,31.816 C35.534,32.114 35.298,32.522 35.298,32.972 L35.298,35.449 C35.298,35.899 35.534,36.308 35.916,36.605 C36.305,36.908 36.843,37.094 37.437,37.094 L39.031,37.094 C39.08,37.094 39.12,37.134 39.12,37.183 L39.12,38.776 C39.12,39.371 39.307,39.91 39.608,40.298 C39.906,40.681 40.314,40.917 40.764,40.917 L43.24,40.917 C43.692,40.917 44.101,40.681 44.398,40.299 C44.701,39.911 44.888,39.372 44.888,38.776 L44.888,37.183 C44.888,37.134 44.928,37.094 44.976,37.094 L46.569,37.094 C47.166,37.094 47.703,36.909 48.092,36.606 Z M30.144,16 L47.385,16 C49.05,16 50.558,16.677 51.65,17.77 C52.743,18.863 53.418,20.371 53.418,22.037 L53.418,46.385 C53.418,48.049 52.745,49.555 51.656,50.646 L51.651,50.652 C50.558,51.744 49.051,52.419 47.385,52.419 L30.144,52.419 C30.096,52.419 30.057,52.379 30.057,52.33 L30.057,16.089 C30.057,16.04 30.096,16 30.144,16 Z M21.532,22.797 L21.532,22.037 C21.532,20.634 22.011,19.345 22.813,18.323 C23.633,17.279 24.79,16.512 26.12,16.184 C26.129,16.181 26.139,16.179 26.148,16.179 C26.197,16.179 26.237,16.219 26.237,16.268 L26.237,52.157 C26.237,52.163 26.236,52.17 26.234,52.177 C26.224,52.224 26.175,52.253 26.128,52.243 C24.795,51.915 23.635,51.147 22.813,50.101 C22.011,49.077 21.532,47.788 21.532,46.385 L21.532,45.625 L19.354,45.625 C18.704,45.625 18.116,45.362 17.69,44.936 C17.264,44.51 17,43.921 17,43.273 C17,42.621 17.263,42.033 17.688,41.607 C18.115,41.181 18.703,40.917 19.354,40.917 L21.532,40.917 L21.532,36.565 L19.354,36.565 C18.704,36.565 18.115,36.301 17.689,35.875 C17.263,35.45 17,34.861 17,34.21 C17,33.561 17.264,32.973 17.69,32.546 C18.116,32.12 18.704,31.858 19.354,31.858 L21.532,31.858 L21.532,27.505 L19.354,27.505 C18.704,27.505 18.116,27.242 17.69,26.817 C17.264,26.39 17,25.801 17,25.152 C17,24.501 17.263,23.912 17.688,23.487 C18.115,23.06 18.703,22.797 19.354,22.797 L21.532,22.797 Z" id="Fill-21" fill="#FFFFFF"></path>
            </g>
        </g>
    </g>
</svg>