<?xml version="1.0" encoding="UTF-8"?>
<svg width="70px" height="70px" viewBox="0 0 70 70" version="1.1" xmlns="http://www.w3.org/2000/svg" xmlns:xlink="http://www.w3.org/1999/xlink">
    <!-- Generator: Sketch 52.4 (67378) - http://www.bohemiancoding.com/sketch -->
    <title>icon-3</title>
    <desc>Created with Sketch.</desc>
    <g id="Desktop-Website" stroke="none" stroke-width="1" fill="none" fill-rule="evenodd">
        <g id="Homepage" transform="translate(-951.000000, -318.000000)">
            <g id="icon-3" transform="translate(951.000000, 318.000000)">
                <path d="M7.96449871,2.14765663 C16.9419365,0.715885545 25.9395593,1.10436296e-15 34.9573673,0 C43.9806991,0 53.0041201,0.716762855 62.0276302,2.15028857 L62.0276304,2.1502877 C65.0222789,2.62603446 67.370137,4.97575044 67.8435149,7.97077437 C69.2811716,17.0667137 70,26.1119828 70,35.1065818 C70,44.0809917 69.2843949,53.0551792 67.8531848,62.0291443 L67.853183,62.029144 C67.3757652,65.0226461 65.0258072,67.368702 62.0315157,67.8411441 C52.9097737,69.2803814 43.8534505,70 34.8625462,70 C25.8922376,70 16.9222161,69.2836745 7.95248185,67.8510235 L7.95248166,67.8510247 C4.96569582,67.3739736 2.62313106,65.032516 2.14466797,62.0459561 C0.714889325,53.1212976 5.52989512e-16,44.1434663 0,35.1124622 C0,26.0630684 0.71780373,17.0134392 2.15341119,7.96357452 L2.1534139,7.96357495 C2.62800867,4.9717972 4.97311658,2.62473869 7.96449871,2.14765663 Z" id="Rectangle" fill="#FF695B" fill-rule="nonzero"></path>
                <path d="M40.755,44.888 L40.761,44.889 L48.27,44.863 C48.319,44.863 48.358,44.902 48.358,44.951 L48.358,48.1 C48.358,49.689 47.715,51.127 46.674,52.167 C45.633,53.208 44.195,53.852 42.607,53.852 L26.751,53.852 C25.162,53.852 23.725,53.208 22.684,52.167 C21.643,51.127 21,49.689 21,48.1 L21,45.017 C21,44.968 21.039,44.928 21.088,44.928 L23.351,44.928 L27.558,44.957 L27.569,44.958 C27.712,44.977 27.858,44.967 27.997,44.934 C28.135,44.901 28.268,44.842 28.385,44.763 C28.395,44.754 28.405,44.746 28.422,44.737 L28.429,44.732 C28.441,44.723 28.452,44.715 28.462,44.705 L28.47,44.698 C28.569,44.621 28.653,44.529 28.722,44.425 C28.789,44.323 28.841,44.209 28.873,44.086 L28.877,44.075 L31.759,37.001 C31.77,36.974 31.794,36.954 31.825,36.948 C31.873,36.939 31.919,36.971 31.928,37.019 L33.867,47.734 C33.926,48.057 34.109,48.326 34.358,48.498 C34.607,48.671 34.922,48.749 35.243,48.693 L35.246,48.692 C35.452,48.655 35.635,48.566 35.786,48.441 C35.943,48.312 36.065,48.144 36.141,47.954 C36.149,47.933 36.155,47.912 36.162,47.89 C36.772,45.803 37.533,43.659 38.208,41.58 C38.215,41.558 38.232,41.538 38.254,41.528 C38.299,41.508 38.352,41.527 38.372,41.571 L39.543,44.063 L39.547,44.073 C39.632,44.327 39.793,44.534 39.997,44.675 C40.204,44.819 40.456,44.895 40.714,44.887 L40.725,44.886 C40.734,44.886 40.743,44.887 40.752,44.888 L40.755,44.888 Z M43.623,22.138 C43.64,22.306 43.649,22.477 43.649,22.654 C43.649,24.193 43.025,25.586 42.017,26.595 C41.009,27.604 39.616,28.228 38.078,28.228 L31.279,28.228 C29.74,28.228 28.347,27.604 27.338,26.595 C26.329,25.586 25.705,24.193 25.705,22.654 C25.705,22.478 25.714,22.306 25.732,22.138 C25.748,21.97 25.774,21.803 25.805,21.636 C25.814,21.588 25.782,21.542 25.735,21.533 C25.722,21.531 25.709,21.532 25.697,21.534 C24.35,21.784 23.167,22.501 22.325,23.513 C21.497,24.508 21,25.788 21,27.185 L21,42.502 C21,42.551 21.039,42.591 21.088,42.591 L26.862,42.621 C26.9,42.621 26.932,42.598 26.945,42.566 L31.172,32.153 L31.176,32.138 C31.24,31.929 31.361,31.742 31.522,31.597 C31.678,31.456 31.874,31.356 32.098,31.315 L32.1,31.314 C32.423,31.256 32.738,31.334 32.987,31.506 C33.237,31.679 33.421,31.948 33.48,32.271 L35.3,42.337 C35.309,42.385 35.355,42.416 35.403,42.408 C35.436,42.402 35.461,42.378 35.471,42.348 L37.004,37.631 C37.129,37.333 37.362,37.113 37.64,36.997 C37.918,36.882 38.239,36.872 38.539,36.995 L38.551,36.999 C38.925,37.155 39.106,37.548 39.265,37.896 L41.392,42.569 C41.407,42.602 41.441,42.621 41.475,42.621 L48.27,42.591 C48.319,42.591 48.358,42.551 48.358,42.502 L48.358,27.185 C48.358,25.788 47.86,24.509 47.031,23.514 C46.189,22.5 45.003,21.782 43.654,21.533 C43.607,21.524 43.561,21.556 43.552,21.604 C43.55,21.616 43.55,21.626 43.552,21.637 C43.582,21.802 43.607,21.969 43.623,22.138 Z M36.94,26.239 L32.415,26.239 C31.139,26.239 29.985,25.721 29.148,24.886 C28.312,24.049 27.794,22.895 27.794,21.62 C27.794,20.344 28.311,19.189 29.148,18.353 C29.984,17.517 31.139,17 32.415,17 L36.94,17 C38.217,17 39.371,17.517 40.207,18.352 C41.044,19.189 41.561,20.344 41.561,21.62 C41.561,22.895 41.044,24.05 40.207,24.886 C39.371,25.722 38.217,26.239 36.94,26.239 Z" id="Fill-17" fill="#FFFFFF"></path>
            </g>
        </g>
    </g>
</svg>