<?xml version="1.0" encoding="UTF-8"?>
<svg width="70px" height="70px" viewBox="0 0 70 70" version="1.1" xmlns="http://www.w3.org/2000/svg" xmlns:xlink="http://www.w3.org/1999/xlink">
    <!-- Generator: Sketch 52.4 (67378) - http://www.bohemiancoding.com/sketch -->
    <title>icon-5</title>
    <desc>Created with Sketch.</desc>
    <g id="Desktop-Website" stroke="none" stroke-width="1" fill="none" fill-rule="evenodd">
        <g id="Homepage" transform="translate(-772.000000, -266.000000)">
            <g id="icon-5" transform="translate(772.000000, 266.000000)">
                <path d="M7.96449871,2.14765663 C16.9419365,0.715885545 25.9395593,1.10436296e-15 34.9573673,0 C43.9806991,0 53.0041201,0.716762855 62.0276302,2.15028857 L62.0276304,2.1502877 C65.0222789,2.62603446 67.370137,4.97575044 67.8435149,7.97077437 C69.2811716,17.0667137 70,26.1119828 70,35.1065818 C70,44.0809917 69.2843949,53.0551792 67.8531848,62.0291443 L67.853183,62.029144 C67.3757652,65.0226461 65.0258072,67.368702 62.0315157,67.8411441 C52.9097737,69.2803814 43.8534505,70 34.8625462,70 C25.8922376,70 16.9222161,69.2836745 7.95248185,67.8510235 L7.95248166,67.8510247 C4.96569582,67.3739736 2.62313106,65.032516 2.14466797,62.0459561 C0.714889325,53.1212976 5.52989512e-16,44.1434663 0,35.1124622 C0,26.0630684 0.71780373,17.0134392 2.15341119,7.96357452 L2.1534139,7.96357495 C2.62800867,4.9717972 4.97311658,2.62473869 7.96449871,2.14765663 Z" id="Rectangle" fill="#3DCC79" fill-rule="nonzero"></path>
                <path d="M44.064,45.516 C44.658,45.04 45.026,44.385 45.026,43.663 L45.026,41.457 C45.026,40.735 44.658,40.08 44.064,39.604 C43.464,39.124 42.634,38.828 41.717,38.828 L39.824,38.828 L39.824,46.292 L41.717,46.292 C42.634,46.292 43.464,45.995 44.064,45.516 Z M43.417,31.854 C41.751,31.854 40.242,32.53 39.149,33.622 C38.057,34.715 37.38,36.223 37.38,37.89 L37.38,46.382 C37.38,48.048 38.057,49.556 39.15,50.649 C40.243,51.741 41.752,52.416 43.417,52.416 L47.381,52.416 C49.047,52.416 50.556,51.742 51.648,50.649 C52.74,49.557 53.415,48.049 53.415,46.382 L53.415,37.89 C53.415,36.223 52.74,34.715 51.648,33.622 C50.556,32.53 49.047,31.854 47.381,31.854 L43.417,31.854 Z M25.077,42.534 C25.877,41.833 26.373,40.866 26.373,39.797 L26.373,33.643 C26.373,32.575 25.877,31.607 25.076,30.907 C24.271,30.203 23.159,29.768 21.929,29.768 L19.44,29.768 L19.44,43.671 L21.929,43.671 C23.16,43.671 24.272,43.237 25.077,42.534 Z M23.034,22.796 L33.793,22.796 C35.458,22.796 36.966,23.471 38.058,24.564 C39.149,25.655 39.824,27.163 39.824,28.83 L39.824,29.696 C39.824,29.742 39.788,29.781 39.741,29.784 C37.862,29.906 36.18,30.749 34.97,32.04 C33.769,33.324 33.033,35.048 33.033,36.946 L33.033,47.326 C33.033,47.798 33.079,48.26 33.165,48.705 C33.254,49.163 33.387,49.605 33.558,50.027 C33.563,50.038 33.566,50.05 33.566,50.064 C33.566,50.113 33.527,50.153 33.477,50.153 L23.034,50.153 C21.368,50.153 19.86,49.477 18.768,48.385 C17.676,47.293 17,45.785 17,44.119 L17,28.83 C17,27.163 17.676,25.654 18.767,24.563 C19.859,23.471 21.367,22.796 23.034,22.796 Z M48.887,28.546 C48.887,28.883 48.75,29.189 48.529,29.41 C48.307,29.631 48.001,29.768 47.664,29.768 L43.135,29.768 C42.798,29.768 42.493,29.631 42.271,29.41 C42.05,29.189 41.912,28.883 41.912,28.546 C41.912,28.209 42.05,27.904 42.272,27.682 C42.493,27.461 42.798,27.325 43.135,27.325 L47.664,27.325 C48.001,27.325 48.307,27.461 48.529,27.683 C48.75,27.904 48.887,28.209 48.887,28.546 Z M35.298,18.355 C35.298,19.003 35.035,19.592 34.609,20.018 C34.182,20.444 33.593,20.707 32.944,20.707 L23.88,20.707 C23.232,20.707 22.644,20.443 22.218,20.017 C21.792,19.591 21.529,19.003 21.529,18.355 C21.529,17.705 21.792,17.117 22.217,16.691 C22.644,16.264 23.232,16 23.88,16 L32.944,16 C33.594,16 34.183,16.263 34.609,16.69 C35.035,17.116 35.298,17.705 35.298,18.355 Z" id="Fill-22" fill="#FFFFFF"></path>
            </g>
        </g>
    </g>
</svg>