<?xml version="1.0" encoding="UTF-8"?>
<svg width="70px" height="70px" viewBox="0 0 70 70" version="1.1" xmlns="http://www.w3.org/2000/svg" xmlns:xlink="http://www.w3.org/1999/xlink">
    <!-- Generator: Sketch 52.4 (67378) - http://www.bohemiancoding.com/sketch -->
    <title>icon-4</title>
    <desc>Created with Sketch.</desc>
    <g id="Desktop-Website" stroke="none" stroke-width="1" fill="none" fill-rule="evenodd">
        <g id="Homepage" transform="translate(-903.000000, -81.000000)">
            <g id="icon-4" transform="translate(903.000000, 81.000000)">
                <path d="M7.96449871,2.14765663 C16.9419365,0.715885545 25.9395593,1.10436296e-15 34.9573673,0 C43.9806991,0 53.0041201,0.716762855 62.0276302,2.15028857 L62.0276304,2.1502877 C65.0222789,2.62603446 67.370137,4.97575044 67.8435149,7.97077437 C69.2811716,17.0667137 70,26.1119828 70,35.1065818 C70,44.0809917 69.2843949,53.0551792 67.8531848,62.0291443 L67.853183,62.029144 C67.3757652,65.0226461 65.0258072,67.368702 62.0315157,67.8411441 C52.9097737,69.2803814 43.8534505,70 34.8625462,70 C25.8922376,70 16.9222161,69.2836745 7.95248185,67.8510235 L7.95248166,67.8510247 C4.96569582,67.3739736 2.62313106,65.032516 2.14466797,62.0459561 C0.714889325,53.1212976 5.52989512e-16,44.1434663 0,35.1124622 C0,26.0630684 0.71780373,17.0134392 2.15341119,7.96357452 L2.1534139,7.96357495 C2.62800867,4.9717972 4.97311658,2.62473869 7.96449871,2.14765663 Z" id="Rectangle" fill="#FFBE4F" fill-rule="nonzero"></path>
                <path d="M43.226,27.193 L47.385,27.193 C49.046,27.193 50.552,27.718 51.642,28.566 C52.739,29.42 53.418,30.601 53.418,31.905 L53.418,38.512 C53.418,39.816 52.739,40.998 51.642,41.851 C50.552,42.7 49.046,43.225 47.385,43.225 L43.226,43.225 L43.226,47.384 C43.226,49.046 42.702,50.552 41.853,51.643 C40.999,52.739 39.817,53.418 38.512,53.418 L31.906,53.418 C30.599,53.418 29.418,52.74 28.564,51.643 C27.716,50.553 27.191,49.046 27.191,47.384 L27.191,43.225 L23.033,43.225 C21.372,43.225 19.867,42.7 18.776,41.851 C17.679,40.998 17,39.816 17,38.512 L17,31.905 C17,30.601 17.679,29.42 18.775,28.566 C19.867,27.718 21.372,27.193 23.033,27.193 L27.191,27.193 L27.191,23.033 C27.191,21.371 27.716,19.865 28.564,18.774 C29.418,17.678 30.599,17 31.906,17 L38.512,17 C39.817,17 40.999,17.679 41.853,18.775 C42.702,19.866 43.226,21.372 43.226,23.033 L43.226,27.193" id="Fill-7" fill="#FFFFFF"></path>
            </g>
        </g>
    </g>
</svg>