<?xml version="1.0" encoding="UTF-8"?>
<svg width="70px" height="70px" viewBox="0 0 70 70" version="1.1" xmlns="http://www.w3.org/2000/svg" xmlns:xlink="http://www.w3.org/1999/xlink">
    <!-- Generator: Sketch 52.4 (67378) - http://www.bohemiancoding.com/sketch -->
    <title>icon-2</title>
    <desc>Created with Sketch.</desc>
    <g id="Desktop-Website" stroke="none" stroke-width="1" fill="none" fill-rule="evenodd">
        <g id="Homepage" transform="translate(-1065.000000, -218.000000)">
            <g id="icon-2" transform="translate(1065.000000, 218.000000)">
                <path d="M7.96449871,2.14765663 C16.9419365,0.715885545 25.9395593,1.10436296e-15 34.9573673,0 C43.9806991,0 53.0041201,0.716762855 62.0276302,2.15028857 L62.0276304,2.1502877 C65.0222789,2.62603446 67.370137,4.97575044 67.8435149,7.97077437 C69.2811716,17.0667137 70,26.1119828 70,35.1065818 C70,44.0809917 69.2843949,53.0551792 67.8531848,62.0291443 L67.853183,62.029144 C67.3757652,65.0226461 65.0258072,67.368702 62.0315157,67.8411441 C52.9097737,69.2803814 43.8534505,70 34.8625462,70 C25.8922376,70 16.9222161,69.2836745 7.95248185,67.8510235 L7.95248166,67.8510247 C4.96569582,67.3739736 2.62313106,65.032516 2.14466797,62.0459561 C0.714889325,53.1212976 5.52989512e-16,44.1434663 0,35.1124622 C0,26.0630684 0.71780373,17.0134392 2.15341119,7.96357452 L2.1534139,7.96357495 C2.62800867,4.9717972 4.97311658,2.62473869 7.96449871,2.14765663 Z" id="Rectangle" fill="#FF695B" fill-rule="nonzero"></path>
                <path d="M34.7750058,30.59 C38.5320058,30.59 41.5720058,27.546 41.5720058,23.794 C41.5720058,20.04 38.5320058,17 34.7750058,17 C31.0230058,17 27.9800058,20.04 27.9800058,23.794 C27.9800058,27.546 31.0230058,30.59 34.7750058,30.59 Z M31.0040058,40.576 C31.0040058,41.054 30.5040058,41.442 29.8890058,41.442 L29.0940058,41.442 L29.0940058,42.238 C29.0940058,42.854 28.7030058,43.352 28.2280058,43.352 L26.9880058,43.352 C26.5090058,43.352 26.1220058,42.854 26.1220058,42.238 L26.1220058,41.442 L25.3270058,41.442 C24.7120058,41.442 24.2100058,41.054 24.2100058,40.576 L24.2100058,39.336 C24.2100058,38.856 24.7120058,38.469 25.3270058,38.469 L26.1220058,38.469 L26.1220058,37.673 C26.1220058,37.057 26.5090058,36.558 26.9880058,36.558 L28.2280058,36.558 C28.7030058,36.558 29.0940058,37.057 29.0940058,37.673 L29.0940058,38.469 L29.8890058,38.469 C30.5040058,38.469 31.0040058,38.856 31.0040058,39.336 L31.0040058,40.576 Z M40.8240058,32.759 L37.1660058,32.759 C37.1860058,33.112 37.2300058,34.812 36.2580058,35.527 C36.2580058,35.527 37.8360058,43.754 37.1750058,46.522 C36.8970058,47.681 35.8680058,50.074 34.6780058,50.054 C33.5140058,50.032 32.6100058,47.666 32.3800058,46.522 C31.8120058,43.725 33.7110058,35.537 33.7110058,35.537 C33.4250058,35.421 32.8950058,34.908 32.7570058,32.759 L28.7260058,32.759 L28.7260058,32.756 C25.0350058,32.756 21.5830058,35.827 22.0410058,39.55 L22.9960058,46.554 C23.7400058,50.267 25.4610058,53.239 29.1530058,53.239 L40.4020058,53.239 C44.0940058,53.239 45.8120058,50.161 46.5550058,46.448 L47.5100058,39.444 C47.9860058,35.791 44.5170058,32.759 40.8240058,32.759 Z" id="Fill-8" fill="#FFFFFF"></path>
            </g>
        </g>
    </g>
</svg>