<svg width="102" height="102" viewBox="0 0 102 102" fill="none" xmlns="http://www.w3.org/2000/svg">
<path d="M96.7241 0.879395H5.27586C2.37414 0.879395 0 3.25353 0 6.15526C0 9.05698 2.37414 11.4311 5.27586 11.4311V6.15526H96.7241V11.4311C99.6259 11.4311 102 9.05698 102 6.15526C102 3.25353 99.6259 0.879395 96.7241 0.879395Z" fill="#3D465B"/>
<path d="M8.79263 90.5691L19.3444 101.121L29.8961 90.5691L40.4478 101.121L50.9995 90.5691L61.5513 101.121L72.103 90.5691L82.6547 101.121L93.2064 90.5691L96.7237 94.0863V6.15527H5.27539V94.0863L8.79263 90.5691Z" fill="#F0EDE0"/>
<path d="M75.6204 72.9831H49.241C48.2703 72.9831 47.4824 72.197 47.4824 71.2244C47.4824 70.2519 48.2703 69.4658 49.241 69.4658H75.6204C76.5911 69.4658 77.379 70.2519 77.379 71.2244C77.379 72.197 76.5911 72.9831 75.6204 72.9831Z" fill="#D4C3A5"/>
<path d="M84.4129 72.9831C83.9557 72.9831 83.4984 72.7896 83.1643 72.4731C82.8477 72.1389 82.6543 71.6817 82.6543 71.2244C82.6543 70.7478 82.8477 70.3082 83.1643 69.9758C83.8326 69.3251 84.9933 69.3251 85.6615 69.9758C85.9781 70.3082 86.1715 70.7478 86.1715 71.2244C86.1715 71.6817 85.9781 72.1389 85.6615 72.4731C85.3274 72.7896 84.8702 72.9831 84.4129 72.9831Z" fill="#D4C3A5"/>
<path d="M84.4133 48.362H58.034C57.0633 48.362 56.2754 47.5759 56.2754 46.6033C56.2754 45.6308 57.0633 44.8447 58.034 44.8447H84.4133C85.3841 44.8447 86.1719 45.6308 86.1719 46.6033C86.1719 47.5759 85.3841 48.362 84.4133 48.362Z" fill="#D4C3A5"/>
<path d="M84.4132 60.6725H66.827C65.8562 60.6725 65.0684 59.8864 65.0684 58.9139C65.0684 57.9414 65.8562 57.1553 66.827 57.1553H84.4132C85.3839 57.1553 86.1718 57.9414 86.1718 58.9139C86.1718 59.8864 85.3839 60.6725 84.4132 60.6725Z" fill="#D4C3A5"/>
<path d="M52.7583 60.6725H49.241C48.2703 60.6725 47.4824 59.8864 47.4824 58.9139C47.4824 57.9414 48.2703 57.1553 49.241 57.1553H52.7583C53.729 57.1553 54.5169 57.9414 54.5169 58.9139C54.5169 59.8864 53.729 60.6725 52.7583 60.6725Z" fill="#D4C3A5"/>
<path d="M75.6204 36.0519H49.241C48.2703 36.0519 47.4824 35.2658 47.4824 34.2933C47.4824 33.3208 48.2703 32.5347 49.241 32.5347H75.6204C76.5911 32.5347 77.379 33.3208 77.379 34.2933C77.379 35.2658 76.5911 36.0519 75.6204 36.0519Z" fill="#D4C3A5"/>
<path d="M84.4129 36.0519C83.9557 36.0519 83.4984 35.8585 83.1643 35.5419C82.8477 35.2078 82.6543 34.7505 82.6543 34.2933C82.6543 33.8167 82.8477 33.377 83.1643 33.0447C83.815 32.394 85.0108 32.394 85.6615 33.0447C85.9781 33.377 86.1715 33.836 86.1715 34.2933C86.1715 34.7505 85.9781 35.2078 85.6615 35.5419C85.3274 35.8585 84.8877 36.0519 84.4129 36.0519Z" fill="#D4C3A5"/>
<path d="M51.0008 48.362C50.5436 48.362 50.0863 48.1685 49.7522 47.852C49.4356 47.5178 49.2422 47.0782 49.2422 46.6033C49.2422 46.1268 49.4356 45.6871 49.7522 45.3547C50.4205 44.704 51.5987 44.704 52.2494 45.3547C52.566 45.6871 52.7594 46.1268 52.7594 46.6033C52.7594 47.0782 52.566 47.5178 52.2494 47.852C51.9153 48.1685 51.458 48.362 51.0008 48.362Z" fill="#D4C3A5"/>
<path d="M59.7938 60.6725C59.3365 60.6725 58.8793 60.4791 58.5452 60.1625C58.2286 59.8284 58.0352 59.3711 58.0352 58.9139C58.0352 58.4566 58.2286 57.9976 58.5452 57.6653C59.2134 57.0146 60.3917 57.0146 61.0424 57.6653C61.3589 57.9818 61.5524 58.4373 61.5524 58.9139C61.5524 59.3887 61.3589 59.8284 61.0424 60.1625C60.7083 60.4791 60.251 60.6725 59.7938 60.6725Z" fill="#D4C3A5"/>
<path fill-rule="evenodd" clip-rule="evenodd" d="M31.6549 44.845C31.6549 45.8175 32.4428 46.6036 33.4135 46.6036C34.3843 46.6036 35.1721 45.8175 35.1721 44.845C35.1721 40.5997 32.1456 37.0473 28.1377 36.2295V34.2933C28.1377 33.3208 27.3498 32.5347 26.379 32.5347C25.4083 32.5347 24.6204 33.3208 24.6204 34.2933V36.2348C22.7018 36.6252 20.9537 37.6435 19.6646 39.1682C18.5901 40.4379 18.0924 42.0629 18.2683 43.7459C18.4477 45.4676 19.334 47.0644 20.7005 48.1266L24.6204 51.176V60.7394C22.5787 60.0114 21.1032 58.0769 21.1032 55.7872C21.1032 54.8146 20.3153 54.0285 19.3446 54.0285C18.3738 54.0285 17.5859 54.8146 17.5859 55.7872C17.5859 60.0325 20.6125 63.5849 24.6204 64.4026V65.9485C24.6204 66.921 25.4083 67.7071 26.379 67.7071C27.3498 67.7071 28.1377 66.921 28.1377 65.9485V64.3974C30.0563 64.0069 31.8044 62.9887 33.0952 61.464C34.1697 60.1907 34.6657 58.5658 34.4898 56.8828C34.3087 55.1628 33.4241 53.5678 32.0576 52.5073L28.1377 49.4579V39.8945C30.1794 40.6208 31.6549 42.5553 31.6549 44.845ZM29.898 55.2824C30.5118 55.759 30.911 56.4783 30.9919 57.2486C31.0675 57.9696 30.86 58.6607 30.4098 59.1918C29.7978 59.9146 29.0064 60.4211 28.1377 60.7306V53.9107L29.898 55.2824ZM21.7662 43.3818C21.8471 44.1539 22.2445 44.8732 22.86 45.3515L24.6204 46.7197V39.9015C23.7517 40.211 22.9603 40.7175 22.3483 41.4403C21.8981 41.9732 21.6923 42.6626 21.7662 43.3818Z" fill="#24AE5F"/>
<path d="M10.5516 20.2243C10.0943 20.2243 9.63711 20.0308 9.30297 19.7143C8.98642 19.3801 8.79297 18.9229 8.79297 18.4656C8.79297 18.0084 8.98642 17.5494 9.30297 17.217C9.97124 16.5663 11.1495 16.5663 11.8002 17.217C12.1168 17.5494 12.3102 18.0084 12.3102 18.4656C12.3102 18.9229 12.1168 19.3801 11.8002 19.7143C11.4661 20.0308 11.0088 20.2243 10.5516 20.2243Z" fill="#A5A5A4"/>
<path fill-rule="evenodd" clip-rule="evenodd" d="M17.2879 16.707C16.3207 16.707 15.5293 17.4984 15.5293 18.4657C15.5293 19.4329 16.3207 20.2243 17.2879 20.2243C18.2727 20.2243 19.0465 19.4329 19.0465 18.4657C19.0465 17.4984 18.2727 16.707 17.2879 16.707ZM22.2824 18.4657C22.2824 17.4984 23.0562 16.707 24.041 16.707C25.0083 16.707 25.7996 17.4984 25.7996 18.4657C25.7996 19.4329 25.0083 20.2243 24.041 20.2243C23.0562 20.2243 22.2824 19.4329 22.2824 18.4657ZM30.7765 16.707C29.8093 16.707 29.0179 17.4984 29.0179 18.4657C29.0179 19.4329 29.8093 20.2243 30.7765 20.2243C31.7438 20.2243 32.5352 19.4329 32.5352 18.4657C32.5352 17.4984 31.7438 16.707 30.7765 16.707ZM35.7534 18.4657C35.7534 17.4984 36.5448 16.707 37.5121 16.707C38.4969 16.707 39.2707 17.4984 39.2707 18.4657C39.2707 19.4329 38.4969 20.2243 37.5121 20.2243C36.5448 20.2243 35.7534 19.4329 35.7534 18.4657ZM44.2652 16.707C43.2803 16.707 42.5065 17.4984 42.5065 18.4657C42.5065 19.4329 43.2803 20.2243 44.2652 20.2243C45.2324 20.2243 46.0238 19.4329 46.0238 18.4657C46.0238 17.4984 45.2324 16.707 44.2652 16.707ZM49.2421 18.4657C49.2421 17.4984 50.0334 16.707 51.0007 16.707C51.9679 16.707 52.7593 17.4984 52.7593 18.4657C52.7593 19.4329 51.9679 20.2243 51.0007 20.2243C50.0334 20.2243 49.2421 19.4329 49.2421 18.4657ZM57.7362 16.707C56.769 16.707 55.9776 17.4984 55.9776 18.4657C55.9776 19.4329 56.769 20.2243 57.7362 20.2243C58.721 20.2243 59.4948 19.4329 59.4948 18.4657C59.4948 17.4984 58.721 16.707 57.7362 16.707ZM62.7307 18.4657C62.7307 17.4984 63.5045 16.707 64.4893 16.707C65.4565 16.707 66.2479 17.4984 66.2479 18.4657C66.2479 19.4329 65.4565 20.2243 64.4893 20.2243C63.5045 20.2243 62.7307 19.4329 62.7307 18.4657ZM71.2248 16.707C70.2576 16.707 69.4662 17.4984 69.4662 18.4657C69.4662 19.4329 70.2576 20.2243 71.2248 20.2243C72.1921 20.2243 72.9834 19.4329 72.9834 18.4657C72.9834 17.4984 72.1921 16.707 71.2248 16.707ZM76.2017 18.4657C76.2017 17.4984 76.9931 16.707 77.9603 16.707C78.9452 16.707 79.7189 17.4984 79.7189 18.4657C79.7189 19.4329 78.9452 20.2243 77.9603 20.2243C76.9931 20.2243 76.2017 19.4329 76.2017 18.4657ZM82.9548 18.4657C82.9548 17.4984 83.7286 16.707 84.7134 16.707C85.6807 16.707 86.4721 17.4984 86.4721 18.4657C86.4721 19.4329 85.6807 20.2243 84.7134 20.2243C83.7286 20.2243 82.9548 19.4329 82.9548 18.4657Z" fill="#A5A5A4"/>
<path d="M91.4481 20.2243C90.9732 20.2243 90.5336 20.0308 90.1995 19.6967C89.8829 19.3801 89.6895 18.9229 89.6895 18.4656C89.6895 18.0084 89.8829 17.5494 90.1995 17.217C90.8326 16.5663 92.0284 16.5663 92.6967 17.217C93.0132 17.5494 93.2067 18.0084 93.2067 18.4656C93.2067 18.9229 93.0132 19.3801 92.6967 19.7143C92.3626 20.0308 91.9053 20.2243 91.4481 20.2243Z" fill="#A5A5A4"/>
</svg>
