<svg width="102" height="102" viewBox="0 0 102 102" fill="none" xmlns="http://www.w3.org/2000/svg">
<path d="M15.5427 56.5184C14.6035 56.5184 13.6813 56.0779 13.0976 55.2546C12.1467 53.9037 12.4673 52.0422 13.8159 51.0874L30.9456 40.0509C32.3028 39.1054 34.1619 39.4237 35.1129 40.7692C36.0638 42.1202 35.7432 43.9816 34.3946 44.9365L17.2649 55.9729C16.7396 56.341 16.1388 56.5184 15.5427 56.5184Z" fill="#C4B3AF"/>
<path d="M43.3978 40.8032C42.015 40.8032 40.7714 39.8375 40.4773 38.4313C40.1356 36.8173 41.1714 35.2298 42.7854 34.8912L57.9836 31.3777C59.5914 31.0477 61.1843 32.0718 61.5236 33.6858C61.8645 35.2998 60.8287 36.8873 59.2147 37.2258L44.0165 40.7394C43.8095 40.783 43.6025 40.8032 43.3978 40.8032Z" fill="#C4B3AF"/>
<path d="M68.9153 32.0869C68.0928 32.0869 67.2726 31.7484 66.6835 31.083C65.5862 29.8519 65.6967 27.9609 66.9309 26.866L84.8902 10.9036C86.1182 9.80009 88.0069 9.91137 89.1065 11.1518C90.2037 12.3829 90.0932 14.2739 88.859 15.3681L70.8997 31.3313C70.3309 31.8387 69.6219 32.0869 68.9153 32.0869Z" fill="#C4B3AF"/>
<path d="M17.9297 71.918H2.98828C1.31438 71.918 0 73.2323 0 74.9062V99.0117C0 100.685 1.31438 102 2.98828 102H17.9297C19.6036 102 20.918 100.685 20.918 99.0117V74.9062C20.918 73.2323 19.6036 71.918 17.9297 71.918Z" fill="#656366"/>
<path d="M45.0234 53.9883H30.082C28.4081 53.9883 27.0938 55.3027 27.0938 56.9766V99.0117C27.0938 100.685 28.4081 102 30.082 102H45.0234C46.6973 102 48.0117 100.685 48.0117 99.0117V56.9766C48.0117 55.3027 46.6973 53.9883 45.0234 53.9883Z" fill="#FFD400"/>
<path d="M71.918 48.0117H56.9766C55.3027 48.0117 53.9883 49.3261 53.9883 51V99.0117C53.9883 100.685 55.3027 102 56.9766 102H71.918C73.5919 102 74.9062 100.685 74.9062 99.0117V51C74.9062 49.3261 73.5919 48.0117 71.918 48.0117Z" fill="#90E36A"/>
<path d="M99.0117 24.1055H84.0703C82.3964 24.1055 81.082 25.4198 81.082 27.0938V99.0117C81.082 100.685 82.3964 102 84.0703 102H99.0117C100.686 102 102 100.685 102 99.0117V27.0938C102 25.4198 100.686 24.1055 99.0117 24.1055Z" fill="#FF8597"/>
<path d="M10.6582 48.0117C5.69719 48.0117 1.69336 52.0155 1.69336 56.9766C1.69336 61.9368 5.69719 65.9414 10.6582 65.9414C15.6192 65.9414 19.623 61.9368 19.623 56.9766C19.623 52.0155 15.6192 48.0117 10.6582 48.0117Z" fill="#DFD7D5"/>
<path d="M37.5527 30.082C32.5917 30.082 28.5879 34.0859 28.5879 39.0469C28.5879 44.0071 32.5917 48.0117 37.5527 48.0117C42.5137 48.0117 46.5176 44.0071 46.5176 39.0469C46.5176 34.0859 42.5137 30.082 37.5527 30.082Z" fill="#DFD7D5"/>
<path d="M64.4473 24.1055C59.4863 24.1055 55.4824 28.1093 55.4824 33.0703C55.4824 38.0305 59.4863 42.0352 64.4473 42.0352C69.4083 42.0352 73.4121 38.0305 73.4121 33.0703C73.4121 28.1093 69.4083 24.1055 64.4473 24.1055Z" fill="#DFD7D5"/>
<path d="M91.3418 0C86.3808 0 82.377 4.00383 82.377 8.96484C82.377 13.9251 86.3808 17.9297 91.3418 17.9297C96.3028 17.9297 100.307 13.9251 100.307 8.96484C100.307 4.00383 96.3028 0 91.3418 0Z" fill="#DFD7D5"/>
<path d="M91.3418 17.9297V0C96.3028 0 100.307 4.00383 100.307 8.96484C100.307 13.9251 96.3028 17.9297 91.3418 17.9297Z" fill="#D2C5C2"/>
<path d="M91.3418 11.9531C89.6944 11.9531 88.3535 10.6123 88.3535 8.96484C88.3535 7.3174 89.6944 5.97656 91.3418 5.97656C92.9892 5.97656 94.3301 7.3174 94.3301 8.96484C94.3301 10.6123 92.9892 11.9531 91.3418 11.9531Z" fill="#4A696F"/>
<path d="M94.3301 8.96484C94.3301 7.3174 92.9892 5.97656 91.3418 5.97656V11.9531C92.9892 11.9531 94.3301 10.6123 94.3301 8.96484Z" fill="#3E5959"/>
<path d="M102 27.0938V99.0117C102 100.685 100.686 102 99.0117 102H91.541V24.1055H99.0117C100.686 24.1055 102 25.4198 102 27.0938Z" fill="#F4665B"/>
<path d="M64.4473 42.0352V24.1055C69.4083 24.1055 73.4121 28.1093 73.4121 33.0703C73.4121 38.0305 69.4083 42.0352 64.4473 42.0352Z" fill="#D2C5C2"/>
<path d="M64.4473 36.0586C62.7998 36.0586 61.459 34.7178 61.459 33.0703C61.459 31.4229 62.7998 30.082 64.4473 30.082C66.0947 30.082 67.4355 31.4229 67.4355 33.0703C67.4355 34.7178 66.0947 36.0586 64.4473 36.0586Z" fill="#4A696F"/>
<path d="M67.4355 33.0703C67.4355 31.4229 66.0947 30.082 64.4473 30.082V36.0586C66.0947 36.0586 67.4355 34.7178 67.4355 33.0703Z" fill="#3E5959"/>
<path d="M74.9062 51V99.0117C74.9062 100.685 73.5919 102 71.918 102H64.4473V48.0117H71.918C73.5919 48.0117 74.9062 49.3261 74.9062 51Z" fill="#3CCB79"/>
<path d="M37.5527 48.0117V30.082C42.5137 30.082 46.5176 34.0859 46.5176 39.0469C46.5176 44.0071 42.5137 48.0117 37.5527 48.0117Z" fill="#D2C5C2"/>
<path d="M37.5527 42.0352C35.9053 42.0352 34.5645 40.6943 34.5645 39.0469C34.5645 37.3994 35.9053 36.0586 37.5527 36.0586C39.2002 36.0586 40.541 37.3994 40.541 39.0469C40.541 40.6943 39.2002 42.0352 37.5527 42.0352Z" fill="#4A696F"/>
<path d="M40.541 39.0469C40.541 37.3994 39.2002 36.0586 37.5527 36.0586V42.0352C39.2002 42.0352 40.541 40.6943 40.541 39.0469Z" fill="#3E5959"/>
<path d="M48.0117 56.9766V99.0117C48.0117 100.685 46.6973 102 45.0234 102H37.5527V53.9883H45.0234C46.6973 53.9883 48.0117 55.3027 48.0117 56.9766Z" fill="#FF9F00"/>
<path d="M10.6582 65.9414V48.0117C15.6192 48.0117 19.623 52.0155 19.623 56.9766C19.623 61.9368 15.6192 65.9414 10.6582 65.9414Z" fill="#D2C5C2"/>
<path d="M10.6582 59.9648C9.01076 59.9648 7.66992 58.624 7.66992 56.9766C7.66992 55.3291 9.01076 53.9883 10.6582 53.9883C12.3056 53.9883 13.6465 55.3291 13.6465 56.9766C13.6465 58.624 12.3056 59.9648 10.6582 59.9648Z" fill="#4A696F"/>
<path d="M13.6465 56.9766C13.6465 55.3291 12.3056 53.9883 10.6582 53.9883V59.9648C12.3056 59.9648 13.6465 58.624 13.6465 56.9766Z" fill="#3E5959"/>
<path d="M20.918 74.9062V99.0117C20.918 100.685 19.6036 102 17.9297 102H10.459V71.918H17.9297C19.6036 71.918 20.918 73.2323 20.918 74.9062Z" fill="black"/>
</svg>
