<svg width="133" height="133" viewBox="0 0 133 133" fill="none" xmlns="http://www.w3.org/2000/svg">
<g clip-path="url(#clip0)">
<path d="M89.6097 50.8727C88.9448 50.8727 88.4461 50.7065 87.7809 50.7065C67.3322 50.7065 50.707 67.3315 50.707 87.9466C50.707 88.6114 50.707 89.1102 50.8732 89.7753C51.8707 109.559 67.9969 125.187 87.947 125.187C108.396 125.187 125.187 108.562 125.187 87.9466C125.021 67.9964 109.393 51.704 89.6097 50.8727Z" fill="#E1E6E9"/>
<path d="M50.7064 87.9464C50.7064 67.3313 67.3313 50.7064 87.9464 50.7064C88.6113 50.7064 89.11 50.7064 89.7752 50.8725C89.9413 49.0438 90.1078 47.0488 90.1078 45.0539C90.1078 44.389 90.1078 43.5577 89.9416 42.8925C88.9439 19.1189 69.3263 0 45.0539 0C20.1163 0 0 20.1163 0 45.0539C0 69.3265 19.1189 88.9439 42.8925 90.1078C43.5574 90.1078 44.3887 90.2739 45.0539 90.2739C47.0488 90.2739 48.8776 90.1077 50.8725 89.9413C50.8725 89.11 50.7064 88.4451 50.7064 87.9464Z" fill="#3DC879" fill-opacity="0.38"/>
<path d="M89.7757 50.8726C87.1156 71.1551 71.1555 87.1151 50.873 89.7752C51.8705 109.393 67.9967 125.186 87.9469 125.186C108.396 125.186 125.187 108.561 125.187 87.9464C125.02 67.9962 109.393 51.87 89.7757 50.8726Z" fill="#E1E6E9"/>
<path d="M89.7758 50.8727C89.1109 50.8727 88.6122 50.7065 87.947 50.7065C67.332 50.7065 50.707 67.3315 50.707 87.9465C50.707 88.6114 50.707 89.1102 50.8732 89.7753C71.1557 87.1152 87.1157 71.1552 89.7758 50.8727Z" fill="#D5D6DB"/>
<path d="M90.1078 42.8922C89.4429 42.8922 88.6116 42.7261 87.9465 42.7261C63.0089 42.7261 42.8926 62.8424 42.8926 87.7799C42.8926 88.4448 42.8926 89.2761 43.0587 89.9413C44.0562 113.881 63.6738 133 87.9462 133C112.884 133 133 112.884 133 87.9461C133 63.6735 113.882 44.0561 90.1078 42.8922ZM87.9467 125.02C67.9968 125.02 51.8703 109.392 50.8729 89.6085C50.8729 88.9436 50.7067 88.4448 50.7067 87.7797C50.7067 67.331 67.3316 50.7058 87.9467 50.7058C88.6116 50.7058 89.1103 50.7058 89.7755 50.872C109.559 51.8694 125.187 67.9956 125.187 87.9458C125.02 108.395 108.395 125.02 87.9467 125.02Z" fill="#D5D6DB"/>
</g>
<defs>
<clipPath id="clip0">
<rect width="133" height="133" fill="white"/>
</clipPath>
</defs>
</svg>
