<svg width="133" height="133" viewBox="0 0 133 133" fill="none" xmlns="http://www.w3.org/2000/svg">
<g clip-path="url(#clip0)">
<path d="M123.858 61.5434V124.591H9.14355V61.5434C9.14355 57.5445 12.3837 54.3013 16.3854 54.3013H116.616C120.614 54.3016 123.858 57.5449 123.858 61.5434Z" fill="#808080"/>
<path d="M115.924 62.2354V116.657H17.0771V62.2354H115.924Z" fill="#29ABE2"/>
<path d="M116.616 54.3018H54.6006L56.5545 60.7128H106.201L106.23 61.5728L106.252 62.2354H115.925V116.657H73.6039L75.8282 123.956H123.858V61.5436C123.858 57.545 120.615 54.3018 116.616 54.3018Z" fill="#A9A9A9"/>
<path d="M81.6438 101.644H69.0283L69.3479 102.693L75.3295 103.706C75.6466 103.759 75.9658 103.786 76.2844 103.786C77.2533 103.786 78.2129 103.541 79.0682 103.068L81.6438 101.644ZM115.924 62.2354H106.252L107.616 101.644H97.8078L97.75 101.685L78.7632 113.683C77.2514 114.638 75.5088 115.137 73.7419 115.137C73.5394 115.137 73.3369 115.13 73.1341 115.117L73.6035 116.657H115.924V62.2354Z" fill="#6EC6EB"/>
<path d="M56.5546 60.7124H39.6061L39.5537 62.235H57.0185L56.5546 60.7124Z" fill="#676767"/>
<path d="M57.018 62.2354H39.5529L38.9867 78.6428L38.3098 98.1881C37.9503 98.4363 37.5856 98.6778 37.2128 98.9078L17.0771 112.03V116.657H40.0847L46.6094 112.37C47.3853 111.859 48.2903 111.59 49.2103 111.59C49.4452 111.59 49.681 111.607 49.9161 111.643L72.343 115.032C72.606 115.072 72.8704 115.1 73.1341 115.118L69.3475 102.693L63.1596 101.644H69.028L57.018 62.2354Z" fill="#2C84AA"/>
<path d="M106.2 60.7124H56.5537L57.0177 62.235H106.252L106.229 61.5724L106.2 60.7124Z" fill="#838383"/>
<path d="M106.252 62.2354H57.0176L69.0275 101.644H81.643L79.0671 103.068C78.2118 103.541 77.2522 103.786 76.2833 103.786C75.965 103.786 75.6458 103.76 75.3284 103.706L69.3468 102.693L73.1334 115.118C73.3361 115.131 73.5386 115.137 73.7411 115.137C75.5081 115.137 77.2503 114.638 78.7624 113.684L97.7493 101.685L97.807 101.644H107.616L106.252 62.2354Z" fill="#5B97B0"/>
<path d="M107.616 95.233H38.1904L38.987 72.2318L40.9164 16.4043H104.89L106.229 55.1618L107.616 95.233Z" fill="#3DC879"/>
<path d="M97.7496 97.343L78.7628 109.342C76.8524 110.548 74.5739 111.027 72.3429 110.691L49.9161 107.301C48.761 107.127 47.5836 107.387 46.6094 108.028L33.4776 116.657H17.0771V107.688L37.2127 94.5662C38.8217 93.5729 40.3132 92.4082 41.6524 91.0912C42.9916 89.7711 44.1848 88.3049 45.2035 86.7119C46.9933 83.9129 50.0938 82.1897 53.4164 82.2532C54.1717 82.2659 54.927 82.3484 55.6791 82.4975L75.6402 86.4992C77.2047 86.8134 78.2805 88.1907 78.2805 89.7171C78.2805 89.9774 78.2487 90.2439 78.1821 90.5105C77.7696 92.167 76.1543 93.2333 74.4692 92.9572L61.8864 90.9135C61.7214 90.8881 61.5564 90.8723 61.3945 90.8723C59.849 90.8723 58.5098 92.0528 58.367 93.6427C58.2242 95.2263 59.3222 96.6511 60.8899 96.9177L75.3292 99.3644C76.6112 99.5802 77.9314 99.3549 79.0675 98.7266L93.7606 90.6025C94.3604 90.2725 95.011 90.1138 95.652 90.1138C96.9499 90.1138 98.213 90.758 98.9587 91.9259C100.127 93.7538 99.5839 96.1846 97.7496 97.343Z" fill="#FCD18B"/>
<path d="M63.4458 53.6379C60.0546 53.6379 57.2959 50.8792 57.2959 47.4881C57.2959 44.0969 60.0546 41.3379 63.4458 41.3379C66.8369 41.3379 69.5959 44.0969 69.5959 47.4881C69.5959 50.8792 66.8369 53.6379 63.4458 53.6379ZM63.4458 43.9554C61.4979 43.9554 59.9134 45.5402 59.9134 47.4881C59.9134 49.4359 61.4979 51.0204 63.4458 51.0204C65.3936 51.0204 66.9785 49.4359 66.9785 47.4881C66.9785 45.5402 65.3936 43.9554 63.4458 43.9554Z" fill="white"/>
<path d="M82.3611 70.3008C78.97 70.3008 76.2109 67.5418 76.2109 64.1506C76.2109 60.7595 78.97 58.0005 82.3611 58.0005C85.7523 58.0005 88.5113 60.7595 88.5113 64.1506C88.5113 67.5418 85.752 70.3008 82.3611 70.3008ZM82.3611 60.6183C80.4132 60.6183 78.8284 62.2028 78.8284 64.1506C78.8284 66.0985 80.4132 67.6833 82.3611 67.6833C84.309 67.6833 85.8938 66.0988 85.8938 64.1506C85.8935 62.2028 84.3087 60.6183 82.3611 60.6183Z" fill="white"/>
<path d="M68.5829 70.8747L71.1504 71.3843L77.2295 40.7576L74.662 40.248L68.5829 70.8747Z" fill="white"/>
<path d="M88.9456 27.7568C87.8229 27.7568 86.9124 26.8467 86.9124 25.7236V18.3389C86.9124 10.6887 80.8888 4.25162 73.2408 4.07042C65.3624 3.88382 58.8936 10.2387 58.8936 18.0758V25.7236C58.8936 26.8463 57.9835 27.7568 56.8604 27.7568C55.7376 27.7568 54.8271 26.8467 54.8271 25.7236V18.3789C54.8271 8.48121 62.6577 0.190863 72.5538 0.0033116C82.6799 -0.188683 90.9785 7.9925 90.9785 18.0755V25.7232C90.9789 26.8463 90.0684 27.7568 88.9456 27.7568Z" fill="#F9DE58"/>
<path d="M132.188 123.956C132.188 128.951 128.139 133 123.144 133H9.85815C7.36064 133 5.10114 131.988 3.46332 130.35C1.82581 128.716 0.813477 126.453 0.813477 123.956H132.188Z" fill="#4D4D4D"/>
<path d="M132.188 123.956H123.857H75.8274H67.0557L69.8134 133H123.143C128.138 133 132.188 128.951 132.188 123.956Z" fill="#868686"/>
</g>
<defs>
<clipPath id="clip0">
<rect width="133" height="133" fill="white"/>
</clipPath>
</defs>
</svg>
