<svg width="133" height="133" viewBox="0 0 133 133" fill="none" xmlns="http://www.w3.org/2000/svg">
<g clip-path="url(#clip0)">
<path d="M97.9086 22.8122C98.1477 13.1681 106.128 5.52471 115.773 5.70276C125.42 5.87975 133.114 13.8097 132.999 23.4569C132.884 33.1042 125.003 40.8487 115.356 40.796C105.709 40.7433 97.9128 32.9135 97.9033 23.2652C97.9033 23.1145 97.9054 22.9639 97.9086 22.8122Z" fill="#00ACEA"/>
<path d="M132.965 66.4176C132.965 76.0996 125.116 83.9484 115.434 83.9484C105.752 83.9484 97.9033 76.0996 97.9033 66.4176C97.9033 56.7356 105.752 48.8867 115.434 48.8867C125.116 48.8867 132.965 56.7356 132.965 66.4176Z" fill="#3DC879"/>
<path d="M97.9086 110.017C97.9054 109.868 97.9033 109.72 97.9033 109.571C97.9086 99.9386 105.69 92.1172 115.322 92.0613C124.955 92.0055 132.826 99.7374 132.943 109.37C133.06 119.001 125.378 126.922 115.747 127.1C106.116 127.277 98.1477 119.646 97.9086 110.017Z" fill="#00ACEA"/>
<path d="M34.0889 32.3306C48.418 32.3295 61.2185 41.2919 66.1206 54.7572C71.0216 68.2235 66.9781 83.3164 56.0024 92.5285C55.9108 86.8489 51.2805 82.2924 45.5998 82.2934H40.2436V79.4046C41.6269 78.3774 42.9291 77.2449 44.1375 76.0175C46.8135 73.3415 49.1702 70.2431 50.6399 66.7369C52.3962 62.5428 52.5984 57.922 50.8854 53.6773C49.874 51.172 47.709 48.7015 44.6801 49.421L44.5937 49.1597C43.4506 46.3552 41.3488 44.048 38.6623 42.6489C35.8251 41.2298 32.5518 40.9538 29.5165 41.8777C24.5765 43.3042 20.2444 46.6376 17.9329 51.2742C16.6107 53.9565 15.9881 56.9285 16.1229 59.9153C16.4443 67.683 20.8839 75.259 27.8551 78.8273V82.2934H22.5748C16.8952 82.2934 12.2659 86.8489 12.1753 92.5285C1.19856 83.3164 -2.84491 68.2235 2.05719 54.7572C6.95824 41.2919 19.7587 32.3295 34.0889 32.3306Z" fill="#00ACEA"/>
<path d="M45.5993 82.2935C51.2799 82.2924 55.9102 86.8489 56.0019 92.5286C43.3289 103.165 24.8467 103.165 12.1748 92.5286C12.2654 86.8489 16.8946 82.2935 22.5743 82.2935H27.8546V82.4905C27.8546 85.9102 30.6285 88.6842 34.0494 88.6842C37.4691 88.6842 40.2431 85.9102 40.2431 82.4905V82.2935H45.5993Z" fill="#3DC879"/>
<path d="M50.885 53.6773C52.5981 57.922 52.3958 62.5428 50.6395 66.7369C49.1698 70.2431 46.8131 73.3415 44.1371 76.0175C42.9287 77.2449 41.6265 78.3774 40.2432 79.4046V76.9825C44.1087 74.7101 46.4812 70.5602 46.4781 66.0753V60.9751L46.497 59.773C46.5592 56.8927 45.1569 54.1777 42.7728 52.5605C41.8278 51.9221 40.751 51.5059 39.6227 51.3416C33.4627 62.6176 22.3858 63.7027 21.9539 63.7396H21.9275C21.8453 63.7396 21.7674 63.7722 21.7094 63.8302C21.6515 63.8881 21.6199 63.9661 21.6199 64.0472V66.2323C21.6178 70.6813 23.9967 74.7912 27.8547 77.0068V78.8273C20.8835 75.2589 16.4439 67.683 16.1225 59.9153C15.9877 56.9285 16.6103 53.9565 17.9325 51.2742C20.244 46.6375 24.5761 43.3042 29.5161 41.8777C32.5514 40.9537 35.8247 41.2298 38.6619 42.6489C41.3484 44.048 43.4502 46.3552 44.5933 49.1597L44.6797 49.421C47.7086 48.7014 49.8736 51.172 50.885 53.6773Z" fill="#4B5D63"/>
<path d="M27.854 77.007C23.9959 74.7914 21.617 70.6816 21.6191 66.2325V64.0474C21.6191 63.9663 21.6507 63.8884 21.7087 63.8304C21.7666 63.7725 21.8446 63.7398 21.9268 63.7398H21.9531C22.3851 63.7029 33.4619 62.6178 39.622 51.3418C40.7503 51.5061 41.827 51.9223 42.772 52.5607C45.1562 54.1779 46.5584 56.8929 46.4963 59.7732L46.4773 60.9753V66.0755C46.4805 70.5604 44.1079 74.7103 40.2425 76.9827C38.3925 78.0689 36.2886 78.6473 34.1436 78.66C31.9375 78.681 29.7651 78.11 27.854 77.007Z" fill="#F7CAA5"/>
<path d="M40.243 82.2938V82.4908C40.243 85.9106 37.4691 88.6845 34.0493 88.6845C30.6285 88.6845 27.8545 85.9106 27.8545 82.4908V77.0071C29.7656 78.1102 31.938 78.6812 34.1441 78.6601C36.2891 78.6475 38.393 78.0691 40.243 76.9829V82.2938Z" fill="#EDB288"/>
<path d="M117.722 66.4175L120.547 63.592C121.179 62.9598 121.179 61.9358 120.547 61.3037C119.915 60.6716 118.891 60.6716 118.259 61.3037L115.433 64.1293L112.608 61.3037C111.976 60.6716 110.951 60.6716 110.318 61.3037C109.687 61.9358 109.686 62.9598 110.318 63.592L113.145 66.4175L110.318 69.2442C109.686 69.8763 109.687 70.9003 110.318 71.5325C110.951 72.1646 111.976 72.1646 112.608 71.5325L115.433 68.7069L118.259 71.5325C118.891 72.1646 119.915 72.1646 120.547 71.5325C121.179 70.9003 121.179 69.8763 120.547 69.2442L117.722 66.4175Z" fill="white"/>
<path d="M113.404 28.824C112.951 28.824 112.52 28.6355 112.213 28.3025L107.669 23.3752C107.27 22.9516 107.13 22.3459 107.302 21.7896C107.472 21.2344 107.929 20.813 108.497 20.6865C109.065 20.5612 109.657 20.7497 110.047 21.1806L113.5 24.9228L120.916 18.1317C121.579 17.5512 122.583 17.606 123.177 18.256C123.771 18.905 123.738 19.9101 123.101 20.518L114.495 28.3984C114.197 28.6723 113.807 28.824 113.404 28.824Z" fill="#FEDB41"/>
<path d="M113.404 115.13C112.951 115.13 112.52 114.941 112.213 114.609L107.669 109.681C107.27 109.258 107.13 108.652 107.302 108.096C107.472 107.54 107.929 107.119 108.497 106.993C109.065 106.867 109.657 107.056 110.047 107.487L113.5 111.229L120.916 104.438C121.341 104.032 121.951 103.888 122.511 104.061C123.072 104.233 123.495 104.696 123.618 105.269C123.74 105.843 123.543 106.437 123.101 106.824L114.495 114.704C114.197 114.978 113.807 115.13 113.404 115.13Z" fill="#FEDB41"/>
<path d="M98.3079 24.3434V21.1069H89.2191C88.293 21.1417 87.5503 21.8855 87.5197 22.8116V64.7992H76.7189L82.3311 59.1849C82.9632 58.5527 82.9642 57.5287 82.3321 56.8955C81.7 56.2634 80.6749 56.2624 80.0428 56.8945L71.9516 64.9856C71.3195 65.6178 71.3195 66.6418 71.9516 67.2739L80.0428 75.3651C80.6802 75.9593 81.6737 75.9424 82.29 75.3271C82.9063 74.7108 82.9242 73.7173 82.3311 73.0789L77.2857 68.0356H87.5197V110.016C87.5503 110.944 88.2909 111.691 89.2191 111.728H98.3079V108.491H90.7562V68.0356H97.2291V64.7992H90.7562V24.3434H98.3079Z" fill="#FEDB41"/>
</g>
<defs>
<clipPath id="clip0">
<rect width="133" height="133" fill="white"/>
</clipPath>
</defs>
</svg>
