<svg width="102" height="102" viewBox="0 0 102 102" fill="none" xmlns="http://www.w3.org/2000/svg">
<path d="M87.0586 72.1172H75.1055C66.8578 72.1172 60.1641 78.8109 60.1641 87.0586V99.0117C60.1641 100.685 61.4787 102 63.1523 102H99.0117C100.685 102 102 100.685 102 99.0117V87.0586C102 78.8109 95.3062 72.1172 87.0586 72.1172Z" fill="#368DCF"/>
<path d="M102 87.0586V99.0117C102 100.685 100.685 102 99.0117 102H81.082V72.1172H87.0586C95.3062 72.1172 102 78.8109 102 87.0586Z" fill="#2B75AD"/>
<path d="M26.8945 72.1172H14.9414C6.69375 72.1172 0 78.8109 0 87.0586V99.0117C0 100.685 1.31464 102 2.98828 102H38.8477C40.5213 102 41.8359 100.685 41.8359 99.0117V87.0586C41.8359 78.8109 35.1422 72.1172 26.8945 72.1172Z" fill="#CF0404"/>
<path d="M41.8359 87.0586V99.0117C41.8359 100.685 40.5213 102 38.8477 102H20.918V72.1172H26.8945C35.1422 72.1172 41.8359 78.8109 41.8359 87.0586Z" fill="#B80000"/>
<path d="M20.918 54.1875C14.3439 54.1875 8.96484 59.5666 8.96484 66.1406C8.96484 72.7146 14.3439 78.0938 20.918 78.0938C27.492 78.0938 32.8711 72.7146 32.8711 66.1406C32.8711 59.5666 27.492 54.1875 20.918 54.1875Z" fill="#FF3F2E"/>
<path d="M81.082 54.1875C74.508 54.1875 69.1289 59.5666 69.1289 66.1406C69.1289 72.7146 74.508 78.0938 81.082 78.0938C87.6561 78.0938 93.0352 72.7146 93.0352 66.1406C93.0352 59.5666 87.6561 54.1875 81.082 54.1875Z" fill="#4AB8F7"/>
<path d="M93.0352 66.1406C93.0352 72.7146 87.6561 78.0938 81.082 78.0938V54.1875C87.6561 54.1875 93.0352 59.5666 93.0352 66.1406Z" fill="#1EA1E3"/>
<path d="M32.8711 66.1406C32.8711 72.7146 27.492 78.0938 20.918 78.0938V54.1875C27.492 54.1875 32.8711 59.5666 32.8711 66.1406Z" fill="#CF0404"/>
<path d="M80.8832 7.23184C79.0304 6.39492 76.9982 5.97656 74.9066 5.97656H55.363C53.8689 5.97656 52.614 7.11211 52.4345 8.60625L48.0119 44.4656C47.8324 46.2586 49.2072 47.8125 51.0001 47.8125H61.698L72.8146 58.8689C74.6677 60.7814 77.8949 59.4668 77.8949 56.7773V47.5137C78.9107 47.3342 79.9271 46.9756 80.8832 46.5572C86.1425 44.2861 89.848 39.0272 89.848 32.8711V20.918C89.848 14.7619 86.1425 9.50293 80.8832 7.23184Z" fill="#355382"/>
<path d="M51 0H27.0938C25.0022 0 22.9699 0.418359 21.1172 1.25528C15.8578 3.52637 12.1523 8.78535 12.1523 14.9414V32.8711C12.1523 39.0272 15.8578 44.2861 21.1172 46.5572C22.0732 46.9756 23.0897 47.3342 24.1055 47.5137V56.7773C24.1055 59.4668 27.3326 60.7814 29.1853 58.8689L39.0469 49.0678L40.3022 47.8125H51C59.2477 47.8125 65.9414 41.1187 65.9414 32.8711V14.9414C65.9414 6.69375 59.2477 0 51 0Z" fill="#FFD400"/>
<path d="M50.1031 17.033L39.0467 28.0898C37.4509 29.6848 35.7408 30.8538 33.9668 28.9861L27.9902 23.0096C26.7949 21.874 26.7949 19.9619 27.9902 18.8262C29.1258 17.6309 31.0379 17.6309 32.1736 18.8262L36.0584 22.651L39.0467 19.6627L45.9199 12.8496C47.0555 11.6543 48.9676 11.6543 50.1033 12.8496C51.2986 13.9854 51.2986 15.8975 50.1031 17.033Z" fill="#3F6199"/>
</svg>
