<?xml version="1.0" encoding="UTF-8"?>
<svg width="17px" height="17px" viewBox="0 0 17 17" version="1.1" xmlns="http://www.w3.org/2000/svg" xmlns:xlink="http://www.w3.org/1999/xlink">
    <!-- Generator: Sketch 52.4 (67378) - http://www.bohemiancoding.com/sketch -->
    <title>icon-linkedin</title>
    <desc>Created with Sketch.</desc>
    <g id="Symbols" stroke="none" stroke-width="1" fill="none" fill-rule="evenodd" opacity="0.5">
        <g id="footer" transform="translate(-1194.000000, -851.000000)" fill="#FFFFFF" fill-rule="nonzero">
            <g transform="translate(140.000000, 133.000000)" id="Mask-+-Mask-+-Mask-Mask">
                <g transform="translate(1012.000000, 716.000000)">
                    <path d="M44.0569795,2.15108989 C45.2590032,2.15108989 45.9955104,2.96226922 46.0183376,4.03109779 C46.0183376,5.07639087 45.2561864,5.91111041 44.0309096,5.91111041 L44.0113983,5.91111041 C42.8322614,5.91111041 42.0695835,5.07639087 42.0695835,4.03109779 C42.0695835,2.96226922 42.8551023,2.15108989 44.0570115,2.15108989 L44.0569795,2.15108989 Z M54.4177008,7.14654215 C56.7294089,7.14654215 58.4577409,8.70228692 58.4577409,12.0480035 L58.4577409,18.2923282 L54.9455113,18.2923282 L54.9455113,12.4642896 C54.9455113,10.9999779 54.4380136,10.000137 53.1665922,10.000137 C52.1959413,10.000137 51.61562,10.6791221 51.3616078,11.3295692 C51.2688287,11.5622907 51.2508381,11.8835995 51.2508381,12.2091463 L51.2508381,18.2923282 L47.7321048,18.2923282 C47.7321048,18.2923282 47.7782172,8.42377806 47.7321048,7.40169013 L51.2508381,7.40169013 L51.2508381,8.93926532 C51.7179073,8.19709732 52.5546133,7.14654215 54.4177008,7.14654215 Z M42.2780604,7.40169013 L45.7902716,7.40169013 L45.7902716,18.2923282 L42.2780604,18.2923282 L42.2780604,7.40169013 Z" id="icon-linkedin"></path>
                </g>
            </g>
        </g>
    </g>
</svg>