<svg width="19" height="16" viewBox="0 0 19 16" fill="none" xmlns="http://www.w3.org/2000/svg">
<path d="M2.24741 3.06941C2.27095 2.83675 2.18223 2.6068 2.00851 2.45022L0.238898 0.31844V0H5.73354L9.98061 9.31437L13.7145 0H18.9525V0.31844L17.4395 1.76911C17.3091 1.86854 17.2444 2.03196 17.2714 2.1937V12.8526C17.2444 13.0143 17.3091 13.1778 17.4395 13.2772L18.9171 14.7278V15.0463H11.4848V14.7278L13.0155 13.2418C13.1659 13.0914 13.1659 13.0472 13.1659 12.8172V4.20164L8.90999 15.0109H8.33487L3.37996 4.20164V11.4461C3.33865 11.7507 3.4398 12.0574 3.65425 12.2776L5.64506 14.6925V15.0109H0V14.6925L1.99081 12.2776C2.2037 12.057 2.29895 11.7483 2.24741 11.4461V3.06941Z" fill="#838095"/>
</svg>
