<svg width="27" height="24" viewBox="0 0 27 24" fill="none" xmlns="http://www.w3.org/2000/svg">
<path d="M6.94887 12.5546C3.1183 12.5546 0.00195312 15.671 0.00195312 19.5015V19.5171C0.00195312 19.7357 0.17915 19.9129 0.397717 19.9129H13.5001C13.7187 19.9129 13.8958 19.7357 13.8958 19.5171V19.5015C13.8958 15.671 10.7794 12.5546 6.94887 12.5546Z" fill="#8CC7EC"/>
<path d="M6.94797 12.5546C6.60819 12.5546 6.27417 12.5796 5.94727 12.6269C9.30535 13.1135 11.8935 16.0107 11.8935 19.5015V19.5171C11.8935 19.7357 11.7164 19.9129 11.4978 19.9129H13.4992C13.7178 19.9129 13.8949 19.7357 13.8949 19.5171V19.5015C13.8949 15.671 10.7785 12.5546 6.94797 12.5546Z" fill="#66BAEA"/>
<path d="M8.69751 12.7767C7.56061 12.4819 6.3376 12.482 5.20075 12.7767C5.00815 12.8266 4.88261 13.0118 4.90741 13.2092C5.03643 14.2351 5.91418 15.0088 6.94913 15.0088C7.98403 15.0088 8.86178 14.2351 8.99085 13.2092C9.01565 13.0118 8.89012 12.8266 8.69751 12.7767Z" fill="#E09C77"/>
<path d="M12.8923 3.26062C12.3186 2.31243 11.3655 1.7029 10.2084 1.54438C9.3855 1.43161 8.71249 1.65118 8.33519 1.82353C7.78487 1.1683 7.15846 0.81665 5.8593 0.81665C4.36721 0.81665 2.2522 1.59076 1.13446 3.29033C-0.165177 5.26656 0.393061 7.60748 1.09024 9.22325C1.15477 9.37285 1.30063 9.46235 1.45381 9.46235L12.3081 9.42018C12.3081 9.42018 12.7406 9.38799 12.8148 9.18236C13.9455 6.05123 13.481 4.23383 12.8923 3.26062Z" fill="#6E563D"/>
<path d="M12.8938 3.2606C12.3202 2.3124 11.367 1.70287 10.21 1.54436C9.68457 1.47238 9.22073 1.53602 8.85547 1.63623C9.80166 1.87828 10.5787 2.44316 11.0732 3.26065C11.662 4.23386 12.1265 6.05126 10.9958 9.18239C10.9216 9.38797 10.4891 9.42021 10.4891 9.42021H12.3097C12.3097 9.42021 12.7422 9.38803 12.8164 9.18239C13.947 6.05121 13.4826 4.23381 12.8938 3.2606Z" fill="#604B35"/>
<path d="M11.71 8.35284C11.5602 8.35284 11.4115 8.37622 11.2682 8.42229C11.1138 8.47194 11.0054 8.61083 10.9945 8.77267C10.9583 9.3135 10.8173 9.83221 10.5752 10.3144C10.5025 10.4595 10.5256 10.6342 10.6336 10.7553C10.9077 11.0627 11.3001 11.239 11.71 11.239C12.5057 11.239 13.153 10.5916 13.153 9.7959C13.153 9.00021 12.5057 8.35284 11.71 8.35284Z" fill="#E09C77"/>
<path d="M3.32193 10.3145C3.07994 9.83216 2.93889 9.31344 2.90274 8.77267C2.89192 8.61083 2.78343 8.47194 2.62903 8.42229C2.48571 8.37617 2.33706 8.35284 2.18725 8.35284C1.3915 8.35284 0.744141 9.00021 0.744141 9.7959C0.744141 10.5916 1.3915 11.239 2.18725 11.239C2.59721 11.239 2.98949 11.0627 3.26357 10.7554C3.37159 10.6343 3.39475 10.4595 3.32193 10.3145Z" fill="#F7B081"/>
<path d="M26.2751 5.10007C25.7899 3.83447 24.9439 2.75953 23.8286 1.99143C22.7125 1.22285 21.4065 0.816589 20.0517 0.816589C18.6969 0.816589 17.3909 1.22285 16.2749 1.99143C15.1595 2.75953 14.3135 3.83442 13.8284 5.10007C13.1002 6.99979 13.0976 11.2074 14.1329 13.4098C14.515 14.2226 15.0142 14.7379 15.6166 14.9416C15.8238 15.0116 16.0483 14.9005 16.1183 14.6933C16.1325 14.6513 16.1389 14.6086 16.1389 14.5666H23.9647C23.9647 14.6086 23.971 14.6513 23.9852 14.6933C24.0411 14.8584 24.1951 14.9625 24.3602 14.9625C24.4022 14.9625 24.4449 14.9557 24.4869 14.9416C25.0894 14.738 25.5886 14.2226 25.9706 13.4098C27.0058 11.2075 27.0033 6.99984 26.2751 5.10007Z" fill="#A58260"/>
<path d="M15.6154 14.9415C15.8226 15.0116 16.0471 14.9005 16.1171 14.6933C16.1313 14.6513 16.1377 14.6086 16.1377 14.5666H14.9648C15.1658 14.7373 15.3828 14.8629 15.6154 14.9415Z" fill="#8C6B50"/>
<path d="M26.2741 5.10007C25.789 3.83447 24.9429 2.75953 23.8276 1.99143C22.7116 1.22285 21.4056 0.816589 20.0508 0.816589C19.741 0.816589 19.4339 0.83891 19.1309 0.880861C20.1529 1.02239 21.127 1.39863 21.9878 1.99143C23.1032 2.75953 23.9491 3.83442 24.4343 5.10007C25.1626 6.99984 25.165 11.2075 24.1297 13.4098C23.8952 13.9088 23.6163 14.2952 23.2966 14.5666H23.9636C23.9636 14.6086 23.9699 14.6513 23.9841 14.6933C24.04 14.8584 24.194 14.9625 24.3591 14.9625C24.4011 14.9625 24.4438 14.9557 24.4858 14.9416C25.0883 14.738 25.5875 14.2226 25.9695 13.4098C27.0049 11.2075 27.0024 6.99984 26.2741 5.10007Z" fill="#8C6B50"/>
<path d="M11.469 7.30731C9.50989 6.97049 8.15406 4.98233 8.14086 4.9627C8.0595 4.84091 7.91781 4.77295 7.77238 4.78762C7.62669 4.80239 7.50157 4.89516 7.44633 5.03078C7.44395 5.03642 7.19816 5.60352 6.4766 6.16176C5.51284 6.90743 4.13684 7.30156 2.49733 7.30156C2.27876 7.30156 2.10156 7.47876 2.10156 7.69733V8.49798C2.10156 11.1712 4.27642 13.346 6.94962 13.346C9.62282 13.346 11.7977 11.1712 11.7977 8.49798V7.69733C11.7977 7.50467 11.6589 7.33998 11.469 7.30731Z" fill="#FFC89F"/>
<path d="M11.4678 7.30733C10.9558 7.21932 10.4856 7.018 10.0692 6.76904V8.49805C10.0692 10.8768 8.34696 12.8606 6.08398 13.2689C6.36455 13.3196 6.65346 13.3461 6.94844 13.3461C9.62169 13.3461 11.7965 11.1713 11.7965 8.49805V7.6974C11.7965 7.50469 11.6578 7.34 11.4678 7.30733Z" fill="#F7B081"/>
<path d="M20.0504 12.5546C16.2199 12.5546 13.1035 15.671 13.1035 19.5015V19.5171C13.1035 19.7357 13.2807 19.9129 13.4993 19.9129H26.6016C26.8203 19.9129 26.9974 19.7357 26.9974 19.5171V19.5015C26.9974 15.671 23.881 12.5546 20.0504 12.5546Z" fill="#FD7DAD"/>
<path d="M20.0512 12.5546C19.7392 12.5546 19.4321 12.5756 19.1309 12.6157C22.5279 13.0673 25.1575 15.9829 25.1575 19.5015V19.5172C25.1575 19.7357 24.9804 19.9129 24.7617 19.9129H26.6024C26.821 19.9129 26.9982 19.7357 26.9982 19.5172V19.5015C26.9981 15.671 23.8817 12.5546 20.0512 12.5546Z" fill="#FC63A1"/>
<path d="M21.7991 12.7767C20.6622 12.4819 19.4392 12.4819 18.3023 12.7767C18.1098 12.8266 17.9842 13.0118 18.009 13.2092C18.138 14.2351 19.0158 15.0088 20.0507 15.0088C21.0856 15.0088 21.9634 14.2351 22.0924 13.2092C22.1174 13.0118 21.9918 12.8266 21.7991 12.7767Z" fill="#E09C77"/>
<path d="M24.5705 7.30733C22.6115 6.97051 21.2556 4.98235 21.2424 4.96272C21.1611 4.84098 21.0196 4.77413 20.8735 4.78885C20.7278 4.80362 20.6021 4.89766 20.5469 5.03327C20.5376 5.05596 19.5766 7.30163 15.5989 7.30163C15.3803 7.30163 15.2031 7.47883 15.2031 7.69739V8.49805C15.2031 11.1713 17.378 13.3461 20.0512 13.3461C22.7244 13.3461 24.8993 11.1713 24.8993 8.49805V7.69739C24.8993 7.50468 24.7605 7.33999 24.5705 7.30733Z" fill="#FFC89F"/>
<path d="M24.5695 7.30734C24.011 7.2113 23.5018 6.98086 23.0585 6.70029V8.49806C23.0585 10.8566 21.3654 12.8271 19.1309 13.2583C19.4286 13.3157 19.736 13.3461 20.0502 13.3461C22.7234 13.3461 24.8983 11.1713 24.8983 8.49806V7.6974C24.8983 7.50469 24.7595 7.34 24.5695 7.30734Z" fill="#F7B081"/>
<path d="M9.68244 21.0178C9.40462 20.5105 9.23734 19.9603 9.18531 19.3823C9.16922 19.2036 9.03492 19.0581 8.85809 19.0277C8.77651 19.0137 8.69467 19.0066 8.61493 19.0066C7.81924 19.0066 7.17188 19.654 7.17188 20.4497C7.17188 21.2454 7.81924 21.8928 8.61493 21.8928C8.98574 21.8928 9.33844 21.7514 9.6082 21.4946C9.73816 21.3709 9.76867 21.1752 9.68244 21.0178Z" fill="#F7B081"/>
<path d="M18.1376 19.0067C18.0578 19.0067 17.976 19.0138 17.8944 19.0278C17.7176 19.0581 17.5833 19.2036 17.5673 19.3823C17.5152 19.9603 17.348 20.5105 17.0701 21.0179C16.984 21.1753 17.0144 21.3709 17.1443 21.4946C17.4141 21.7514 17.7668 21.8929 18.1376 21.8929C18.9333 21.8929 19.5807 21.2455 19.5807 20.4498C19.5807 19.654 18.9333 19.0067 18.1376 19.0067Z" fill="#E09C77"/>
<path d="M13.3753 13.9993C10.6181 13.9993 8.375 16.2425 8.375 18.9997C8.375 21.7569 10.6181 24 13.3753 24C16.1326 24 18.3757 21.7569 18.3757 18.9997C18.3757 16.2425 16.1326 13.9993 13.3753 13.9993Z" fill="#FFC89F"/>
<path d="M13.3769 13.9993C13.0628 13.9993 12.7553 14.0288 12.457 14.0844C14.7764 14.5175 16.5375 16.5566 16.5375 18.9996C16.5375 21.4426 14.7763 23.4817 12.457 23.9148C12.7553 23.9705 13.0627 24 13.3769 24C16.1342 24 18.3773 21.7568 18.3773 18.9996C18.3773 16.2424 16.1342 13.9993 13.3769 13.9993Z" fill="#F7B081"/>
<path d="M13.1563 14.7908C13.1221 14.7908 13.0877 14.7864 13.0538 14.7773C11.4054 14.3353 11.1556 12.9128 11.1458 12.8524C11.1107 12.6367 11.2571 12.4334 11.4728 12.3982C11.6876 12.3633 11.8902 12.5083 11.9266 12.7225C11.9334 12.7594 12.0522 13.3612 12.6739 13.7594C12.6525 13.4462 12.6545 13.0752 12.7281 12.7409C12.7751 12.5274 12.9863 12.3925 13.1997 12.4395C13.4132 12.4865 13.5481 12.6976 13.5011 12.9111C13.3935 13.3998 13.495 14.0879 13.5432 14.3118C13.5722 14.4466 13.529 14.5868 13.4291 14.6819C13.3546 14.7527 13.2566 14.7908 13.1563 14.7908Z" fill="#464649"/>
</svg>
