<svg width="27" height="27" viewBox="0 0 27 27" fill="none" xmlns="http://www.w3.org/2000/svg">
<path d="M17.6894 19.0865V15.8281H9.31055V19.0865L13.5 22.8104L17.6894 19.0865Z" fill="#E6AF78"/>
<path d="M24.1685 20.6107L18.4084 19.2554C18.3214 19.235 18.2414 19.2002 18.1666 19.1581L13.5012 21.8795L9.01782 19.0265C8.90176 19.1357 8.75769 19.2169 8.59405 19.2555L2.83396 20.6108C1.99286 20.8087 1.39844 21.5592 1.39844 22.4233V26.069C1.39844 26.5832 1.81525 27 2.3294 27H24.6729C25.1871 27 25.6039 26.5831 25.6039 26.069V22.4233C25.604 21.5592 25.0096 20.8086 24.1685 20.6107Z" fill="#EFF2FA"/>
<path d="M9.31055 15.8281V19.266C14.5881 21.1675 17.6894 16.4086 17.6894 16.4086V15.8281H9.31055V15.8281Z" fill="#D29B6E"/>
<path d="M7.44922 5.12189L7.85485 14.046C7.89271 14.8796 8.30151 15.6528 8.96912 16.1535L10.8938 17.597C11.3773 17.9596 11.9653 18.1556 12.5696 18.1556H14.4316C15.0359 18.1556 15.6239 17.9596 16.1074 17.597L18.0321 16.1535C18.6997 15.6527 19.1085 14.8797 19.1463 14.046L19.552 5.12189C19.5519 5.12189 7.44922 5.12189 7.44922 5.12189Z" fill="#F0C087"/>
<path d="M12.1042 6.98381C13.9661 6.98381 16.759 6.51833 17.4215 5.12183H7.44922L7.85485 14.0459C7.89271 14.8796 8.30151 15.6527 8.96917 16.1534L10.8939 17.597C11.3773 17.9595 11.9653 18.1556 12.5696 18.1556H13.5006C12.5696 18.1556 10.7077 16.2936 10.7077 13.9662C10.7077 12.8279 10.7077 9.77677 10.7077 8.38026C10.7077 7.91478 11.1731 6.98381 12.1042 6.98381Z" fill="#E6AF78"/>
<path d="M4.81571 23.9789L1.79937 21.2693C1.54662 21.5894 1.39844 21.9921 1.39844 22.4232V26.069C1.39844 26.5832 1.81525 26.9999 2.3294 26.9999H5.58784V25.7104C5.58779 25.0498 5.30709 24.4203 4.81571 23.9789Z" fill="#E4EAF6"/>
<path d="M22.1842 23.9789L25.2006 21.2693C25.4533 21.5894 25.6015 21.9921 25.6015 22.4233V26.069C25.6015 26.5832 25.1847 27 24.6705 27H21.4121V25.7104C21.4121 25.0498 21.6928 24.4203 22.1842 23.9789Z" fill="#E4EAF6"/>
<path d="M14.6634 26.9999H12.3359L12.6269 22.8104H14.3725L14.6634 26.9999Z" fill="#5B5D6E"/>
<path d="M14.6634 21.8795H12.3359V22.7555C12.3359 23.043 12.5689 23.276 12.8564 23.276H14.1429C14.4304 23.276 14.6634 23.043 14.6634 22.7555V21.8795H14.6634Z" fill="#515262"/>
<path d="M9.24512 18.0502L13.4999 21.8795C13.4999 21.8795 12.3083 22.481 10.8379 23.6934C10.5346 23.9435 10.0757 23.8422 9.91305 23.4843L7.91406 19.0866L8.54645 18.138C8.70381 17.9018 9.03413 17.8603 9.24512 18.0502Z" fill="#E4EAF6"/>
<path d="M17.7548 18.0502L13.5 21.8795C13.5 21.8795 14.6916 22.481 16.162 23.6934C16.4653 23.9435 16.9242 23.8422 17.0869 23.4843L19.0859 19.0866L18.4535 18.1381C18.2961 17.9018 17.9657 17.8604 17.7548 18.0502Z" fill="#E4EAF6"/>
<path d="M16.3223 2.03803L16.7586 5.12191C18.7507 5.52032 19.0378 8.6465 19.0791 9.53939C19.0866 9.70145 19.1383 9.85791 19.2262 9.99423L19.9863 11.1733C19.9863 11.1733 19.7261 9.22399 20.9172 7.91482C20.9173 7.91482 21.3263 0.176039 16.3223 2.03803Z" fill="#785550"/>
<path d="M20.4529 10.9747L19.9274 13.0768C19.8651 13.3259 19.6413 13.5007 19.3844 13.5007C19.1022 13.5007 18.8641 13.2905 18.8291 13.0104L18.5603 10.8605C18.4884 10.285 18.9371 9.77673 19.517 9.77673H19.5174C20.1448 9.77679 20.605 10.3662 20.4529 10.9747Z" fill="#F0C087"/>
<path d="M7.89547 1.20395L8.58397 1.67429C5.47103 3.97265 6.05284 7.91479 6.05284 7.91479C6.98381 8.84575 6.98381 11.1732 6.98381 11.1732L7.91477 10.2423C7.91477 10.2423 7.5555 7.55292 9.31123 6.51834C10.9404 5.55826 12.366 6.05285 13.8207 6.05285C17.7191 6.05285 18.8102 4.58363 18.6211 2.79441C18.5232 1.86861 17.1077 -0.0598703 13.5007 0.00145939C12.045 0.0261917 9.31133 0.466943 7.89547 1.20395Z" fill="#694B4B"/>
<path d="M7.62389 5.64554C7.62389 5.64554 7.1293 3.69628 8.58397 1.67435C5.47103 3.97271 6.05284 7.91484 6.05284 7.91484C6.98381 8.84581 6.98381 11.1733 6.98381 11.1733L7.91477 10.2423C7.91477 10.2423 7.5555 7.55298 9.31123 6.51839C10.9404 5.55832 12.366 6.05291 13.8207 6.05291C14.4547 6.05291 15.0072 6.01046 15.4993 5.93769C12.497 6.0383 10.7272 3.76415 7.62389 5.64554Z" fill="#5A4146"/>
<path d="M6.54684 10.9747L7.07234 13.0768C7.13462 13.3259 7.35842 13.5007 7.61529 13.5007C7.89757 13.5007 8.13561 13.2905 8.17063 13.0104L8.43941 10.8605C8.51134 10.285 8.06268 9.77673 7.48271 9.77673H7.48229C6.85497 9.77679 6.3947 10.3662 6.54684 10.9747Z" fill="#E6AF78"/>
<path d="M19.552 26.0689H16.2936C16.0365 26.0689 15.8281 26.2773 15.8281 26.5344V26.9998H20.0175V26.5344C20.0175 26.2773 19.8091 26.0689 19.552 26.0689Z" fill="#E4EAF6"/>
</svg>
