<?xml version="1.0" encoding="UTF-8"?><svg xmlns="http://www.w3.org/2000/svg" width="22" height="22"><path fill="#F6F9FC" fill-rule="evenodd" d="M21.6 16.3h.3l.1-.3v-1.7c0-.3-.1-.5-.4-.7l-8.4-5a.8.8 0 0 1-.4-.7V2.3l-.1-.8C12.3.6 11.9 0 11.3 0H11h-.3-.1-.2c-.2.1-.4.2-.6.5a3 3 0 0 0-.4.5l-.1.4-.1.8v5.6c0 .3-.2.6-.4.7l-8.4 5c-.3.2-.4.4-.4.7V16l.1.2h.3l8.3-2.6H9l.2.3v4.3c0 .4-.2.6-.4.8l-1.1.8c-.2.2-.4.4-.4.8v1c0 .2 0 .3.2.3h.3l2.8-.7c.3-.1.5-.1.8 0l2.8.8h.3l.2-.3v-1.1c0-.4-.2-.6-.4-.8l-1.1-.8a.9.9 0 0 1-.4-.8V14c0-.2 0-.3.2-.3h.3l8.3 2.7z"/></svg>