<?xml version="1.0" encoding="UTF-8"?>
<svg width="20px" height="17px" viewBox="0 0 20 17" version="1.1" xmlns="http://www.w3.org/2000/svg" xmlns:xlink="http://www.w3.org/1999/xlink">
    <!-- Generator: Sketch 52.4 (67378) - http://www.bohemiancoding.com/sketch -->
    <title>icon-twitter</title>
    <desc>Created with Sketch.</desc>
    <g id="Symbols" stroke="none" stroke-width="1" fill="none" fill-rule="evenodd" opacity="0.5">
        <g id="footer" transform="translate(-1152.000000, -851.000000)" fill="#FFFFFF" fill-rule="nonzero">
            <g transform="translate(140.000000, 133.000000)" id="Mask-+-Mask-+-Mask-Mask">
                <g transform="translate(1012.000000, 716.000000)">
                    <path d="M19.2,4.79940255 C18.4939438,5.11854331 17.7346515,5.33424151 16.9379998,5.431416 C17.7510839,4.93468989 18.3753977,4.1485194 18.6695062,3.21193423 C17.9085355,3.67185269 17.0658149,4.0054547 16.1681759,4.18527314 C15.4500421,3.40577114 14.4262778,2.91852801 13.2933839,2.91852801 C11.1179042,2.91852801 9.35465569,4.71457555 9.35465569,6.93019561 C9.35465569,7.24474312 9.38916863,7.55102046 9.45659551,7.84445363 C6.18291245,7.67736771 3.28058942,6.07973879 1.33784339,3.65282514 C0.998773571,4.24507016 0.804556049,4.93411622 0.804556049,5.66946059 C0.804556049,7.06149033 1.49964596,8.28921011 2.55684961,9.00891124 C1.91119674,8.98835132 1.30375383,8.80780905 0.772674103,8.5071106 C0.77191807,8.52401286 0.77191807,8.54068411 0.77191807,8.55746316 C0.77191807,10.5015691 2.12981526,12.1226571 3.93154964,12.4914535 C3.60131786,12.5831531 3.25342891,12.631646 2.89416165,12.631646 C2.64009649,12.631646 2.39375422,12.6071589 2.15283649,12.5601175 C2.65440821,14.1538847 4.10879043,15.3139108 5.83271004,15.3463831 C4.48354504,16.4225794 2.78543643,17.0636061 0.939882319,17.0636061 C0.622166675,17.0636061 0.308393747,17.0445477 0,17.0076708 C1.74386756,18.1459241 3.81400529,18.8098671 6.03864231,18.8098671 C13.283495,18.8098671 17.2448361,12.6970181 17.2448361,7.39515009 C17.2448361,7.22129557 17.2409047,7.0486269 17.2337602,6.87657811 C18.0030208,6.31049885 18.6707348,5.60411162 19.199123,4.79943335" id="icon-twitter"></path>
                </g>
            </g>
        </g>
    </g>
</svg>